<svg xmlns="http://www.w3.org/2000/svg" width="107" height="107" viewBox="0 0 107 107">
  <g id="active_drivers" data-name="active drivers" transform="translate(-279 -239)">
    <circle id="Ellipse_343" data-name="Ellipse 343" cx="53.5" cy="53.5" r="53.5" transform="translate(279 239)" fill="#28ff00" opacity="0.05"/>
    <path id="Icon_material-notifications-active" data-name="Icon material-notifications-active" d="M11.37,6.12,9.225,3.975A15.638,15.638,0,0,0,3.045,15.75h3A12.668,12.668,0,0,1,11.37,6.12Zm18.585,9.63h3a15.733,15.733,0,0,0-6.18-11.775L24.645,6.12a12.743,12.743,0,0,1,5.31,9.63ZM27,16.5c0-4.6-2.46-8.46-6.75-9.48V6a2.25,2.25,0,0,0-4.5,0V7.02C11.445,8.04,9,11.88,9,16.5V24L6,27v1.5H30V27l-3-3ZM18,33a2.628,2.628,0,0,0,.6-.06,3.044,3.044,0,0,0,2.16-1.77A3.012,3.012,0,0,0,20.985,30h-6A3.022,3.022,0,0,0,18,33Z" transform="translate(314.322 274.341)" fill="#00e92f"/>
  </g>
</svg>
