<svg xmlns="http://www.w3.org/2000/svg" width="107" height="107" viewBox="0 0 107 107">
  <g id="block" transform="translate(-279 -239)">
    <circle id="Ellipse_343" data-name="Ellipse 343" cx="53.5" cy="53.5" r="53.5" transform="translate(279 239)" fill="red" opacity="0.05"/>
    <path id="Icon_metro-blocked" data-name="Icon metro-blocked" d="M28.9,6.446A15.424,15.424,0,0,0,7.088,28.259,15.424,15.424,0,0,0,28.9,6.446Zm.662,10.907a11.5,11.5,0,0,1-2.142,6.7L11.3,7.926a11.563,11.563,0,0,1,18.267,9.426Zm-23.136,0a11.5,11.5,0,0,1,2.142-6.7L24.694,26.778A11.563,11.563,0,0,1,6.427,17.352Z" transform="translate(314.782 275.364)" fill="red"/>
  </g>
</svg>
