<svg xmlns="http://www.w3.org/2000/svg" width="107" height="107" viewBox="0 0 107 107">
  <g id="cancelled_trip" data-name="cancelled trip" transform="translate(-279 -239)">
    <circle id="Ellipse_343" data-name="Ellipse 343" cx="53.5" cy="53.5" r="53.5" transform="translate(279 239)" fill="red" opacity="0.05"/>
    <path id="Icon_awesome-calendar-times" data-name="Icon awesome-calendar-times" d="M30.656,11.25H.844A.846.846,0,0,1,0,10.406V7.875A3.376,3.376,0,0,1,3.375,4.5H6.75V.844A.846.846,0,0,1,7.594,0h2.813a.846.846,0,0,1,.844.844V4.5h9V.844A.846.846,0,0,1,21.094,0h2.813a.846.846,0,0,1,.844.844V4.5h3.375A3.376,3.376,0,0,1,31.5,7.875v2.531A.846.846,0,0,1,30.656,11.25ZM.844,13.5H30.656a.846.846,0,0,1,.844.844V32.625A3.376,3.376,0,0,1,28.125,36H3.375A3.376,3.376,0,0,1,0,32.625V14.344A.846.846,0,0,1,.844,13.5ZM18.935,24.75l3.382-3.382a.845.845,0,0,0,0-1.2l-1.99-1.99a.845.845,0,0,0-1.2,0L15.75,21.565l-3.382-3.382a.845.845,0,0,0-1.2,0l-1.99,1.99a.845.845,0,0,0,0,1.2l3.382,3.382L9.183,28.132a.845.845,0,0,0,0,1.2l1.99,1.99a.845.845,0,0,0,1.2,0l3.382-3.382,3.382,3.382a.845.845,0,0,0,1.2,0l1.99-1.99a.845.845,0,0,0,0-1.2Z" transform="translate(316.726 274.716)" fill="red"/>
  </g>
</svg>
