<svg xmlns="http://www.w3.org/2000/svg" width="107" height="107" viewBox="0 0 107 107">
  <g id="kms_driven" data-name="kms driven" transform="translate(-279 -239)">
    <circle id="Ellipse_343" data-name="Ellipse 343" cx="53.5" cy="53.5" r="53.5" transform="translate(279 239)" opacity="0.05"/>
    <path id="Icon_awesome-road" data-name="Icon awesome-road" d="M40.3,28.313l-9.829-22.5A2.141,2.141,0,0,0,28.524,4.5H21.663l.172,1.628a.563.563,0,0,1-.56.622h-2.05a.563.563,0,0,1-.56-.622L18.837,4.5H11.976a2.141,2.141,0,0,0-1.95,1.313L.2,28.313A2.245,2.245,0,0,0,2.147,31.5h13.84l.725-6.868a1.125,1.125,0,0,1,1.119-1.007h4.837a1.125,1.125,0,0,1,1.119,1.007l.725,6.868h13.84A2.245,2.245,0,0,0,40.3,28.313ZM18.309,9.5a.562.562,0,0,1,.56-.5h2.763a.563.563,0,0,1,.56.5l.323,3.064a.844.844,0,0,1-.839.932h-2.85a.843.843,0,0,1-.839-.932L18.309,9.5Zm3.884,11.872H18.306a1.125,1.125,0,0,1-1.119-1.243l.356-3.375a1.125,1.125,0,0,1,1.119-1.007h3.175a1.125,1.125,0,0,1,1.119,1.007l.356,3.375a1.125,1.125,0,0,1-1.119,1.243Z" transform="translate(312.426 270.716)" fill="#656363"/>
  </g>
</svg>
