<svg xmlns="http://www.w3.org/2000/svg" width="107" height="107" viewBox="0 0 107 107">
  <g id="total_trips" data-name="total trips" transform="translate(-279 -239)">
    <path id="Icon_awesome-car-alt" data-name="Icon awesome-car-alt" d="M50.307,21.511l-1.289-3.223-2.286-5.715A12.782,12.782,0,0,0,34.807,4.5H20.242A12.783,12.783,0,0,0,8.316,12.574L6.03,18.288,4.741,21.511A7.324,7.324,0,0,0,0,28.354v5.5a7.28,7.28,0,0,0,1.835,4.809v6.2a3.67,3.67,0,0,0,3.67,3.67h3.67a3.67,3.67,0,0,0,3.67-3.67V41.2H42.2v3.67a3.67,3.67,0,0,0,3.67,3.67h3.67a3.67,3.67,0,0,0,3.67-3.67v-6.2a7.275,7.275,0,0,0,1.835-4.809v-5.5A7.324,7.324,0,0,0,50.307,21.511ZM15.13,15.3a5.505,5.505,0,0,1,5.111-3.46H34.807a5.505,5.505,0,0,1,5.111,3.46L42.2,21.014H12.845L15.13,15.3ZM9.175,33.836A3.462,3.462,0,0,1,5.5,30.178a3.462,3.462,0,0,1,3.67-3.658c2.2,0,5.5,3.293,5.5,5.488S11.377,33.836,9.175,33.836Zm36.7,0c-2.2,0-5.5.366-5.5-1.829s3.3-5.488,5.5-5.488a3.462,3.462,0,0,1,3.67,3.658A3.462,3.462,0,0,1,45.874,33.836Z" transform="translate(306.575 262)" fill="#252ce3"/>
    <circle id="Ellipse_343" data-name="Ellipse 343" cx="53.5" cy="53.5" r="53.5" transform="translate(279 239)" fill="#252ce3" opacity="0.05"/>
  </g>
</svg>
