<svg xmlns="http://www.w3.org/2000/svg" width="698.048" height="465.413" viewBox="0 0 698.048 465.413">
  <g id="_5_SCENE" data-name="5 SCENE" transform="translate(-626 -503)">
    <path id="FLOOR" d="M1324.048,2672.7H626l125.306-74H1200.66Z" transform="translate(0 -1704.572)" fill="#d0f0e4"/>
    <g id="LAPTOP" transform="translate(870.628 524.859)">
      <g id="Group_536" data-name="Group 536" transform="translate(0 0)">
        <path id="Path_1531" data-name="Path 1531" d="M2226.185,697.52H2100.6V624.9a8.9,8.9,0,0,1,8.9-8.9h107.78a8.9,8.9,0,0,1,8.9,8.9Z" transform="translate(-2070.59 -616)" fill="#fff" stroke="#66b0f0" stroke-miterlimit="10" stroke-width="2"/>
        <path id="Path_1532" data-name="Path 1532" d="M2238.27,712.075h-106.1a5.071,5.071,0,0,1-5.066-5.066V644.766a5.071,5.071,0,0,1,5.066-5.066h106.1a5.071,5.071,0,0,1,5.066,5.066v62.262A5.055,5.055,0,0,1,2238.27,712.075Z" transform="translate(-2092.155 -635.286)" fill="#66b0f0"/>
        <path id="Path_1533" data-name="Path 1533" d="M2117.08,1144.468c4.805,3.129,3.688,9.256-1.993,9.256H1944c-4.786,0-6.426-6.463-1.732-9.424Z" transform="translate(-1939.471 -1045.906)" fill="#66b0f0" stroke="#66b0f0" stroke-miterlimit="10" stroke-width="2"/>
        <path id="Path_1534" data-name="Path 1534" d="M2121.329,1075.733H1950.244c-3.054,0-4.265-3.595-1.732-5.159l27.248-16.874h125.194l22.35,17.041C2125.538,1072.436,2124.235,1075.733,2121.329,1075.733Z" transform="translate(-1945.713 -972.18)" fill="#fff" stroke="#66b0f0" stroke-miterlimit="10" stroke-width="2"/>
        <g id="Group_535" data-name="Group 535" transform="translate(21.886 81.52)">
          <path id="Path_1535" data-name="Path 1535" d="M2190.973,1070.648h-131.6a2.148,2.148,0,0,1-1.341-3.967l18.923-12.981h98.337l17.19,13.112C2194.214,1068.115,2193.208,1070.648,2190.973,1070.648Z" transform="translate(-2056.985 -1053.7)" fill="#fff" stroke="#66b0f0" stroke-miterlimit="10" stroke-width="2"/>
          <g id="Group_533" data-name="Group 533" transform="translate(74.687)">
            <line id="Line_243" data-name="Line 243" x2="17.209" y2="16.948" transform="translate(35.107)" fill="none" stroke="#66b0f0" stroke-miterlimit="10" stroke-width="2"/>
            <line id="Line_244" data-name="Line 244" x2="15.16" y2="16.948" transform="translate(25.981)" fill="none" stroke="#66b0f0" stroke-miterlimit="10" stroke-width="2"/>
            <line id="Line_245" data-name="Line 245" x2="13.149" y2="16.948" transform="translate(17.451)" fill="none" stroke="#66b0f0" stroke-miterlimit="10" stroke-width="2"/>
            <line id="Line_246" data-name="Line 246" x2="11.119" y2="16.948" transform="translate(7.915)" fill="none" stroke="#66b0f0" stroke-miterlimit="10" stroke-width="2"/>
            <line id="Line_247" data-name="Line 247" x2="5.42" y2="16.948" fill="none" stroke="#66b0f0" stroke-miterlimit="10" stroke-width="2"/>
          </g>
          <g id="Group_534" data-name="Group 534" transform="translate(10.749)">
            <line id="Line_248" data-name="Line 248" x1="17.209" y2="16.948" fill="none" stroke="#66b0f0" stroke-miterlimit="10" stroke-width="2"/>
            <line id="Line_249" data-name="Line 249" x1="15.16" y2="16.948" transform="translate(11.175)" fill="none" stroke="#66b0f0" stroke-miterlimit="10" stroke-width="2"/>
            <line id="Line_250" data-name="Line 250" x1="13.149" y2="16.948" transform="translate(21.716)" fill="none" stroke="#66b0f0" stroke-miterlimit="10" stroke-width="2"/>
            <line id="Line_251" data-name="Line 251" x1="11.119" y2="16.948" transform="translate(33.282)" fill="none" stroke="#66b0f0" stroke-miterlimit="10" stroke-width="2"/>
            <line id="Line_252" data-name="Line 252" x1="5.42" y2="16.948" transform="translate(46.897)" fill="none" stroke="#66b0f0" stroke-miterlimit="10" stroke-width="2"/>
          </g>
          <line id="Line_253" data-name="Line 253" y1="17.153" transform="translate(68.429)" fill="#fff" stroke="#66b0f0" stroke-miterlimit="10" stroke-width="2"/>
          <line id="Line_254" data-name="Line 254" x2="115.882" transform="translate(10.749 6.332)" fill="none" stroke="#66b0f0" stroke-miterlimit="10" stroke-width="2"/>
        </g>
      </g>
      <g id="Group_546" data-name="Group 546" transform="translate(42.581 12.702)">
        <g id="SHIRT" transform="translate(0.484 31.792)">
          <path id="Path_1536" data-name="Path 1536" d="M2264.922,887.2H2170.7l1.695-12.013a18.886,18.886,0,0,1,13.521-15.514l22.964-4.768h17.861l22.964,4.768a18.808,18.808,0,0,1,13.521,15.514Z" transform="translate(-2170.7 -854.9)" fill="#ffcf2d"/>
          <g id="Group_541" data-name="Group 541" transform="translate(30.544 1.545)">
            <g id="Group_537" data-name="Group 537" transform="translate(16.018 0.006)">
              <path id="Path_1537" data-name="Path 1537" d="M2427.61,875.406l-6.8-6.872a.369.369,0,0,1,.521-.521l6.239,6.314,9.685-10.97a.37.37,0,0,1,.559.484Z" transform="translate(-2420.7 -863.232)" fill="#fff"/>
            </g>
            <g id="Group_538" data-name="Group 538">
              <path id="Path_1538" data-name="Path 1538" d="M2345,875.378l-10.206-11.566a.37.37,0,0,1,.559-.484l9.685,10.97,6.239-6.314a.369.369,0,0,1,.521.521Z" transform="translate(-2334.698 -863.198)" fill="#fff"/>
            </g>
            <g id="Group_539" data-name="Group 539" transform="translate(15.105 13.429)">
              <path id="Path_1539" data-name="Path 1539" d="M2417.42,938.541a1.62,1.62,0,1,1,1.62-1.62A1.622,1.622,0,0,1,2417.42,938.541Zm0-2.5a.875.875,0,1,0,.875.875A.874.874,0,0,0,2417.42,936.045Z" transform="translate(-2415.8 -935.3)" fill="#fff"/>
            </g>
            <g id="Group_540" data-name="Group 540" transform="translate(15.105 22.555)">
              <path id="Path_1540" data-name="Path 1540" d="M2417.42,987.541a1.62,1.62,0,1,1,1.62-1.62A1.622,1.622,0,0,1,2417.42,987.541Zm0-2.5a.875.875,0,1,0,.875.875A.874.874,0,0,0,2417.42,985.045Z" transform="translate(-2415.8 -984.3)" fill="#fff"/>
            </g>
          </g>
        </g>
        <g id="HAND_1_" transform="translate(0 30.619)">
          <path id="Path_1541" data-name="Path 1541" d="M2206.653,882.816H2176.22l-8.12-24.1L2198.532,850Z" transform="translate(-2168.1 -849.739)" fill="#fff" stroke="#66b0f0" stroke-miterlimit="10" stroke-width="2"/>
          <g id="Group_542" data-name="Group 542" transform="translate(6.463)">
            <path id="Path_1542" data-name="Path 1542" d="M2206.041,860.706h-.577a2.663,2.663,0,0,1-2.663-2.663V849.68a1.081,1.081,0,0,1,1.08-1.08h2.514a1.081,1.081,0,0,1,1.08,1.08v9.573A1.427,1.427,0,0,1,2206.041,860.706Z" transform="translate(-2202.8 -848.6)" fill="#fff"/>
            <path id="Path_1543" data-name="Path 1543" d="M2206.041,860.706h-.577a2.663,2.663,0,0,1-2.663-2.663V849.68a1.081,1.081,0,0,1,1.08-1.08h2.514a1.081,1.081,0,0,1,1.08,1.08v9.573A1.427,1.427,0,0,1,2206.041,860.706Z" transform="translate(-2202.8 -848.6)" fill="none" stroke="#66b0f0" stroke-linecap="round" stroke-miterlimit="10" stroke-width="2"/>
            <path id="Path_1544" data-name="Path 1544" d="M2279.653,860.706h.577a2.663,2.663,0,0,0,2.663-2.663V849.68a1.081,1.081,0,0,0-1.08-1.08h-2.533a1.081,1.081,0,0,0-1.08,1.08v9.573A1.455,1.455,0,0,0,2279.653,860.706Z" transform="translate(-2264.157 -848.6)" fill="#fff"/>
            <path id="Path_1545" data-name="Path 1545" d="M2231.222,861.756h-1.341a1.876,1.876,0,0,1-1.881-1.881V849.78a1.081,1.081,0,0,1,1.08-1.08h2.514a1.081,1.081,0,0,1,1.08,1.08V860.3A1.455,1.455,0,0,1,2231.222,861.756Z" transform="translate(-2223.306 -848.681)" fill="#fff"/>
            <path id="Path_1546" data-name="Path 1546" d="M2256.341,862.047h-1.117a2.122,2.122,0,0,1-2.123-2.123V849.68a1.081,1.081,0,0,1,1.08-1.08h2.514a1.081,1.081,0,0,1,1.08,1.08v10.914A1.451,1.451,0,0,1,2256.341,862.047Z" transform="translate(-2243.732 -848.6)" fill="#fff"/>
            <path id="Path_1547" data-name="Path 1547" d="M2279.653,860.706h.577a2.663,2.663,0,0,0,2.663-2.663V849.68a1.081,1.081,0,0,0-1.08-1.08h-2.533a1.081,1.081,0,0,0-1.08,1.08v9.573A1.455,1.455,0,0,0,2279.653,860.706Z" transform="translate(-2264.157 -848.6)" fill="none" stroke="#66b0f0" stroke-linecap="round" stroke-miterlimit="10" stroke-width="2"/>
            <path id="Path_1548" data-name="Path 1548" d="M2231.222,861.756h-1.341a1.876,1.876,0,0,1-1.881-1.881V849.78a1.081,1.081,0,0,1,1.08-1.08h2.514a1.081,1.081,0,0,1,1.08,1.08V860.3A1.455,1.455,0,0,1,2231.222,861.756Z" transform="translate(-2223.306 -848.681)" fill="none" stroke="#66b0f0" stroke-linecap="round" stroke-miterlimit="10" stroke-width="2"/>
            <path id="Path_1549" data-name="Path 1549" d="M2256.341,862.047h-1.117a2.122,2.122,0,0,1-2.123-2.123V849.68a1.081,1.081,0,0,1,1.08-1.08h2.514a1.081,1.081,0,0,1,1.08,1.08v10.914A1.451,1.451,0,0,1,2256.341,862.047Z" transform="translate(-2243.732 -848.6)" fill="none" stroke="#66b0f0" stroke-linecap="round" stroke-miterlimit="10" stroke-width="2"/>
          </g>
        </g>
        <g id="HEAD_5_" transform="translate(34.53)">
          <g id="NECK_2_" transform="translate(4.135 20.841)">
            <path id="Path_1550" data-name="Path 1550" d="M2393.58,796.1v13.6c0,2.347-4,4.265-8.94,4.265s-8.94-1.918-8.94-4.265V796.1Z" transform="translate(-2375.7 -796.1)" fill="#fff"/>
            <path id="Path_1551" data-name="Path 1551" d="M2393.661,796.1c0,10.262-6.574,13.317-12.888,12.776h-.056a5.458,5.458,0,0,1-4.917-5.438v-7.319h17.861Z" transform="translate(-2375.781 -796.1)" fill="#66b0f0"/>
          </g>
          <path id="HEAD_4_" d="M2379.667,730.346v.689a2.75,2.75,0,0,1-2.757,2.756H2375.5l.019.317a7.949,7.949,0,0,1-7.953,7.953h-1.956a7.948,7.948,0,0,1-7.952-7.953l.019-.317h-1.416a2.75,2.75,0,0,1-2.756-2.756v-.689a2.75,2.75,0,0,1,2.756-2.756h1.807l.2-3.371a4.885,4.885,0,0,1,.224-1.49c5.326,1.322,11.566-2.1,13.242-3.129a4.921,4.921,0,0,1,3.185,4.6l.2,3.371h1.807A2.774,2.774,0,0,1,2379.667,730.346Z" transform="translate(-2353.5 -713.007)" fill="#fff"/>
          <path id="HAIR_2_" d="M2386.748,698.783h-1.937l-.2-3.371a4.921,4.921,0,0,0-3.185-4.6c-1.676,1.006-7.915,4.433-13.242,3.129a4.891,4.891,0,0,0-.223,1.49l-.2,3.371h-1.211s-2.477-11.994-.037-14.192c1.807-1.62,18.345,1.918,20.17,4.433C2387.7,690.476,2386.748,698.783,2386.748,698.783Z" transform="translate(-2363.207 -684.199)" fill="#e57281"/>
          <g id="FACE" transform="translate(1.639 12.137)">
            <g id="Group_543" data-name="Group 543" transform="translate(13.615 0.081)">
              <path id="Path_1552" data-name="Path 1552" d="M2439.032,751.439a.267.267,0,0,1-.186-.074h0a5.263,5.263,0,0,0-3.166-1.006.279.279,0,0,1,0-.559,5.7,5.7,0,0,1,3.52,1.136.289.289,0,0,1,.037.391A.234.234,0,0,1,2439.032,751.439Z" transform="translate(-2435.4 -749.8)" fill="#66b0f0"/>
            </g>
            <g id="Group_544" data-name="Group 544" transform="translate(4.731)">
              <path id="Path_1553" data-name="Path 1553" d="M2393.139,756.859a.139.139,0,0,1-.093-.019.276.276,0,0,1-.167-.354,6.064,6.064,0,0,0-.335-4.638,3.328,3.328,0,0,0-1.583-1.788,5.432,5.432,0,0,0-2.887.168.277.277,0,1,1-.186-.522,5.938,5.938,0,0,1,3.241-.168,3.85,3.85,0,0,1,1.9,2.086,6.758,6.758,0,0,1,.354,5.084A.259.259,0,0,1,2393.139,756.859Z" transform="translate(-2387.7 -749.366)" fill="#66b0f0"/>
            </g>
            <g id="Group_545" data-name="Group 545" transform="translate(9.008 8.692)">
              <path id="Path_1554" data-name="Path 1554" d="M2415.5,797.8a.286.286,0,0,1-.261.3h-.019a.283.283,0,0,1-.279-.261,2.506,2.506,0,0,0-.112-.54,4.828,4.828,0,0,1-2.123.521,3.367,3.367,0,0,1-1.918-.521.282.282,0,1,1,.317-.466,3.029,3.029,0,0,0,1.6.428,4.259,4.259,0,0,0,1.881-.466,1.685,1.685,0,0,0-.224-.3.27.27,0,0,1,.019-.391.287.287,0,0,1,.391.019A3.149,3.149,0,0,1,2415.5,797.8Z" transform="translate(-2410.666 -796.037)" fill="#66b0f0"/>
            </g>
            <ellipse id="Ellipse_309" data-name="Ellipse 309" cx="0.466" cy="0.931" rx="0.466" ry="0.931" transform="translate(14.263 3.303) rotate(-3.567)" fill="#66b0f0"/>
            <ellipse id="Ellipse_310" data-name="Ellipse 310" cx="0.428" cy="0.857" rx="0.428" ry="0.857" transform="translate(6.705 3.375) rotate(-3.567)" fill="#66b0f0"/>
            <path id="Path_1555" data-name="Path 1555" d="M2364.33,772.009a.286.286,0,0,1-.28-.279,1.474,1.474,0,0,0-1.471-1.471.279.279,0,0,1,0-.559,2.035,2.035,0,0,1,2.03,2.03A.274.274,0,0,1,2364.33,772.009Z" transform="translate(-2362.3 -765.913)" fill="#66b0f0"/>
            <path id="Path_1556" data-name="Path 1556" d="M2472.579,772.009a.286.286,0,0,1-.279-.279,2.035,2.035,0,0,1,2.03-2.03.279.279,0,1,1,0,.559,1.474,1.474,0,0,0-1.471,1.471A.264.264,0,0,1,2472.579,772.009Z" transform="translate(-2451.813 -765.913)" fill="#66b0f0"/>
          </g>
        </g>
      </g>
    </g>
    <g id="TABLE" transform="translate(643.339 606.379)">
      <path id="Path_1557" data-name="Path 1557" d="M1383.046,1804.907l-79.769-263.761a12.467,12.467,0,0,0-11.938-8.847H807.194a12.465,12.465,0,0,0-11.976,9.014L719.1,1804.907" transform="translate(-719.1 -1443.163)" fill="none" stroke="#66b0f0" stroke-miterlimit="10" stroke-width="2"/>
      <line id="Line_255" data-name="Line 255" x2="211.761" transform="translate(220.719 0)" fill="none" stroke="#66b0f0" stroke-miterlimit="10" stroke-width="2"/>
    </g>
    <g id="BOY" transform="translate(937.551 507.542)">
      <path id="PAPER_1_" d="M2298.8,1268.712h50.025v42.967H2298.8Z" transform="translate(-2298.8 -1129.794)" fill="#ffcf2d"/>
      <g id="BOY_1_" transform="translate(11.567 0)">
        <g id="LEGS_1_" transform="translate(67.667 187.974)">
          <g id="Group_547" data-name="Group 547" transform="translate(44.005)">
            <path id="Path_1558" data-name="Path 1558" d="M3201.562,2087.722,3178.3,2029.8h37.454Z" transform="translate(-3137.736 -1937.143)" fill="#9a3b82"/>
            <path id="Path_1559" data-name="Path 1559" d="M2960.5,1547.646h0a28.826,28.826,0,0,1,25.478-15.347h28.812l19.574,15.347Z" transform="translate(-2960.5 -1532.3)" fill="#9a3b82"/>
          </g>
          <g id="Group_552" data-name="Group 552" transform="translate(0 14.732)">
            <g id="Group_549" data-name="Group 549">
              <path id="Path_1560" data-name="Path 1560" d="M2877.465,1682.512h-72.58l27.322,66.322c-1.9-3.092-13.279.13-25.329,7.524-11.9,7.3-19.947,16.092-18.308,19.3l-58.891-102.472c-15.272-25.851,3.353-58.481,33.375-58.481H2925.7l.354,1.118A51.044,51.044,0,0,1,2877.465,1682.512Z" transform="translate(-2724.227 -1614.085)" fill="#3fb1b5"/>
              <path id="Path_1561" data-name="Path 1561" d="M3431.474,1633.8a50.36,50.36,0,0,1-3.874,17.321l-85.3-36.318h84.667l1.974,5.774C3430.319,1624.038,3431.083,1628.9,3431.474,1633.8Z" transform="translate(-3227.187 -1614.167)" fill="#e6e6e6"/>
              <path id="Path_1562" data-name="Path 1562" d="M3112.475,2329.922c1.9,3.092-6.407,11.529-18.438,18.923-12.05,7.394-23.243,11.1-25.143,8.009s6.2-11.826,18.252-19.22C3099.177,2330.239,3110.557,2326.83,3112.475,2329.922Z" transform="translate(-3004.477 -2195.174)" fill="#66b0f0"/>
              <g id="Group_548" data-name="Group 548" transform="translate(26.868)">
                <path id="Path_1563" data-name="Path 1563" d="M2922.891,1779.611l-52.968-93.644a11.131,11.131,0,0,1,9.7-16.576h103.162a21.876,21.876,0,0,0,21.4-26.391" transform="translate(-2868.486 -1637.115)" fill="none" stroke="#fff" stroke-linecap="round" stroke-miterlimit="10" stroke-width="2"/>
                <path id="Path_1564" data-name="Path 1564" d="M3065.609,2355.331c-1.9-3.092,6.314-12.925,18.867-20.245,14.1-8.213,23.225-10.653,25.944-6.295" transform="translate(-3028.674 -2193.447)" fill="none" stroke="#fff" stroke-linecap="round" stroke-miterlimit="10" stroke-width="2"/>
                <line id="Line_256" data-name="Line 256" x1="34.604" y1="82.507" transform="translate(47.551 53.248)" fill="none" stroke="#fff" stroke-linecap="round" stroke-miterlimit="10" stroke-width="2"/>
                <line id="Line_257" data-name="Line 257" x2="84.425" transform="translate(9.929)" fill="none" stroke="#fff" stroke-miterlimit="10" stroke-width="2"/>
              </g>
            </g>
            <g id="Group_550" data-name="Group 550" transform="translate(72.593 133.855)">
              <path id="Path_1565" data-name="Path 1565" d="M3125.957,2362.19l-5.029-6.854-6.928-9.424a84.252,84.252,0,0,1,10.057-7.208c7.6-4.656,14.918-7.748,19.779-8.6l3.371,6.723,4.209,8.381C3148.437,2355.8,3125.957,2362.19,3125.957,2362.19Z" transform="translate(-3114 -2330.1)" fill="#e57281"/>
              <path id="Path_1566" data-name="Path 1566" d="M3147.307,2336.823c-3.129,3.818-9.014,8.642-16.259,13.093a98.707,98.707,0,0,1-10.02,5.419l-6.928-9.424a84.164,84.164,0,0,1,10.057-7.208c7.6-4.656,14.918-7.748,19.779-8.6Z" transform="translate(-3114.081 -2330.1)" fill="#9a3b82"/>
            </g>
            <g id="Group_551" data-name="Group 551" transform="translate(71.656 148.94)">
              <path id="Path_1567" data-name="Path 1567" d="M3170.341,2448.051l-51.106,36.709c-4.34,3.017-11.082,5.531-10.187-5.383,1.248-15.049,4.582-37.435,12.814-51.292h0c.354-.093,22.48-6.481,25.46-16.986l23.3,16.557A12.779,12.779,0,0,1,3170.341,2448.051Z" transform="translate(-3108.967 -2411.1)" fill="#fff" stroke="#ffcf2d" stroke-miterlimit="10" stroke-width="2"/>
              <path id="Path_1568" data-name="Path 1568" d="M3165.5,2441.979c4.06.764,26.856-7.319,30.4-19.779" transform="translate(-3154.971 -2420.133)" fill="none" stroke="#ffcf2d" stroke-linecap="round" stroke-miterlimit="10" stroke-width="2"/>
              <path id="Path_1569" data-name="Path 1569" d="M3123.547,2594.767s33.357-46.338,57.084-43.73C3206.463,2553.849,3102.427,2621.791,3123.547,2594.767Z" transform="translate(-3118.512 -2524.888)" fill="#ffcf2d"/>
              <path id="Path_1570" data-name="Path 1570" d="M3116.017,2588.038c-2.589.167-5.327-2.85-1.546-7.692,0,0,34.716-48.051,59.431-45.332,3.818.41,5.1,3.52,4.209,6.2" transform="translate(-3111.932 -2511.845)" fill="none" stroke="#ffcf2d" stroke-linecap="round" stroke-miterlimit="10" stroke-width="2"/>
            </g>
          </g>
        </g>
        <g id="T-SHIRT" transform="translate(131.153 67.268)">
          <path id="Path_1571" data-name="Path 1571" d="M3206.088,1043.046c-11.808-2.794-41.2-10.15-74.722-17.9a52.37,52.37,0,0,1-35.74-29.036L3065.1,930.069l18.475-29.278a33.141,33.141,0,0,1,26-15.4l18.178-1.117c18.326-1.117,33.04,10.318,38.627,27.806l36.97,108.171C3207.41,1030.381,3206.088,1043.046,3206.088,1043.046Z" transform="translate(-3065.1 -884.196)" fill="#fff" stroke="#fe5244" stroke-miterlimit="10" stroke-width="2"/>
          <path id="Path_1572" data-name="Path 1572" d="M3151.4,1150.4s9.722,15.272,31.866,18.643" transform="translate(-3135.327 -1100.821)" fill="none" stroke="#fe5244" stroke-miterlimit="10" stroke-width="2"/>
          <g id="Group_553" data-name="Group 553" transform="translate(22.412 6.774)">
            <path id="Path_1573" data-name="Path 1573" d="M3206.143,998.325h0a2.07,2.07,0,0,0-3.39.54h0a2.064,2.064,0,0,0,2.179,2.905h0A2.058,2.058,0,0,0,3206.143,998.325Z" transform="translate(-3199.37 -983.307)" fill="#ffcf2d" stroke="#fe5244" stroke-linejoin="round" stroke-miterlimit="10" stroke-width="2"/>
            <path id="Path_1574" data-name="Path 1574" d="M3455.243,1169.225h0a2.07,2.07,0,0,0-3.39.54h0a2.064,2.064,0,0,0,2.179,2.905h0A2.058,2.058,0,0,0,3455.243,1169.225Z" transform="translate(-3402.076 -1122.378)" fill="#ffcf2d" stroke="#fe5244" stroke-linejoin="round" stroke-miterlimit="10" stroke-width="2"/>
            <path id="Path_1575" data-name="Path 1575" d="M3534.143,1239.225h0a2.07,2.07,0,0,0-3.39.54h0a2.064,2.064,0,0,0,2.179,2.906h0A2.065,2.065,0,0,0,3534.143,1239.225Z" transform="translate(-3466.282 -1179.34)" fill="#ffcf2d" stroke="#fe5244" stroke-linejoin="round" stroke-miterlimit="10" stroke-width="2"/>
            <path id="Path_1576" data-name="Path 1576" d="M3685.443,1635.325h0a2.07,2.07,0,0,0-3.39.54h0a2.064,2.064,0,0,0,2.179,2.905h0A2.067,2.067,0,0,0,3685.443,1635.325Z" transform="translate(-3589.403 -1501.669)" fill="#ffcf2d" stroke="#fe5244" stroke-linejoin="round" stroke-miterlimit="10" stroke-width="2"/>
            <path id="Path_1577" data-name="Path 1577" d="M3600.743,1446.025h0a2.07,2.07,0,0,0-3.39.54h0a2.064,2.064,0,0,0,2.179,2.905h0A2.058,2.058,0,0,0,3600.743,1446.025Z" transform="translate(-3520.478 -1347.625)" fill="#ffcf2d" stroke="#fe5244" stroke-linejoin="round" stroke-miterlimit="10" stroke-width="2"/>
            <path id="Path_1578" data-name="Path 1578" d="M3643.638,1312.614h0a2.07,2.07,0,0,0-1.527,3.073h0a2.059,2.059,0,0,0,3.632-.093h0A2.057,2.057,0,0,0,3643.638,1312.614Z" transform="translate(-3556.835 -1239.58)" fill="#ffcf2d" stroke="#fe5244" stroke-linejoin="round" stroke-miterlimit="10" stroke-width="2"/>
            <path id="Path_1579" data-name="Path 1579" d="M3707.537,1514.613h0a2.07,2.07,0,0,0-1.527,3.073h0a2.059,2.059,0,0,0,3.632-.093h0A2.052,2.052,0,0,0,3707.537,1514.613Z" transform="translate(-3608.834 -1403.959)" fill="#ffcf2d" stroke="#fe5244" stroke-linejoin="round" stroke-miterlimit="10" stroke-width="2"/>
            <path id="Path_1580" data-name="Path 1580" d="M3434.743,1293.925h0a2.07,2.07,0,0,0-3.39.54h0a2.064,2.064,0,0,0,2.179,2.905h0A2.067,2.067,0,0,0,3434.743,1293.925Z" transform="translate(-3385.395 -1223.853)" fill="#ffcf2d" stroke="#fe5244" stroke-linejoin="round" stroke-miterlimit="10" stroke-width="2"/>
            <path id="Path_1581" data-name="Path 1581" d="M3379.643,1407.225h0a2.07,2.07,0,0,0-3.39.54h0a2.064,2.064,0,0,0,2.179,2.905h0A2.058,2.058,0,0,0,3379.643,1407.225Z" transform="translate(-3340.557 -1316.051)" fill="#ffcf2d" stroke="#fe5244" stroke-linejoin="round" stroke-miterlimit="10" stroke-width="2"/>
            <path id="Path_1582" data-name="Path 1582" d="M3281.542,1354.843h0a2.07,2.07,0,0,0-.54-3.39h0a2.064,2.064,0,0,0-2.906,2.179h0A2.067,2.067,0,0,0,3281.542,1354.843Z" transform="translate(-3260.82 -1271.045)" fill="#ffcf2d" stroke="#fe5244" stroke-linejoin="round" stroke-miterlimit="10" stroke-width="2"/>
            <path id="Path_1583" data-name="Path 1583" d="M3369.042,1549.843h0a2.07,2.07,0,0,0-.54-3.39h0a2.064,2.064,0,0,0-2.906,2.179h0A2.058,2.058,0,0,0,3369.042,1549.843Z" transform="translate(-3332.023 -1429.727)" fill="#ffcf2d" stroke="#fe5244" stroke-linejoin="round" stroke-miterlimit="10" stroke-width="2"/>
            <path id="Path_1584" data-name="Path 1584" d="M3516.342,1382.543h0a2.07,2.07,0,0,0-.54-3.39h0a2.064,2.064,0,0,0-2.905,2.179h0A2.064,2.064,0,0,0,3516.342,1382.543Z" transform="translate(-3451.889 -1293.586)" fill="#ffcf2d" stroke="#fe5244" stroke-linejoin="round" stroke-miterlimit="10" stroke-width="2"/>
            <path id="Path_1585" data-name="Path 1585" d="M3566.642,1591.943h0a2.07,2.07,0,0,0-.54-3.39h0a2.064,2.064,0,0,0-2.906,2.179h0A2.054,2.054,0,0,0,3566.642,1591.943Z" transform="translate(-3492.821 -1463.986)" fill="#ffcf2d" stroke="#fe5244" stroke-linejoin="round" stroke-miterlimit="10" stroke-width="2"/>
            <path id="Path_1586" data-name="Path 1586" d="M3264.543,1180.625h0a2.07,2.07,0,0,0-3.39.54h0a2.064,2.064,0,0,0,2.179,2.905h0A2.058,2.058,0,0,0,3264.543,1180.625Z" transform="translate(-3246.894 -1131.654)" fill="#ffcf2d" stroke="#fe5244" stroke-linejoin="round" stroke-miterlimit="10" stroke-width="2"/>
            <path id="Path_1587" data-name="Path 1587" d="M3282.443,921.225h0a2.07,2.07,0,0,0-3.39.54h0a2.064,2.064,0,0,0,2.179,2.905h0A2.058,2.058,0,0,0,3282.443,921.225Z" transform="translate(-3261.46 -920.567)" fill="#ffcf2d" stroke="#fe5244" stroke-linejoin="round" stroke-miterlimit="10" stroke-width="2"/>
            <path id="Path_1588" data-name="Path 1588" d="M3455.243,921.225h0a2.07,2.07,0,0,0-3.39.54h0a2.064,2.064,0,0,0,2.179,2.905h0A2.058,2.058,0,0,0,3455.243,921.225Z" transform="translate(-3402.076 -920.567)" fill="#ffcf2d" stroke="#fe5244" stroke-linejoin="round" stroke-miterlimit="10" stroke-width="2"/>
            <path id="Path_1589" data-name="Path 1589" d="M3465.5,1035.448h0a2.065,2.065,0,0,0-.726,3.352h0a2.068,2.068,0,0,0,3.5-.968h0A2.067,2.067,0,0,0,3465.5,1035.448Z" transform="translate(-3412.273 -1013.93)" fill="#ffcf2d" stroke="#fe5244" stroke-linejoin="round" stroke-miterlimit="10" stroke-width="2"/>
            <path id="Path_1590" data-name="Path 1590" d="M3366.454,971.929h0a2.069,2.069,0,0,0-1.062,3.259h0a2.065,2.065,0,0,0,3.576-.615h0A2.057,2.057,0,0,0,3366.454,971.929Z" transform="translate(-3331.521 -962.294)" fill="#ffcf2d" stroke="#fe5244" stroke-linejoin="round" stroke-miterlimit="10" stroke-width="2"/>
            <path id="Path_1591" data-name="Path 1591" d="M3350.535,1249.24h0a2.07,2.07,0,0,0-1.564,3.054h0a2.064,2.064,0,0,0,3.631-.037h0A2.065,2.065,0,0,0,3350.535,1249.24Z" transform="translate(-3318.303 -1188.015)" fill="#ffcf2d" stroke="#fe5244" stroke-linejoin="round" stroke-miterlimit="10" stroke-width="2"/>
            <path id="Path_1592" data-name="Path 1592" d="M3264.835,1457.54h0a2.07,2.07,0,0,0-1.564,3.054h0a2.064,2.064,0,0,0,3.632-.037h0A2.065,2.065,0,0,0,3264.835,1457.54Z" transform="translate(-3248.564 -1357.52)" fill="#ffcf2d" stroke="#fe5244" stroke-linejoin="round" stroke-miterlimit="10" stroke-width="2"/>
            <path id="Path_1593" data-name="Path 1593" d="M3295.054,1054.555h0a2.069,2.069,0,0,0-1.062,3.259h0a2.066,2.066,0,0,0,3.576-.615h0A2.062,2.062,0,0,0,3295.054,1054.555Z" transform="translate(-3273.419 -1029.536)" fill="#ffcf2d" stroke="#fe5244" stroke-linejoin="round" stroke-miterlimit="10" stroke-width="2"/>
            <path id="Path_1594" data-name="Path 1594" d="M3377.854,1110.529h0a2.069,2.069,0,0,0-1.061,3.259h0a2.065,2.065,0,0,0,3.576-.615h0A2.053,2.053,0,0,0,3377.854,1110.529Z" transform="translate(-3340.797 -1075.08)" fill="#ffcf2d" stroke="#fe5244" stroke-linejoin="round" stroke-miterlimit="10" stroke-width="2"/>
            <path id="Path_1595" data-name="Path 1595" d="M3189.1,1093.764h0a2.053,2.053,0,0,0-.987-3.278h0a2.057,2.057,0,0,0-2.589,2.533h0A2.061,2.061,0,0,0,3189.1,1093.764Z" transform="translate(-3185.435 -1058.762)" fill="#ffcf2d" stroke="#fe5244" stroke-linejoin="round" stroke-miterlimit="10" stroke-width="2"/>
            <path id="Path_1596" data-name="Path 1596" d="M3568.2,1094.064h0a2.053,2.053,0,0,0-.987-3.278h0a2.057,2.057,0,0,0-2.589,2.533h0A2.06,2.06,0,0,0,3568.2,1094.064Z" transform="translate(-3493.929 -1059.006)" fill="#ffcf2d" stroke="#fe5244" stroke-linejoin="round" stroke-miterlimit="10" stroke-width="2"/>
            <path id="Path_1597" data-name="Path 1597" d="M3472,1499.464h0a2.053,2.053,0,0,0-.987-3.278h0a2.057,2.057,0,0,0-2.589,2.533h0A2.072,2.072,0,0,0,3472,1499.464Z" transform="translate(-3415.646 -1388.903)" fill="#ffcf2d" stroke="#fe5244" stroke-linejoin="round" stroke-miterlimit="10" stroke-width="2"/>
          </g>
        </g>
        <g id="HEAD_2_" transform="translate(140.204)">
          <g id="NECK_1_" transform="translate(16.744 36.501)">
            <path id="Path_1598" data-name="Path 1598" d="M3241.706,749.309l-1.248.056-18.177,1.117a32.919,32.919,0,0,0-13.093,3.595l-5.587-16.725,24.9-18.252Z" transform="translate(-3203.6 -719.081)" fill="#e57281"/>
            <path id="Path_1599" data-name="Path 1599" d="M3209.113,753.735h0a23.459,23.459,0,0,0,11.659-11.7l9.052-20.021L3228.5,719l-24.9,18.252Z" transform="translate(-3203.6 -719)" fill="#9a3b82"/>
          </g>
          <g id="HEAD_3_" transform="translate(0.83 15.592)">
            <path id="Path_1600" data-name="Path 1600" d="M3160.572,629.34a6.3,6.3,0,0,1-6.276,6.276h-5.476a17.123,17.123,0,0,1-19.519,12.572l-4.116-.726a8.5,8.5,0,0,1-6.947-9.536l4.824-24.156a8.364,8.364,0,0,1,11.082-6.537l7.99,3.2a10.707,10.707,0,0,1,7.226,10.113v2.328l4.936.186A6.279,6.279,0,0,1,3160.572,629.34Z" transform="translate(-3118.156 -606.737)" fill="#e57281"/>
            <g id="Group_554" data-name="Group 554" transform="translate(7.588 12.118)">
              <path id="Path_1601" data-name="Path 1601" d="M3296.1,715.64a4.332,4.332,0,0,1,4.339-4.339" transform="translate(-3270.547 -703.943)" fill="none" stroke="#9a3b82" stroke-linecap="round" stroke-miterlimit="10" stroke-width="2"/>
              <path id="Path_1602" data-name="Path 1602" d="M3158.9,671.8a9.021,9.021,0,0,1,6.7,3.744" transform="translate(-3158.9 -671.8)" fill="none" stroke="#9a3b82" stroke-linecap="round" stroke-miterlimit="10" stroke-width="2"/>
              <ellipse id="Ellipse_311" data-name="Ellipse 311" cx="1.993" cy="0.931" rx="1.993" ry="0.931" transform="matrix(0.179, -0.984, 0.984, 0.179, 0.411, 8.598)" fill="#9a3b82"/>
            </g>
          </g>
          <g id="HAIR_1_">
            <path id="Path_1603" data-name="Path 1603" d="M3150.669,554.937a6.279,6.279,0,0,1,6.277,6.276v.093c2.794-4.3,9.647-15.254,9.647-18.96,0-4.973-6.2-9.945-12.627-7.673q.643-.475,1.341-1.006c2.477-1.937,3.781-3.39,3.986-4.433a1.217,1.217,0,0,0-.167-.969,2.518,2.518,0,0,0-2.44-1.378c-1.285.2-2.607,1.788-3.93,4.693a35.46,35.46,0,0,0-1.323,3.427c-.521-3.11-3.036-13.41-13.838-11.827-3.725.54-5.476,2.086-5.96,3.781-3.092-2.421-7.226-4.321-10.653-2.514-5.922,3.11-5.2,8.213-1.769,11.827-3.24-.056-5.513.894-5.513,3.632,0,2.514,2.589,3.725,6.146,4.209a52.708,52.708,0,0,0,12.069-.223c2.812-.317,5.345-.708,6.966-.987a11.715,11.715,0,0,0-1.416,5.718c.168,3.315,2.57,5.271,5.96,5.96a15.068,15.068,0,0,0,2.31.279Zm6.128-27.3a.575.575,0,0,1,.186-.019c.521,0,1.024.372,1.527,1.08a.555.555,0,0,1,.056.391c-.3,1.509-4.116,4.377-6.332,5.885C3153.109,532.4,3154.953,527.95,3156.8,527.633Z" transform="translate(-3113.699 -523.018)" fill="#ffcf2d"/>
            <g id="Group_555" data-name="Group 555" transform="translate(17.411 3.528)">
              <path id="Path_1604" data-name="Path 1604" d="M3211.88,548.562a4.608,4.608,0,0,1-3.539-1.9,4.868,4.868,0,0,1-.969-4.433.373.373,0,0,1,.428-.261.28.28,0,0,1,.205.075c2.812,2.011,5.066,4.88,4.731,6.016a.66.66,0,0,1-.633.5Zm-3.911-5.625a4.266,4.266,0,0,0,.95,3.259,3.787,3.787,0,0,0,3.11,1.6C3212.067,547.314,3210.819,545.1,3207.969,542.937Z" transform="translate(-3207.184 -541.962)" fill="#fff"/>
            </g>
          </g>
        </g>
        <g id="HANDS" transform="translate(0 34.651)">
          <g id="LEFT_1_" transform="translate(0 86.964)">
            <path id="Path_1605" data-name="Path 1605" d="M2497.9,1303.834H2378.7a3.725,3.725,0,0,1-3.147-5.718l15.868-24.92a11.212,11.212,0,0,1,9.461-5.2h80.682Z" transform="translate(-2372.354 -1250.865)" fill="#e57281"/>
            <path id="Path_1606" data-name="Path 1606" d="M2528.2,1193.153l9.5-15.645a3.126,3.126,0,0,1,2.663-1.509h0a3.121,3.121,0,0,1,2.663,4.749l-7.543,12.4Z" transform="translate(-2497.042 -1176)" fill="#fe5244"/>
            <path id="Path_1607" data-name="Path 1607" d="M2885.366,1303.834h-26.8l-.186-.186a25.325,25.325,0,0,1-5.625-26.67l3.818-8.977h12.46Z" transform="translate(-2759.819 -1250.865)" fill="#9a3b82"/>
            <path id="Path_1608" data-name="Path 1608" d="M2400.938,1370.6H2386a2.816,2.816,0,0,0-2.44,1.415l-1.583,2.756a2.8,2.8,0,0,0,2.44,4.19h12.013a6.007,6.007,0,0,0,5.122-2.868l1.285-2.1A2.233,2.233,0,0,0,2400.938,1370.6Z" transform="translate(-2377.752 -1334.357)" fill="#e57281"/>
            <path id="Path_1609" data-name="Path 1609" d="M2380.238,1415.5H2365.3a2.817,2.817,0,0,0-2.44,1.415l-1.583,2.756a2.8,2.8,0,0,0,2.44,4.191h12.013a6.007,6.007,0,0,0,5.122-2.868l1.285-2.1A2.227,2.227,0,0,0,2380.238,1415.5Z" transform="translate(-2360.907 -1370.894)" fill="#e57281"/>
            <path id="Path_1610" data-name="Path 1610" d="M2423.838,1325.1H2408.9a2.817,2.817,0,0,0-2.44,1.415l-1.583,2.756a2.8,2.8,0,0,0,2.44,4.19h12.013a6.008,6.008,0,0,0,5.122-2.868l1.285-2.1A2.227,2.227,0,0,0,2423.838,1325.1Z" transform="translate(-2396.387 -1297.331)" fill="#e57281"/>
            <path id="Path_1611" data-name="Path 1611" d="M2400.938,1370.6H2386a2.816,2.816,0,0,0-2.44,1.415l-1.583,2.756a2.8,2.8,0,0,0,2.44,4.19h12.013a6.007,6.007,0,0,0,5.122-2.868l1.285-2.1A2.233,2.233,0,0,0,2400.938,1370.6Z" transform="translate(-2377.752 -1334.357)" fill="none" stroke="#9a3b82" stroke-linecap="round" stroke-miterlimit="10" stroke-width="2"/>
            <path id="Path_1612" data-name="Path 1612" d="M2380.238,1415.5H2365.3a2.817,2.817,0,0,0-2.44,1.415l-1.583,2.756a2.8,2.8,0,0,0,2.44,4.191h12.013a6.007,6.007,0,0,0,5.122-2.868l1.285-2.1A2.227,2.227,0,0,0,2380.238,1415.5Z" transform="translate(-2360.907 -1370.894)" fill="none" stroke="#9a3b82" stroke-linecap="round" stroke-miterlimit="10" stroke-width="2"/>
            <path id="Path_1613" data-name="Path 1613" d="M2423.838,1325.1H2408.9a2.817,2.817,0,0,0-2.44,1.415l-1.583,2.756a2.8,2.8,0,0,0,2.44,4.19h12.013a6.008,6.008,0,0,0,5.122-2.868l1.285-2.1A2.227,2.227,0,0,0,2423.838,1325.1Z" transform="translate(-2396.387 -1297.331)" fill="none" stroke="#9a3b82" stroke-linecap="round" stroke-miterlimit="10" stroke-width="2"/>
            <path id="Path_1614" data-name="Path 1614" d="M2460.741,1320.146a18.511,18.511,0,0,1-12.2-4.582l-5.662-4.954h-5.215l-1.341,1.434a11.857,11.857,0,0,1-8.884,4.041h-2.5a1.66,1.66,0,0,1-1.4-2.552l6.277-9.834h30.935v16.446Z" transform="translate(-2411.666 -1279.916)" fill="#e57281"/>
            <path id="Path_1615" data-name="Path 1615" d="M2429.823,1303.7l-6.276,9.834a1.66,1.66,0,0,0,1.4,2.552h2.5a11.792,11.792,0,0,0,8.884-4.041l1.341-1.434h5.215l5.662,4.954a18.571,18.571,0,0,0,12.2,4.582" transform="translate(-2411.666 -1279.916)" fill="none" stroke="#9a3b82" stroke-linecap="round" stroke-miterlimit="10" stroke-width="2"/>
          </g>
          <g id="RIGHT_1_" transform="translate(97.462)">
            <path id="Path_1616" data-name="Path 1616" d="M2961.572,814.174l-28.44,31.773a31.523,31.523,0,0,1-23.5,10.5h0a25.393,25.393,0,0,1-23.783-34.306l33.785-79.378-11.417-6.388a5.572,5.572,0,0,1-2.049-5.345l1.937-13.056c.6-2.905,3.557-5.178,6.444-5.848l13.372-3.017a1.638,1.638,0,0,1,1.993,1.844l-1.937,10.076a8.738,8.738,0,0,0,7.468,10h0a8.218,8.218,0,0,1,6.481,8.791l-9.107,56.8A43.4,43.4,0,0,0,2961.572,814.174Z" transform="translate(-2884.207 -709.07)" fill="#e57281"/>
            <line id="Line_258" data-name="Line 258" x1="10.988" y2="71.351" transform="translate(44.567 44.257)" fill="none" stroke="#9a3b82" stroke-linecap="round" stroke-miterlimit="10" stroke-width="2"/>
            <path id="Path_1617" data-name="Path 1617" d="M3059.54,762l-.149,4.619a3.994,3.994,0,0,0,2.719,4.042l17.116,3.464" transform="translate(-3026.762 -752.142)" fill="none" stroke="#9a3b82" stroke-linecap="round" stroke-miterlimit="10" stroke-width="2"/>
            <path id="Path_1618" data-name="Path 1618" d="M3077.855,734.436l-13.689-1.825a8.5,8.5,0,0,1-6.947-9.536l1.77-10.113a1.33,1.33,0,0,0-1.621-1.527l-13.968,3.259" transform="translate(-3013.751 -710.964)" fill="none" stroke="#9a3b82" stroke-linecap="round" stroke-miterlimit="10" stroke-width="2"/>
            <line id="Line_259" data-name="Line 259" y1="41.197" x2="37.026" transform="translate(56.543 87.113)" fill="none" stroke="#fe5244" stroke-miterlimit="10" stroke-width="2"/>
            <line id="Line_260" data-name="Line 260" x2="6.537" transform="translate(35.814 33.716)" fill="none" stroke="#9a3b82" stroke-linecap="round" stroke-miterlimit="10" stroke-width="5"/>
            <path id="Path_1619" data-name="Path 1619" d="M3060.3,729.27v1.49a3.068,3.068,0,0,0,2.868,3.222h2.049a1.7,1.7,0,0,0,1.6-1.807l.131-9.722a2.322,2.322,0,0,0-2.887-2.123" transform="translate(-3027.503 -718.183)" fill="none" stroke="#9a3b82" stroke-linecap="round" stroke-miterlimit="10" stroke-width="2"/>
            <path id="Path_1620" data-name="Path 1620" d="M3096,768.6v1.49a3.068,3.068,0,0,0,2.868,3.222h1.3" transform="translate(-3056.555 -757.513)" fill="none" stroke="#9a3b82" stroke-linecap="round" stroke-miterlimit="10" stroke-width="2"/>
          </g>
        </g>
      </g>
      <g id="CHAIR_1_" transform="translate(156.819 271.691)">
        <line id="Line_261" data-name="Line 261" x2="21.623" y2="179.95" transform="translate(115.342 8.94)" fill="none" stroke="#66b0f0" stroke-miterlimit="10" stroke-width="2"/>
        <line id="Line_262" data-name="Line 262" x1="21.623" y2="179.95" transform="translate(0 8.94)" fill="none" stroke="#66b0f0" stroke-miterlimit="10" stroke-width="2"/>
        <line id="Line_263" data-name="Line 263" x2="122.121" transform="translate(7.413 127.094)" fill="none" stroke="#66b0f0" stroke-miterlimit="10" stroke-width="2"/>
        <path id="Path_1621" data-name="Path 1621" d="M3177.631,1991.3h117.521a2.83,2.83,0,0,0,2.831-2.831v-3.837a2.83,2.83,0,0,0-2.831-2.831H3177.631a2.83,2.83,0,0,0-2.831,2.831v3.837A2.83,2.83,0,0,0,3177.631,1991.3Z" transform="translate(-3168.468 -1981.8)" fill="#fff" stroke="#ffcf2d" stroke-miterlimit="10" stroke-width="2"/>
      </g>
    </g>
    <g id="GIRL" transform="translate(723.578 504)">
      <g id="PAPER" transform="translate(112.041 148.549)">
        <path id="Path_1622" data-name="Path 1622" d="M1823.856,1301.6l-17.991,37.026H1751.5l21.847-37.026Z" transform="translate(-1751.5 -1301.6)" fill="#fff" stroke="#3fb1b5" stroke-miterlimit="10" stroke-width="5"/>
        <path id="Path_1623" data-name="Path 1623" d="M1913.412,1332.559s-2.365-4.041-8.046-3c-4.246.764-9.275,4.265-12.367,2.384s-5.829-4.228-9.834-3.11a24.358,24.358,0,0,0-6.966,3.259" transform="translate(-1852.975 -1323.527)" fill="none" stroke="#3fb1b5" stroke-miterlimit="10" stroke-width="5"/>
        <path id="Path_1624" data-name="Path 1624" d="M1903.412,1363.559s-2.365-4.042-8.046-3c-4.246.764-9.275,4.265-12.367,2.384s-5.829-4.228-9.834-3.11a24.36,24.36,0,0,0-6.966,3.259" transform="translate(-1844.838 -1348.753)" fill="none" stroke="#3fb1b5" stroke-miterlimit="10" stroke-width="5"/>
      </g>
      <g id="GIRL_1_" transform="translate(0 0)">
        <g id="LEGS" transform="translate(65.983 274.675)">
          <g id="LEFT" transform="translate(77.106 31.047)">
            <path id="Path_1625" data-name="Path 1625" d="M1979.959,2154.5c0,4.973-13.8,9-31.084,9s-30.675-4.023-30.675-9,13.391-9,30.675-9S1979.959,2149.542,1979.959,2154.5Z" transform="translate(-1918.2 -2145.5)" fill="#fe5244"/>
            <g id="Group_556" data-name="Group 556" transform="translate(10.448 0)">
              <path id="Path_1626" data-name="Path 1626" d="M2017.658,2148.443V2212.7l-1.956-9.275a21.6,21.6,0,0,0-29.948-15.235c-.093.037-.186.093-.3.13l-7.17-26.149-3.986-14.546a88.689,88.689,0,0,1,20.226-2.123C2003.69,2145.5,2011.94,2146.636,2017.658,2148.443Z" transform="translate(-1974.3 -2145.5)" fill="#a0505a"/>
              <path id="Path_1627" data-name="Path 1627" d="M2017.658,2148.523v12.106c-5.718,1.807-13.969,2.943-23.132,2.943a96.9,96.9,0,0,1-16.241-1.3l-3.986-14.546a88.689,88.689,0,0,1,20.226-2.123C2003.69,2145.581,2011.94,2146.717,2017.658,2148.523Z" transform="translate(-1974.3 -2145.581)" fill="#73325a"/>
            </g>
            <g id="Group_569" data-name="Group 569" transform="translate(6.027 40.825)">
              <g id="Group_558" data-name="Group 558" transform="translate(46.047 1.22)">
                <g id="Group_557" data-name="Group 557">
                  <path id="Path_1628" data-name="Path 1628" d="M2198.154,2394.523a39.067,39.067,0,0,0,9.424,1.471c2.272,0,4.377-.391,5.569-1.583,1.024-1.024,1.267-2.514.726-4.4a4.049,4.049,0,0,0-2.775-3.092c-2.5-.67-5.96,1.192-8.7,3.148,4.265-5.178,8.474-11.752,6.91-16.054a4.093,4.093,0,0,0-3.408-2.738,3.272,3.272,0,0,0-3.129,1.192c-2.682,4.079-4.88,20.822-4.973,21.53Zm5.4-21.53a2.205,2.205,0,0,1,1.863-.8,2.725,2.725,0,0,1,.391.019,3.129,3.129,0,0,1,2.645,2.123c.41,1.136.559,3.222-1.1,6.724-1.564,3.315-4.4,7.208-8.418,11.622C2199.532,2388.433,2201.432,2376.215,2203.555,2372.993Zm8.94,20.766c-1.229,1.229-4.023,1.6-8.1,1.08a44.525,44.525,0,0,1-5.2-1.006,43.281,43.281,0,0,1,4.023-3.185c3.315-2.291,5.96-3.278,7.655-2.812a3.169,3.169,0,0,1,2.123,2.44C2213.445,2391.841,2213.277,2392.977,2212.495,2393.759Z" transform="translate(-2197.8 -2371.252)" fill="#ffcf2d"/>
                </g>
              </g>
              <path id="Path_1629" data-name="Path 1629" d="M1959.155,2371.907l-4.3,4.824a16.882,16.882,0,0,0-1.974,19.779l18.941,32.481a20.657,20.657,0,0,0,17.842,10.244h7.841a8.917,8.917,0,0,0,8.735-10.765l-9.871-46.655a21.571,21.571,0,0,0-21.12-17.116h0A21.487,21.487,0,0,0,1959.155,2371.907Z" transform="translate(-1950.562 -2364.699)" fill="#fff" stroke="#3fb1b5" stroke-miterlimit="10" stroke-width="2"/>
              <path id="Path_1630" data-name="Path 1630" d="M1974.615,2445.94l24.454,47.381a10.287,10.287,0,0,0,4.228,4.4,8.932,8.932,0,0,1-4.991,1.527h-7.841A20.651,20.651,0,0,1,1972.622,2489l-18.941-32.5a17.392,17.392,0,0,1-1.732-4.135c-2.682-9.964,8.66-17.786,17.172-11.938A21.149,21.149,0,0,1,1974.615,2445.94Z" transform="translate(-1951.364 -2424.689)" fill="#3fb1b5"/>
              <g id="Group_568" data-name="Group 568" transform="translate(0.398 20.357)">
                <g id="Group_559" data-name="Group 559" transform="translate(0.335)">
                  <path id="Path_1631" data-name="Path 1631" d="M1977.073,2475.006H1954.5a8.067,8.067,0,0,1,.391-1.006h21.455c.223.3.447.6.671.913Z" transform="translate(-1954.5 -2474)" fill="#fff"/>
                </g>
                <g id="Group_560" data-name="Group 560" transform="translate(0 6.407)">
                  <path id="Path_1632" data-name="Path 1632" d="M1978.923,2509.406h-26a.81.81,0,0,0-.019-.093c-.074-.3-.149-.615-.2-.913h25.72Z" transform="translate(-1952.7 -2508.4)" fill="#fff"/>
                </g>
                <g id="Group_561" data-name="Group 561" transform="translate(2.719 12.814)">
                  <path id="Path_1633" data-name="Path 1633" d="M1994.119,2543.824H1967.9l-.6-1.024h26.3Z" transform="translate(-1967.3 -2542.8)" fill="#fff"/>
                </g>
                <g id="Group_562" data-name="Group 562" transform="translate(6.463 19.239)">
                  <path id="Path_1634" data-name="Path 1634" d="M2013.791,2578.324H1988l-.6-1.024h25.87Z" transform="translate(-1987.4 -2577.3)" fill="#fff"/>
                </g>
                <g id="Group_563" data-name="Group 563" transform="translate(10.206 25.665)">
                  <path id="Path_1635" data-name="Path 1635" d="M2033.463,2612.806H2008.1l-.6-1.006h25.441Z" transform="translate(-2007.5 -2611.8)" fill="#fff"/>
                </g>
                <g id="Group_564" data-name="Group 564" transform="translate(13.95 32.071)">
                  <path id="Path_1636" data-name="Path 1636" d="M2053.134,2647.224H2028.2l-.6-1.024h24.994Z" transform="translate(-2027.6 -2646.2)" fill="#fff"/>
                </g>
                <g id="Group_565" data-name="Group 565" transform="translate(17.693 38.497)">
                  <path id="Path_1637" data-name="Path 1637" d="M2072.806,2681.724H2048.3l-.6-1.024h24.566Z" transform="translate(-2047.7 -2680.7)" fill="#fff"/>
                </g>
                <g id="Group_566" data-name="Group 566" transform="translate(21.474 44.922)">
                  <path id="Path_1638" data-name="Path 1638" d="M2092.622,2716.206h-23.914c-.242-.335-.484-.671-.708-1.006h24.1Z" transform="translate(-2068 -2715.2)" fill="#fff"/>
                </g>
                <g id="Group_567" data-name="Group 567" transform="translate(28.253 51.348)">
                  <path id="Path_1639" data-name="Path 1639" d="M2127.14,2750.706h-20.785a19.391,19.391,0,0,1-1.956-1.006h21.4A11.466,11.466,0,0,0,2127.14,2750.706Z" transform="translate(-2104.4 -2749.7)" fill="#fff"/>
                </g>
              </g>
            </g>
          </g>
          <g id="RIGHT">
            <path id="Path_1640" data-name="Path 1640" d="M1566.778,2017.52c-.168,4.917-14.117,8.9-31.289,8.9s-31.122-3.967-31.289-8.9V1978.8h62.578Z" transform="translate(-1504.2 -1978.8)" fill="#73325a"/>
            <g id="Group_570" data-name="Group 570" transform="translate(15.738 45.146)">
              <path id="Path_1641" data-name="Path 1641" d="M1631.387,2221.2l-.093,4.6-.894,44.9v-1.3a20.881,20.881,0,0,0-20.878-20.878h-1.266a22.019,22.019,0,0,0-15.123,5.979l-2.738-18.513-1.7-11.454a95.94,95.94,0,0,0,15.533,1.192C1615.855,2225.707,1625.968,2223.882,1631.387,2221.2Z" transform="translate(-1588.7 -2221.2)" fill="#a0505a"/>
              <path id="Path_1642" data-name="Path 1642" d="M1631.469,2221.2l-.093,4.6c-6.928,4.917-28.328,10.97-40.881,10.169l-1.695-11.454a98.114,98.114,0,0,0,15.533,1.192C1615.936,2225.707,1626.049,2223.882,1631.469,2221.2Z" transform="translate(-1588.781 -2221.2)" fill="#73325a"/>
            </g>
            <g id="Group_581" data-name="Group 581" transform="translate(13.148 72.468)">
              <path id="Path_1643" data-name="Path 1643" d="M1599.158,2442.454h3.464a16.47,16.47,0,0,0,16.464-16.464v-37.212a20.881,20.881,0,0,0-20.878-20.878h-1.266a22.141,22.141,0,0,0-21.94,25.125l4.377,32.183A19.971,19.971,0,0,0,1599.158,2442.454Z" transform="translate(-1574.797 -2367.9)" fill="#fff" stroke="#3fb1b5" stroke-miterlimit="10" stroke-width="2"/>
              <path id="Path_1644" data-name="Path 1644" d="M1614.156,2484.756a16.432,16.432,0,0,1-11.286,4.488h-3.464A19.938,19.938,0,0,1,1579.645,2472l-4.377-32.183c-.075-.615-.149-1.229-.168-1.825a14.915,14.915,0,0,1,29.464,0l5.755,39.279A12.985,12.985,0,0,0,1614.156,2484.756Z" transform="translate(-1575.044 -2414.691)" fill="#3fb1b5"/>
              <g id="Group_580" data-name="Group 580" transform="translate(0.075 17.321)">
                <g id="Group_571" data-name="Group 571" transform="translate(1.695)">
                  <path id="Path_1645" data-name="Path 1645" d="M1610.318,2461.906H1584.3a9.17,9.17,0,0,1,.633-1.006H1609.7A9.044,9.044,0,0,1,1610.318,2461.906Z" transform="translate(-1584.3 -2460.9)" fill="#fff"/>
                </g>
                <g id="Group_572" data-name="Group 572" transform="translate(0 6.407)">
                  <path id="Path_1646" data-name="Path 1646" d="M1604.85,2496.306h-29.557c-.037-.335-.074-.67-.093-1.006h29.5Z" transform="translate(-1575.2 -2495.3)" fill="#fff"/>
                </g>
                <g id="Group_573" data-name="Group 573" transform="translate(0.819 12.832)">
                  <path id="Path_1647" data-name="Path 1647" d="M1609.381,2530.806h-29.632l-.149-1.006h29.632Z" transform="translate(-1579.6 -2529.8)" fill="#fff"/>
                </g>
                <g id="Group_574" data-name="Group 574" transform="translate(1.695 19.239)">
                  <path id="Path_1648" data-name="Path 1648" d="M1614.137,2565.224h-29.688l-.149-1.024h29.687Z" transform="translate(-1584.3 -2564.2)" fill="#fff"/>
                </g>
                <g id="Group_575" data-name="Group 575" transform="translate(2.57 25.665)">
                  <path id="Path_1649" data-name="Path 1649" d="M1618.911,2599.706h-29.762L1589,2598.7h29.762Z" transform="translate(-1589 -2598.7)" fill="#fff"/>
                </g>
                <g id="Group_576" data-name="Group 576" transform="translate(3.446 32.09)">
                  <path id="Path_1650" data-name="Path 1650" d="M1623.667,2634.206H1593.83l-.13-1.006h29.818Z" transform="translate(-1593.7 -2633.2)" fill="#fff"/>
                </g>
                <g id="Group_577" data-name="Group 577" transform="translate(4.321 38.497)">
                  <path id="Path_1651" data-name="Path 1651" d="M1628.441,2668.625H1598.53l-.13-1.025h29.892Z" transform="translate(-1598.4 -2667.6)" fill="#fff"/>
                </g>
                <g id="Group_578" data-name="Group 578" transform="translate(5.848 44.922)">
                  <path id="Path_1652" data-name="Path 1652" d="M1636.064,2703.106h-29.017q-.251-.5-.447-1.006h29.3l.056.335Z" transform="translate(-1606.6 -2702.1)" fill="#fff"/>
                </g>
                <g id="Group_579" data-name="Group 579" transform="translate(10.132 51.348)">
                  <path id="Path_1653" data-name="Path 1653" d="M1658.114,2737.606H1630.68c-.372-.317-.745-.671-1.08-1.006h27.657A11.06,11.06,0,0,0,1658.114,2737.606Z" transform="translate(-1629.6 -2736.6)" fill="#fff"/>
                </g>
              </g>
            </g>
          </g>
        </g>
        <g id="CLOTHES" transform="translate(0 81.911)">
          <g id="Group_582" data-name="Group 582" transform="translate(29.795 0.428)">
            <path id="Path_1654" data-name="Path 1654" d="M1725.655,975.9v31.364c-1.36-3.557-12.125-3.054-23.97,1.434-10.15,3.855-17.768,9.145-18.885,12.814v-44.14a36.37,36.37,0,0,1,17.805-31.271A30.261,30.261,0,0,1,1725.655,975.9Z" transform="translate(-1613.349 -946.1)" fill="#ffcf2d"/>
            <path id="Path_1655" data-name="Path 1655" d="M1378.531,953.7a36.335,36.335,0,0,0-15.607,29.855v36.411H1309.9l7.319-31.513a40.144,40.144,0,0,1,25.5-28.7Z" transform="translate(-1309.9 -952.285)" fill="#ffcf2d"/>
          </g>
          <g id="Group_585" data-name="Group 585">
            <path id="Path_1656" data-name="Path 1656" d="M1355.587,1101.494v73.1c0-4.973-14.62-9-31.9-9s-31.289,4.023-31.289,9v-35.033a2.989,2.989,0,0,0-2.98-2.98h-95.06a44.415,44.415,0,0,1-43.265-54.458l22.945-98.859a40.138,40.138,0,0,1,32.388-30.507l6.109-1.043a40.143,40.143,0,0,0-25.5,28.7l-7.32,31.513h53.024V975.5a36.357,36.357,0,0,1,15.607-29.855h0l8.381-1.416a30.019,30.019,0,0,1,5.122-.428h.652c.2,0,.41.019.6.019h.112c.149,0,.317.019.466.019h.075c.093,0,.186.019.261.019.168.019.317.019.484.037l.577.056.54.056c.037,0,.074.019.13.019.186.019.391.056.577.074h.037c.2.037.41.056.615.093a36.37,36.37,0,0,0-17.805,31.271v89.491h69.917A36.559,36.559,0,0,1,1355.587,1101.494Z" transform="translate(-1149.92 -943.8)" fill="#fe5244"/>
            <path id="Path_1657" data-name="Path 1657" d="M1379.661,949.3c-9.536,6.63-16.837,18.457-16.837,30.675v36.411H1309.8l7.319-31.513c3.11-13.428,12.013-24.342,24.7-28.905" transform="translate(-1280.023 -948.276)" fill="none" stroke="#fff" stroke-linecap="round" stroke-miterlimit="10" stroke-width="2"/>
            <path id="Path_1658" data-name="Path 1658" d="M1914.9,1810.828a43.9,43.9,0,0,1,10.355-28.328" transform="translate(-1772.426 -1626.296)" fill="none" stroke="#fff" stroke-linecap="round" stroke-miterlimit="10" stroke-width="2"/>
            <g id="Group_583" data-name="Group 583" transform="translate(50.152 145.979)">
              <path id="Path_1659" data-name="Path 1659" d="M1434.062,1762.446a.428.428,0,0,1-.261-.074l-2.458-1.341a.563.563,0,1,1,.54-.987l2.458,1.341a.555.555,0,0,1,.224.764A.587.587,0,0,1,1434.062,1762.446Zm2.458-.633a.537.537,0,0,1-.484-.3.555.555,0,0,1,.224-.764l2.458-1.341a.572.572,0,0,1,.764.224.555.555,0,0,1-.224.764l-2.458,1.341A.782.782,0,0,1,1436.521,1761.813Zm-7.375-2.03a.427.427,0,0,1-.261-.074l-2.458-1.341a.563.563,0,1,1,.54-.987l2.458,1.341a.555.555,0,0,1,.224.764A.587.587,0,0,1,1429.145,1759.783Zm12.274-.652a.537.537,0,0,1-.484-.3.555.555,0,0,1,.223-.764l2.458-1.341a10.182,10.182,0,0,0,1.211-.764.559.559,0,0,1,.671.894,12.593,12.593,0,0,1-1.341.857l-2.458,1.341A.525.525,0,0,1,1441.419,1759.131Zm-17.135-2.1a.6.6,0,0,1-.335-.112,11.421,11.421,0,0,1-2.123-2.011.556.556,0,1,1,.857-.708A10.362,10.362,0,0,0,1424.6,1756a.585.585,0,0,1,.13.782A.485.485,0,0,1,1424.284,1757.027Zm22.89-1.956a.522.522,0,0,1-.354-.13.541.541,0,0,1-.075-.782,10.367,10.367,0,0,0,1.4-2.254.563.563,0,1,1,1.024.465,11.294,11.294,0,0,1-1.546,2.477A.582.582,0,0,1,1447.174,1755.071Zm-26.391-2.309a.549.549,0,0,1-.5-.317,12.223,12.223,0,0,1-.894-2.794.559.559,0,0,1,1.1-.2,10.693,10.693,0,0,0,.8,2.514.566.566,0,0,1-.279.745A.5.5,0,0,1,1420.783,1752.762Zm28.7-2.719h-.093a.566.566,0,0,1-.447-.652,10.293,10.293,0,0,0,.168-1.844v-.838a.559.559,0,0,1,1.118,0v.838a10.751,10.751,0,0,1-.186,2.049A.577.577,0,0,1,1449.483,1750.042Zm-29.725-2.719a.549.549,0,0,1-.559-.559v-2.794a.559.559,0,0,1,1.118,0v2.794A.573.573,0,0,1,1419.759,1747.323Zm29.892-2.849a.549.549,0,0,1-.559-.559v-2.794a.559.559,0,0,1,1.117,0v2.794A.549.549,0,0,1,1449.651,1744.474Zm-29.892-2.738a.549.549,0,0,1-.559-.559v-2.794a.559.559,0,0,1,1.118,0v2.794A.573.573,0,0,1,1419.759,1741.736Zm29.892-2.849a.549.549,0,0,1-.559-.559v-2.794a.559.559,0,1,1,1.117,0v2.794A.549.549,0,0,1,1449.651,1738.886Zm-29.892-2.738a.549.549,0,0,1-.559-.559V1732.8a.559.559,0,0,1,1.118,0v2.794A.573.573,0,0,1,1419.759,1736.149Zm29.892-2.85a.549.549,0,0,1-.559-.559v-2.794a.559.559,0,1,1,1.117,0v2.794A.549.549,0,0,1,1449.651,1733.3Zm-29.892-2.738a.549.549,0,0,1-.559-.559v-2.4h1.509a.559.559,0,0,1,0,1.117h-.391V1730A.573.573,0,0,1,1419.759,1730.561Zm28.887-1.844h-2.794a.559.559,0,1,1,0-1.117h2.794a.559.559,0,1,1,0,1.117Zm-5.587,0h-2.794a.559.559,0,1,1,0-1.117h2.794a.559.559,0,1,1,0,1.117Zm-5.587,0h-2.794a.559.559,0,0,1,0-1.117h2.794a.559.559,0,0,1,0,1.117Zm-5.587,0h-2.794a.559.559,0,0,1,0-1.117h2.794a.559.559,0,0,1,0,1.117Zm-5.587,0H1423.5a.559.559,0,0,1,0-1.117h2.794a.559.559,0,0,1,0,1.117Z" transform="translate(-1419.2 -1727.6)" fill="#fff"/>
            </g>
            <g id="Group_584" data-name="Group 584" transform="translate(1.654 145.979)">
              <path id="Path_1660" data-name="Path 1660" d="M1169.453,1759.355a.537.537,0,0,1-.484-.3.555.555,0,0,1,.223-.764l2.272-1.248c.056-.037.112-.056.167-.093a.559.559,0,1,1,.559.969.583.583,0,0,1-.186.093l-2.272,1.248A.421.421,0,0,1,1169.453,1759.355Zm4.712-2.98a.529.529,0,0,1-.41-.186.557.557,0,0,1,.037-.782,11.9,11.9,0,0,0,1.732-2.011.563.563,0,0,1,.931.633,13.442,13.442,0,0,1-1.9,2.216A.657.657,0,0,1,1174.165,1756.375Zm3.11-4.582a.789.789,0,0,1-.2-.037.564.564,0,0,1-.317-.726,12.435,12.435,0,0,0,.671-2.57.564.564,0,0,1,1.117.149,12.409,12.409,0,0,1-.726,2.831A.606.606,0,0,1,1177.276,1751.793Zm.8-5.476a.549.549,0,0,1-.559-.559v-2.794a.559.559,0,0,1,1.118,0v2.794A.56.56,0,0,1,1178.076,1746.318Zm0-5.587a.549.549,0,0,1-.559-.559v-2.794a.559.559,0,0,1,1.118,0v2.794A.56.56,0,0,1,1178.076,1740.73Zm0-5.587a.549.549,0,0,1-.559-.559v-2.794a.559.559,0,0,1,1.118,0v2.794A.56.56,0,0,1,1178.076,1735.143Zm0-5.587a.549.549,0,0,1-.559-.559v-.279h-1.4a.559.559,0,1,1,0-1.117h2.514v1.4A.56.56,0,0,1,1178.076,1729.555Zm-4.749-.838h-2.794a.559.559,0,1,1,0-1.117h2.794a.549.549,0,0,1,.559.559A.56.56,0,0,1,1173.327,1728.717Zm-5.587,0h-2.794a.559.559,0,1,1,0-1.117h2.794a.549.549,0,0,1,.559.559A.56.56,0,0,1,1167.74,1728.717Zm-5.587,0h-2.794a.559.559,0,1,1,0-1.117h2.794a.549.549,0,0,1,.559.559A.56.56,0,0,1,1162.152,1728.717Z" transform="translate(-1158.8 -1727.6)" fill="#fff"/>
            </g>
          </g>
        </g>
        <g id="HAND" transform="translate(99.102 141.149)">
          <path id="Path_1661" data-name="Path 1661" d="M1725.025,1264.259c1.36,3.557-7.245,9.871-19.072,14.359s-22.424,5.178-23.784,1.6,7.04-10.02,18.885-14.509S1723.665,1260.683,1725.025,1264.259Z" transform="translate(-1682.025 -1261.905)" fill="#fe5244"/>
          <path id="Path_1662" data-name="Path 1662" d="M1895.669,1874.617v1.974a8.2,8.2,0,0,0-1.918-.223h-2.4a8.264,8.264,0,0,1-7.748-5.438l6.817-.913A4.639,4.639,0,0,1,1895.669,1874.617Z" transform="translate(-1846.058 -1756.717)" fill="#73325a"/>
          <path id="Path_1663" data-name="Path 1663" d="M1738.48,1389.809v15.16a6.407,6.407,0,0,1-6.407,6.407h-7.133a6.314,6.314,0,0,1-4.526-1.881,6.39,6.39,0,0,1-1.881-4.526h4.637a2.75,2.75,0,0,0,2.756-2.756v-3.967a2.75,2.75,0,0,0-2.756-2.756h-23.709a16.763,16.763,0,0,1-16.762-16.762V1278.564c1.118-3.669,8.735-8.977,18.885-12.814,6.928-2.626,13.5-3.892,18.028-3.781v111.412a8.235,8.235,0,0,0,8.232,8.232h2.4A8.191,8.191,0,0,1,1738.48,1389.809Z" transform="translate(-1682.574 -1261.945)" fill="#a0505a"/>
          <path id="Path_1664" data-name="Path 1664" d="M1719.614,1261.87V1272a65.181,65.181,0,0,1-13.13,6.556c-11.845,4.488-22.424,5.178-23.784,1.6v-1.695c1.118-3.669,8.735-8.977,18.885-12.814C1708.532,1263.025,1715.088,1261.758,1719.614,1261.87Z" transform="translate(-1682.574 -1261.863)" fill="#73325a"/>
        </g>
        <g id="HEAD_1_" transform="translate(55.831)">
          <g id="NECK" transform="translate(6.241 65.707)">
            <path id="Path_1665" data-name="Path 1665" d="M1526.3,856.8l-7,18.047L1483.2,881.31l9.424-24.51Z" transform="translate(-1483.2 -856.8)" fill="#a0505a"/>
            <path id="Path_1666" data-name="Path 1666" d="M1541.677,856.8l-3.781,9.759-35.8,5.587L1508,856.8Z" transform="translate(-1498.58 -856.8)" fill="#73325a"/>
          </g>
          <g id="HAIR">
            <path id="Path_1667" data-name="Path 1667" d="M1520.188,607.729c0,2.44-4.228,5.14-9.107,7.413a125.219,125.219,0,0,1-14.49,5.476l-5.289,9.964c7.189,3.818,10,10.672,11.119,15.458a25.663,25.663,0,0,1,.708,5.233h-50.7s-13.317-43.134,18.774-53.452C1490.836,591.507,1520.188,601.937,1520.188,607.729Z" transform="translate(-1449.693 -578.749)" fill="#fff" stroke="#ffcf2d" stroke-linecap="round" stroke-miterlimit="10" stroke-width="2"/>
            <circle id="Ellipse_312" data-name="Ellipse 312" cx="12.609" cy="12.609" r="12.609" transform="translate(4.211)" fill="#fff" stroke="#ffcf2d" stroke-linecap="round" stroke-miterlimit="10" stroke-width="2"/>
          </g>
          <g id="HEAD" transform="translate(35.425 36.97)">
            <path id="Path_1668" data-name="Path 1668" d="M1657.184,732.9c-1.043-4.526-3.65-10.97-10.076-14.862h-1.658a5.55,5.55,0,0,1,0-11.1l7.021.149h.186c.13-.037.261-.093.41-.13a60.406,60.406,0,0,0,12.907-4.358l.577,3.445,1.862,11.044A13.768,13.768,0,0,1,1657.184,732.9Z" transform="translate(-1639.9 -702.581)" fill="#a0505a"/>
            <path id="Path_1669" data-name="Path 1669" d="M1721.38,705.945c-6.109,2.477-14.08,1.043-14.08,1.043a62.334,62.334,0,0,0,13.5-4.488Z" transform="translate(-1694.747 -702.5)" fill="#73325a"/>
            <path id="Path_1670" data-name="Path 1670" d="M1676.137,744.637a3.831,3.831,0,0,0-3.837-3.837" transform="translate(-1666.266 -733.667)" fill="none" stroke="#73325a" stroke-linecap="round" stroke-miterlimit="10" stroke-width="5"/>
          </g>
        </g>
      </g>
      <g id="CHAIR" transform="translate(5.49 274.675)">
        <line id="Line_264" data-name="Line 264" x2="21.623" y2="179.95" transform="translate(115.36 9.499)" fill="none" stroke="#66b0f0" stroke-miterlimit="10" stroke-width="2"/>
        <line id="Line_265" data-name="Line 265" x1="21.604" y2="179.95" transform="translate(0.019 9.499)" fill="none" stroke="#66b0f0" stroke-miterlimit="10" stroke-width="2"/>
        <line id="Line_266" data-name="Line 266" x2="122.121" transform="translate(7.431 127.653)" fill="none" stroke="#66b0f0" stroke-miterlimit="10" stroke-width="2"/>
        <path id="Path_1671" data-name="Path 1671" d="M1182.231,1988.3h131.322a2.83,2.83,0,0,0,2.831-2.831v-3.837a2.83,2.83,0,0,0-2.831-2.831H1182.231a2.83,2.83,0,0,0-2.831,2.831v3.837A2.854,2.854,0,0,0,1182.231,1988.3Z" transform="translate(-1179.4 -1978.8)" fill="#fff" stroke="#ffcf2d" stroke-miterlimit="10" stroke-width="2"/>
      </g>
    </g>
  </g>
</svg>
