<svg xmlns="http://www.w3.org/2000/svg" width="459.459" height="357.785" viewBox="0 0 459.459 357.785">
  <g id="_6_SCENE" data-name="6 SCENE" transform="translate(-757.809 -324)">
    <g id="LAMP" transform="translate(800.685 324)">
      <path id="Path_1672" data-name="Path 1672" d="M1410.777,1010.811H1092.1L1222.326,701.6h58.226Z" transform="translate(-1092.1 -654.318)" fill="#d0f0e4"/>
      <path id="Path_1673" data-name="Path 1673" d="M2320.5,477.222l5.522-5.522,5.522,5.522" transform="translate(-2166.683 -453.205)" fill="none" stroke="#ffcf2d" stroke-miterlimit="10" stroke-width="2"/>
      <line id="Line_267" data-name="Line 267" y1="18.495" transform="translate(159.339 0)" fill="none" stroke="#ffcf2d" stroke-miterlimit="10" stroke-width="2"/>
      <circle id="Ellipse_313" data-name="Ellipse 313" cx="8.89" cy="8.89" r="8.89" transform="translate(150.448 39.143)" fill="#ffcf2d" stroke="#fff" stroke-miterlimit="10" stroke-width="2"/>
      <path id="Path_1674" data-name="Path 1674" d="M2190.414,536.179H2132.2l.776-3.544c2.555-11.67,14.463-20.135,28.337-20.135a31.841,31.841,0,0,1,18.407,5.685,24.167,24.167,0,0,1,9.917,14.437Z" transform="translate(-2001.962 -488.897)" fill="none" stroke="#9a3b82" stroke-linecap="round" stroke-miterlimit="10" stroke-width="2"/>
    </g>
    <g id="BOOKSHELF" transform="translate(1033.113 408.835)">
      <g id="Group_586" data-name="Group 586" transform="translate(0 155.62)">
        <rect id="Rectangle_170" data-name="Rectangle 170" width="5.91" height="37.315" transform="translate(10.719 6.248)" fill="#66b0f0"/>
        <path id="Path_1675" data-name="Path 1675" d="M3689.039,2287.863h-33.646a2.007,2.007,0,0,1-2-2.253l4.683-39.531a2.027,2.027,0,0,1,2-1.778h33.646a2.008,2.008,0,0,1,2,2.254l-4.683,39.531A2.027,2.027,0,0,1,3689.039,2287.863Z" transform="translate(-3565.086 -2244.3)" fill="#9a3b82"/>
        <path id="Path_1676" data-name="Path 1676" d="M3587.146,2353.034h-26.571a2.729,2.729,0,0,1-2.7-3.043l3.406-28.787a2.733,2.733,0,0,1,2.7-2.4h27.21Z" transform="translate(-3481.525 -2309.471)" fill="#fff" stroke="#ffcf2d" stroke-miterlimit="10" stroke-width="2"/>
        <path id="Path_1677" data-name="Path 1677" d="M3619.431,2353.034h-25.356a2.729,2.729,0,0,1-2.7-3.043l3.406-28.787a2.733,2.733,0,0,1,2.705-2.4h25.682a1.363,1.363,0,0,1,1.352,1.528l-3.731,31.492A1.357,1.357,0,0,1,3619.431,2353.034Z" transform="translate(-3510.831 -2309.471)" fill="#fff" stroke="#ffcf2d" stroke-miterlimit="10" stroke-width="2"/>
        <rect id="Rectangle_171" data-name="Rectangle 171" width="10.255" height="31.705" transform="translate(17.004 11.858)" fill="none" stroke="#9a3b82" stroke-linecap="round" stroke-miterlimit="10" stroke-width="2"/>
        <rect id="Rectangle_172" data-name="Rectangle 172" width="14.438" height="31.705" transform="translate(23.691 11.858)" fill="none" stroke="#9a3b82" stroke-linecap="round" stroke-miterlimit="10" stroke-width="2"/>
        <path id="Path_1678" data-name="Path 1678" d="M3260.758,2346.386h-3.995L3241.9,2311.2h3.994Z" transform="translate(-3205.136 -2302.823)" fill="none" stroke="#9a3b82" stroke-linecap="round" stroke-miterlimit="10" stroke-width="2"/>
        <path id="Path_1679" data-name="Path 1679" d="M3311.935,2383.739H3304.5l-12.8-29.839h7.438Z" transform="translate(-3248.7 -2340.176)" fill="none" stroke="#9a3b82" stroke-linecap="round" stroke-miterlimit="10" stroke-width="2"/>
        <rect id="Rectangle_173" data-name="Rectangle 173" width="10.343" height="31.705" transform="translate(0 11.858)" fill="none" stroke="#9a3b82" stroke-linecap="round" stroke-miterlimit="10" stroke-width="2"/>
      </g>
      <g id="Group_589" data-name="Group 589" transform="translate(0 108.4)">
        <g id="Group_587" data-name="Group 587" transform="translate(0 17.455)">
          <rect id="Rectangle_174" data-name="Rectangle 174" width="48.108" height="6.186" transform="translate(0 17.318)" fill="none" stroke="#9a3b82" stroke-linecap="round" stroke-miterlimit="10" stroke-width="2"/>
          <rect id="Rectangle_175" data-name="Rectangle 175" width="60.943" height="4.984" transform="translate(0 12.584)" fill="#fe5244"/>
          <rect id="Rectangle_176" data-name="Rectangle 176" width="41.134" height="7.062" transform="translate(0 5.397)" fill="#ffcf2d"/>
          <rect id="Rectangle_177" data-name="Rectangle 177" width="48.108" height="5.272" fill="none" stroke="#9a3b82" stroke-linecap="round" stroke-miterlimit="10" stroke-width="2"/>
        </g>
        <g id="Group_588" data-name="Group 588" transform="translate(72.651)">
          <path id="Path_1680" data-name="Path 1680" d="M3586.964,1870.756l-.038.213-5.685,37.189H3528.5l5.685-37.19.075-.526c.9-1.828,6.411-3.243,13.085-3.243,7.3,0,13.21,1.691,13.21,3.769,0-2.078,5.91-3.769,13.21-3.769C3580.816,1867.212,3586.563,1868.777,3586.964,1870.756Z" transform="translate(-3528.5 -1867.2)" fill="#fff" stroke="#ffcf2d" stroke-miterlimit="10" stroke-width="2"/>
          <line id="Line_268" data-name="Line 268" y1="37.189" x2="5.635" transform="translate(26.433 3.782)" fill="none" stroke="#ffcf2d" stroke-miterlimit="10" stroke-width="2"/>
          <path id="Path_1681" data-name="Path 1681" d="M3555.021,2168.068c0-2.078-5.91-3.769-13.21-3.769s-13.21,1.69-13.21,3.769Z" transform="translate(-3528.587 -2127.098)" fill="#ffcf2d"/>
          <path id="Path_1682" data-name="Path 1682" d="M3766.021,2168.068c0-2.078-5.91-3.769-13.21-3.769s-13.21,1.69-13.21,3.769Z" transform="translate(-3713.167 -2127.098)" fill="#ffcf2d"/>
          <path id="Path_1683" data-name="Path 1683" d="M3741.195,1920.766c-.075-2.079,5.773-3.969,13.073-4.232a32.737,32.737,0,0,1,11.419,1.39l5.635-35.424" transform="translate(-3714.561 -1880.584)" fill="none" stroke="#ffcf2d" stroke-linecap="round" stroke-miterlimit="10" stroke-width="2"/>
        </g>
      </g>
      <g id="Group_590" data-name="Group 590" transform="translate(0.163 60.868)">
        <path id="Path_1684" data-name="Path 1684" d="M3630.957,1709.722H3583.6v-10.543a1.876,1.876,0,0,1,1.878-1.878h43.613a1.876,1.876,0,0,1,1.878,1.878v10.543Z" transform="translate(-3504.212 -1671.042)" fill="#fff" stroke="#9a3b82" stroke-linecap="round" stroke-miterlimit="10" stroke-width="2"/>
        <path id="Path_1685" data-name="Path 1685" d="M3698.948,1648.074h-40.809a1.136,1.136,0,0,1-1.14-1.139v-4.195a1.136,1.136,0,0,1,1.14-1.139h40.809a1.135,1.135,0,0,1,1.139,1.139v4.195A1.143,1.143,0,0,1,3698.948,1648.074Z" transform="translate(-3568.421 -1622.317)" fill="#ffcf2d"/>
        <rect id="Rectangle_178" data-name="Rectangle 178" width="48.409" height="3.932" transform="translate(83.708 15.352)" fill="#fe5244"/>
        <path id="Path_1686" data-name="Path 1686" d="M3733.428,1575.821h-36.952a.879.879,0,0,1-.876-.877v-3.168a.879.879,0,0,1,.876-.877h36.952a.879.879,0,0,1,.877.877v3.168A.879.879,0,0,1,3733.428,1575.821Z" transform="translate(-3602.188 -1560.469)" fill="#fff" stroke="#9a3b82" stroke-linecap="round" stroke-miterlimit="10" stroke-width="2"/>
        <rect id="Rectangle_179" data-name="Rectangle 179" width="14.212" height="38.68" transform="translate(15.377)" fill="none" stroke="#9a3b82" stroke-linecap="round" stroke-miterlimit="10" stroke-width="2"/>
        <rect id="Rectangle_180" data-name="Rectangle 180" width="5.735" height="38.68" transform="translate(9.642)" fill="#fff" stroke="#9a3b82" stroke-linecap="round" stroke-miterlimit="10" stroke-width="2"/>
        <rect id="Rectangle_181" data-name="Rectangle 181" width="9.642" height="38.68" fill="#fff" stroke="#9a3b82" stroke-linecap="round" stroke-miterlimit="10" stroke-width="2"/>
        <rect id="Rectangle_182" data-name="Rectangle 182" width="12.459" height="31.705" transform="translate(31.467 6.987)" fill="none" stroke="#9a3b82" stroke-linecap="round" stroke-miterlimit="10" stroke-width="2"/>
        <path id="Path_1687" data-name="Path 1687" d="M3167.685,1574.917h-4.909a.879.879,0,0,1-.876-.876v-29.964a.879.879,0,0,1,.876-.877h4.909a.879.879,0,0,1,.876.877v29.964A.887.887,0,0,1,3167.685,1574.917Z" transform="translate(-3135.316 -1536.238)" fill="#fff" stroke="#9a3b82" stroke-linecap="round" stroke-miterlimit="10" stroke-width="2"/>
        <path id="Path_1688" data-name="Path 1688" d="M3253.249,1543.4v17.38l-6.749-17.38Z" transform="translate(-3209.323 -1536.413)" fill="#9a3b82"/>
        <path id="Path_1689" data-name="Path 1689" d="M3293.645,1548.761H3273.71a1.062,1.062,0,0,1-.989-.676l-12.948-33.333a1.061,1.061,0,0,1,.989-1.453H3280.7a1.061,1.061,0,0,1,.989.676l12.948,33.333A1.061,1.061,0,0,1,3293.645,1548.761Z" transform="translate(-3220.868 -1510.082)" fill="#fff" stroke="#ffcf2d" stroke-miterlimit="10" stroke-width="2"/>
        <path id="Path_1690" data-name="Path 1690" d="M3319.645,1548.761H3299.71a1.063,1.063,0,0,1-.989-.676l-12.948-33.333a1.061,1.061,0,0,1,.99-1.453H3306.7a1.062,1.062,0,0,1,.989.676l12.948,33.333A1.061,1.061,0,0,1,3319.645,1548.761Z" transform="translate(-3243.613 -1510.082)" fill="#fff" stroke="#ffcf2d" stroke-miterlimit="10" stroke-width="2"/>
      </g>
      <g id="Group_591" data-name="Group 591" transform="translate(83.87 0)">
        <path id="Path_1691" data-name="Path 1691" d="M3645.435,1042.771A21.467,21.467,0,0,1,3633.6,1001.5Z" transform="translate(-3618.1 -1001.5)" fill="none" stroke="#ffcf2d" stroke-miterlimit="10" stroke-width="2"/>
        <line id="Line_269" data-name="Line 269" y2="7.651" transform="translate(21.462 42.085)" fill="none" stroke="#ffcf2d" stroke-miterlimit="10" stroke-width="2"/>
        <circle id="Ellipse_314" data-name="Ellipse 314" cx="18.182" cy="18.182" r="18.182" transform="translate(3.281 2.442)" fill="#fff" stroke="#3fb1b5" stroke-miterlimit="10" stroke-width="2"/>
        <path id="Path_1692" data-name="Path 1692" d="M3744.439,1371.969H3729.3l7.513-3.769Z" transform="translate(-3715.376 -1322.283)" fill="#fff" stroke="#ffcf2d" stroke-miterlimit="10" stroke-width="2"/>
      </g>
      <path id="Path_1693" data-name="Path 1693" d="M3080.579,1398.7v221.922h-6.85v-16.153a6.514,6.514,0,0,0-6.511-6.511H2961.585a6.514,6.514,0,0,0-6.511,6.511v16.153H2948.3V1398.7Z" transform="translate(-2948.3 -1348.964)" fill="none" stroke="#9a3b82" stroke-linecap="round" stroke-miterlimit="10" stroke-width="2"/>
      <path id="Path_1694" data-name="Path 1694" d="M3117.439,2676.1H3003.917a2.615,2.615,0,0,1-2.617-2.617v-32.669a2.616,2.616,0,0,1,2.617-2.617h113.521a2.616,2.616,0,0,1,2.617,2.617v32.669A2.615,2.615,0,0,1,3117.439,2676.1Z" transform="translate(-2994.664 -2433.257)" fill="none" stroke="#3fb1b5" stroke-miterlimit="10" stroke-width="2"/>
      <g id="Group_592" data-name="Group 592" transform="translate(12.434 14.513)">
        <path id="Path_1695" data-name="Path 1695" d="M3448.768,1155.3v30.478H3438.1Z" transform="translate(-3389.202 -1150.554)" fill="#9a3b82"/>
        <path id="Path_1696" data-name="Path 1696" d="M3107.165,1122.146l-.075.225-10.531,30.252H3047.6l10.531-30.252.338-.964h0c1.578-2.266,5.948-3.919,11.157-4.007h.5c6.085,0,11.507,2.116,12.5,4.9.977-2.78,6.16-4.9,12.246-4.9C3100.829,1117.4,3106.051,1119.441,3107.165,1122.146Z" transform="translate(-3047.6 -1117.4)" fill="#fff" stroke="#ffcf2d" stroke-miterlimit="10" stroke-width="2"/>
        <line id="Line_270" data-name="Line 270" x1="10.631" y2="29.702" transform="translate(24.38 4.896)" fill="none" stroke="#ffcf2d" stroke-linecap="round" stroke-miterlimit="10" stroke-width="2"/>
        <path id="Path_1697" data-name="Path 1697" d="M3071.955,1360.884H3047.6c.9-2.817,5.96-4.984,12.046-4.984C3065.757,1355.9,3071.053,1358.066,3071.955,1360.884Z" transform="translate(-3047.6 -1326.036)" fill="#ffcf2d"/>
        <path id="Path_1698" data-name="Path 1698" d="M3267.955,1360.884H3243.6c.9-2.817,5.96-4.984,12.046-4.984C3261.756,1355.9,3267.053,1358.066,3267.955,1360.884Z" transform="translate(-3219.057 -1326.036)" fill="#ffcf2d"/>
      </g>
      <path id="Path_1699" data-name="Path 1699" d="M3410.4,2703.078a1.777,1.777,0,0,1,1.778-1.778h13.286a1.777,1.777,0,0,1,1.778,1.778" transform="translate(-3352.537 -2488.456)" fill="none" stroke="#9a3b82" stroke-linecap="round" stroke-miterlimit="10" stroke-width="2"/>
      <line id="Line_271" data-name="Line 271" x2="132.279" transform="translate(0 149.372)" fill="none" stroke="#9a3b82" stroke-linecap="round" stroke-miterlimit="10" stroke-width="2"/>
      <line id="Line_272" data-name="Line 272" x2="132.279" transform="translate(0 99.548)" fill="none" stroke="#9a3b82" stroke-linecap="round" stroke-miterlimit="10" stroke-width="2"/>
      <line id="Line_273" data-name="Line 273" x2="132.279" transform="translate(0 199.183)" fill="none" stroke="#9a3b82" stroke-linecap="round" stroke-miterlimit="10" stroke-width="2"/>
      <path id="Path_1700" data-name="Path 1700" d="M2964.578,1027.1l-16.278,46.531h132.28l16.278-46.531" transform="translate(-2948.3 -1023.894)" fill="none" stroke="#9a3b82" stroke-linecap="round" stroke-linejoin="round" stroke-miterlimit="10" stroke-width="2"/>
    </g>
    <g id="PLANT" transform="translate(1120.596 564.267)">
      <g id="Group_595" data-name="Group 595" transform="translate(31.047 79.187)">
        <path id="Path_1701" data-name="Path 1701" d="M3939.778,2923.737a20.153,20.153,0,0,1-1.315,7.175,8.406,8.406,0,0,1-7.876,5.384h-26.509a8.388,8.388,0,0,1-7.863-5.384,20.153,20.153,0,0,1-1.315-7.175,20.925,20.925,0,0,1,9.717-17.5V2902c0,1.853,5.7,3.355,12.709,3.355s12.71-1.5,12.71-3.355v4.245A20.852,20.852,0,0,1,3939.778,2923.737Z" transform="translate(-3894.9 -2898.644)" fill="#fe5244"/>
        <g id="Group_593" data-name="Group 593" transform="translate(9.742 6.436)">
          <path id="Path_1702" data-name="Path 1702" d="M3998.119,2926.6v1.126c-2.016,1.6-7.5,2.455-12.709,2.455s-10.694-.852-12.709-2.455V2926.6c.238.538,1.252,1.239,3.506,1.828a42.792,42.792,0,0,0,18.407,0C3996.867,2927.827,3997.869,2927.125,3998.119,2926.6Z" transform="translate(-3972.7 -2926.6)" fill="#fff"/>
        </g>
        <path id="Path_1703" data-name="Path 1703" d="M3998.119,2878.556c0,1.853-5.7,3.356-12.709,3.356s-12.709-1.5-12.709-3.356a1.108,1.108,0,0,1,.263-.688c1.2-1.515,6.312-2.667,12.447-2.667s11.245,1.139,12.447,2.667A1.188,1.188,0,0,1,3998.119,2878.556Z" transform="translate(-3962.958 -2875.2)" fill="#66b0f0"/>
        <g id="Group_594" data-name="Group 594" transform="translate(3.005 10.618)">
          <circle id="Ellipse_315" data-name="Ellipse 315" cx="1.603" cy="1.603" r="1.603" transform="translate(0.826 5.948)" fill="none" stroke="#ffcf2d" stroke-miterlimit="10" stroke-width="2"/>
          <circle id="Ellipse_316" data-name="Ellipse 316" cx="1.603" cy="1.603" r="1.603" transform="translate(6.261 9.892)" fill="none" stroke="#ffcf2d" stroke-miterlimit="10" stroke-width="2"/>
          <circle id="Ellipse_317" data-name="Ellipse 317" cx="1.603" cy="1.603" r="1.603" transform="translate(13.023 5.209)" fill="none" stroke="#ffcf2d" stroke-miterlimit="10" stroke-width="2"/>
          <circle id="Ellipse_318" data-name="Ellipse 318" cx="1.603" cy="1.603" r="1.603" transform="translate(12.071 15.853)" fill="none" stroke="#ffcf2d" stroke-miterlimit="10" stroke-width="2"/>
          <circle id="Ellipse_319" data-name="Ellipse 319" cx="1.603" cy="1.603" r="1.603" transform="translate(6.061 20.523)" fill="none" stroke="#ffcf2d" stroke-miterlimit="10" stroke-width="2"/>
          <circle id="Ellipse_320" data-name="Ellipse 320" cx="1.603" cy="1.603" r="1.603" transform="translate(0 15.853)" fill="none" stroke="#ffcf2d" stroke-miterlimit="10" stroke-width="2"/>
          <circle id="Ellipse_321" data-name="Ellipse 321" cx="1.603" cy="1.603" r="1.603" transform="translate(7.137)" fill="none" stroke="#ffcf2d" stroke-miterlimit="10" stroke-width="2"/>
          <circle id="Ellipse_322" data-name="Ellipse 322" cx="1.603" cy="1.603" r="1.603" transform="translate(19.897 1.215)" fill="none" stroke="#ffcf2d" stroke-miterlimit="10" stroke-width="2"/>
          <circle id="Ellipse_323" data-name="Ellipse 323" cx="1.603" cy="1.603" r="1.603" transform="translate(18.557 10.931)" fill="none" stroke="#ffcf2d" stroke-miterlimit="10" stroke-width="2"/>
          <circle id="Ellipse_324" data-name="Ellipse 324" cx="1.603" cy="1.603" r="1.603" transform="translate(23.19 17.318)" fill="none" stroke="#ffcf2d" stroke-miterlimit="10" stroke-width="2"/>
          <circle id="Ellipse_325" data-name="Ellipse 325" cx="1.603" cy="1.603" r="1.603" transform="translate(17.18 22.126)" fill="none" stroke="#ffcf2d" stroke-miterlimit="10" stroke-width="2"/>
          <circle id="Ellipse_326" data-name="Ellipse 326" cx="1.603" cy="1.603" r="1.603" transform="translate(24.906 7.1)" fill="none" stroke="#ffcf2d" stroke-miterlimit="10" stroke-width="2"/>
          <circle id="Ellipse_327" data-name="Ellipse 327" cx="1.603" cy="1.603" r="1.603" transform="translate(29.551 0.526)" fill="none" stroke="#ffcf2d" stroke-miterlimit="10" stroke-width="2"/>
          <circle id="Ellipse_328" data-name="Ellipse 328" cx="1.603" cy="1.603" r="1.603" transform="translate(34.835 5.848)" fill="none" stroke="#ffcf2d" stroke-miterlimit="10" stroke-width="2"/>
          <circle id="Ellipse_329" data-name="Ellipse 329" cx="1.603" cy="1.603" r="1.603" transform="translate(28.787 11.094)" fill="none" stroke="#ffcf2d" stroke-miterlimit="10" stroke-width="2"/>
          <circle id="Ellipse_330" data-name="Ellipse 330" cx="1.603" cy="1.603" r="1.603" transform="translate(36.025 14.45)" fill="none" stroke="#ffcf2d" stroke-miterlimit="10" stroke-width="2"/>
          <circle id="Ellipse_331" data-name="Ellipse 331" cx="1.603" cy="1.603" r="1.603" transform="translate(31.154 20.611)" fill="none" stroke="#ffcf2d" stroke-miterlimit="10" stroke-width="2"/>
        </g>
      </g>
      <g id="Group_596" data-name="Group 596">
        <path id="Path_1704" data-name="Path 1704" d="M4194.042,2728.889s11.9-6.424,13.861,4.8c2.279,12.96-13.2,24.367-13.2,24.367a42.186,42.186,0,0,0-12.259-15.364C4174.72,2736.539,4181.131,2720.236,4194.042,2728.889Z" transform="translate(-4112.469 -2665.854)" fill="#fff" stroke="#ffcf2d" stroke-miterlimit="10" stroke-width="2"/>
        <path id="Path_1705" data-name="Path 1705" d="M3997.986,2296.708c5.647.05,13.761-11.42,6.1-24-9.253-15.2-10.844-24-10.844-24s-13.611,18.006-11.294,31.818C3984.487,2295.644,3997.986,2296.708,3997.986,2296.708Z" transform="translate(-3939.767 -2247.961)" fill="#ffcf2d"/>
        <path id="Path_1706" data-name="Path 1706" d="M4050.564,2283.909c8.251,2.178,16.09-2.842,16.253-14.288.288-20.235,4.12-26.821,4.12-26.821s-25.707,9.254-29.6,23.629C4037.629,2280.127,4050.564,2283.909,4050.564,2283.909Z" transform="translate(-3991.368 -2242.8)" fill="#fff" stroke="#ffcf2d" stroke-miterlimit="10" stroke-width="2"/>
        <path id="Path_1707" data-name="Path 1707" d="M3671.666,2648.127c-.3.025-.614.05-.952.075-17.756,1.327-22.865,17.581-22.865,17.581s-1.089-1.177-.864-5.247c.425-10.493,10.08-21.337,21.1-14.45C3669.311,2646.862,3670.514,2647.526,3671.666,2648.127Z" transform="translate(-3646.955 -2593.695)" fill="#ffcf2d"/>
        <path id="Path_1708" data-name="Path 1708" d="M3692.483,2561.867a34.492,34.492,0,0,1-20.135-3.994c-1.152-.588-2.354-1.265-3.581-2.041-11.019-6.887-20.423,3.957-20.849,14.45a15.176,15.176,0,0,0,.125,1.528c-1.04-9.116-1.014-31.805,26.571-31.042C3693.573,2541.319,3692.483,2561.867,3692.483,2561.867Z" transform="translate(-3647.637 -2503.441)" fill="#fff" stroke="#ffcf2d" stroke-miterlimit="10" stroke-width="2"/>
        <path id="Path_1709" data-name="Path 1709" d="M3755.4,2616.351s3.268-45.541-40.9-39.594" transform="translate(-3706.042 -2534.472)" fill="none" stroke="#ffcf2d" stroke-miterlimit="10" stroke-width="2"/>
        <path id="Path_1710" data-name="Path 1710" d="M4121.57,2242.8c-27.824,28.425-22.64,81.88-22.64,81.88-2.931-20.448,15.051-40.771,24.631-19.384,2.854,6.361.663,29.689.663,29.689" transform="translate(-4042.002 -2242.8)" fill="none" stroke="#ffcf2d" stroke-miterlimit="10" stroke-width="2"/>
      </g>
    </g>
    <g id="CHAIR__x26__TABLE" transform="translate(758.971 562.063)">
      <g id="CHAIR" transform="translate(0 1.828)">
        <path id="Path_1711" data-name="Path 1711" d="M787.9,2286.256l-3.731,3.268a13.759,13.759,0,0,1-1.6-2.367l-23.265-43.35a2.717,2.717,0,0,1,2.392-4.007h3.256a7.035,7.035,0,0,1,6.211,3.719l18.294,34.084A7.017,7.017,0,0,1,787.9,2286.256Z" transform="translate(-758.971 -2239.8)" fill="#ffcf2d"/>
        <path id="Path_1712" data-name="Path 1712" d="M1117.631,2559.176h0L1063.5,2570.3v-1.127a11.367,11.367,0,0,1,9.078-11.132l34.873-7.162A8.478,8.478,0,0,1,1117.631,2559.176Z" transform="translate(-1025.368 -2511.77)" fill="#ffcf2d"/>
        <path id="Path_1713" data-name="Path 1713" d="M962.52,2742.553v-54.232a7.1,7.1,0,0,0-8.527-6.949l-34,6.975a12.06,12.06,0,0,0-8.853,7.513L893.2,2742.553" transform="translate(-876.392 -2625.95)" fill="none" stroke="#9a3b82" stroke-linecap="round" stroke-miterlimit="10" stroke-width="2"/>
        <path id="Path_1714" data-name="Path 1714" d="M760.5,2269.9l26.433,49.248a10.823,10.823,0,0,0,11.72,5.485l54.044-11.094" transform="translate(-760.309 -2266.131)" fill="none" stroke="#9a3b82" stroke-linecap="round" stroke-miterlimit="10" stroke-width="2"/>
      </g>
      <g id="BOOKS" transform="translate(59.256)">
        <rect id="Rectangle_183" data-name="Rectangle 183" width="45.742" height="6.111" transform="translate(6.461 9.016)" fill="#66b0f0"/>
        <g id="Group_597" data-name="Group 597">
          <path id="Path_1715" data-name="Path 1715" d="M1276.063,2227.579a3.163,3.163,0,0,1-2.141,5.359H1232.2a1.314,1.314,0,0,0,1.315,1.314h50.35a5.044,5.044,0,0,0,3.456-1.327,4.329,4.329,0,0,0,1.427-3.205,4.711,4.711,0,0,0-4.884-4.521h-50.35a1.314,1.314,0,0,0-1.315,1.315v.237h41.722A3.242,3.242,0,0,1,1276.063,2227.579Z" transform="translate(-1232.2 -2225.2)" fill="#fe5244"/>
          <path id="Path_1716" data-name="Path 1716" d="M1235.305,2234.2v6.06H1232.3v.5h41.86a3.509,3.509,0,0,0,1.315-.25h0a3.454,3.454,0,0,0,1.177-.777,3.533,3.533,0,0,0-2.492-6.035H1232.3v.5Z" transform="translate(-1232.288 -2232.635)" fill="#fe5244"/>
          <path id="Path_1717" data-name="Path 1717" d="M1247,2237.7v6.061h39.869a3.03,3.03,0,0,0,0-6.061Z" transform="translate(-1245.147 -2236.134)" fill="#fff"/>
          <line id="Line_274" data-name="Line 274" y2="6.061" transform="translate(1.853 1.565)" fill="none" stroke="#fe5244" stroke-miterlimit="10" stroke-width="5"/>
          <path id="Path_1718" data-name="Path 1718" d="M1520.9,2258.7v5.059h3.494v-4.407a1.9,1.9,0,0,1,1.9-1.9h1.553v-.651h-5.059A1.908,1.908,0,0,0,1520.9,2258.7Z" transform="translate(-1484.75 -2252.843)" fill="#ffcf2d"/>
        </g>
      </g>
      <g id="TABLE" transform="translate(39.96 15.527)">
        <path id="Path_1719" data-name="Path 1719" d="M1078.7,2354.033a4.836,4.836,0,0,1,4.833-4.833h95.04a4.836,4.836,0,0,1,4.833,4.833" transform="translate(-1078.625 -2349.2)" fill="none" stroke="#9a3b82" stroke-linecap="round" stroke-miterlimit="10" stroke-width="2"/>
        <path id="Path_1720" data-name="Path 1720" d="M1182.957,2469.074l-26.834-93.462a10.19,10.19,0,0,0-9.967-7.012h-31.267a10.19,10.19,0,0,0-9.967,7.012l-26.821,93.462" transform="translate(-1078.1 -2366.17)" fill="none" stroke="#9a3b82" stroke-linecap="round" stroke-miterlimit="10" stroke-width="2"/>
      </g>
    </g>
    <g id="CHARACTER" transform="translate(912.842 429.167)">
      <g id="SHOES" transform="translate(13.473 235.148)">
        <g id="Group_598" data-name="Group 598">
          <path id="Path_1721" data-name="Path 1721" d="M2095.4,3041.8v13.624a2.549,2.549,0,0,0,2.554,2.554h34.059s.2-6.323-4.984-8.089c-8.8-2.992-12.91-8.089-12.91-8.089Z" transform="translate(-2095.4 -3041.8)" fill="#fff" stroke="#fe5244" stroke-miterlimit="10" stroke-width="2"/>
          <path id="Path_1722" data-name="Path 1722" d="M2246.7,3060.944c1.39-.388,6.4-3.156,4.683-4.871-.814-.814-2.767,0-2.767,0" transform="translate(-2227.755 -3053.969)" fill="none" stroke="#fe5244" stroke-miterlimit="10" stroke-width="2"/>
          <path id="Path_1723" data-name="Path 1723" d="M2287.7,3075.286c1.39-.388,6.2-3.481,4.308-5-1.427-1.152-3.569,1.077-3.569,1.077" transform="translate(-2263.62 -3066.434)" fill="none" stroke="#fe5244" stroke-miterlimit="10" stroke-width="2"/>
          <path id="Path_1724" data-name="Path 1724" d="M2115.172,3042.9l-19.771,6.148v-7.25h18.733A12.633,12.633,0,0,0,2115.172,3042.9Z" transform="translate(-2095.4 -3041.8)" fill="#fe5244"/>
        </g>
        <g id="Group_599" data-name="Group 599" transform="translate(42.699)">
          <path id="Path_1725" data-name="Path 1725" d="M2436.4,3041.8v13.624a2.549,2.549,0,0,0,2.555,2.554h34.059s.2-6.323-4.984-8.089c-8.8-2.992-12.91-8.089-12.91-8.089Z" transform="translate(-2436.4 -3041.8)" fill="#fff" stroke="#fe5244" stroke-miterlimit="10" stroke-width="2"/>
          <path id="Path_1726" data-name="Path 1726" d="M2587.7,3060.944c1.39-.388,6.4-3.156,4.683-4.871-.814-.814-2.767,0-2.767,0" transform="translate(-2568.754 -3053.969)" fill="none" stroke="#fe5244" stroke-miterlimit="10" stroke-width="2"/>
          <path id="Path_1727" data-name="Path 1727" d="M2628.7,3075.286c1.39-.388,6.2-3.481,4.307-5-1.427-1.152-3.568,1.077-3.568,1.077" transform="translate(-2604.621 -3066.434)" fill="none" stroke="#fe5244" stroke-miterlimit="10" stroke-width="2"/>
          <path id="Path_1728" data-name="Path 1728" d="M2456.172,3042.9l-19.772,6.148v-7.25h18.732A12.737,12.737,0,0,0,2456.172,3042.9Z" transform="translate(-2436.4 -3041.8)" fill="#fe5244"/>
        </g>
      </g>
      <g id="LEGS" transform="translate(7.751 99.538)">
        <path id="Path_1729" data-name="Path 1729" d="M2082.734,1958.8,2070.4,2087.924h25.795l12.96-62.571,5.3,13.335v49.236h26.859v-55.208l-14.324-73.916Z" transform="translate(-2067.808 -1958.8)" fill="#3fb1b5"/>
        <line id="Line_275" data-name="Line 275" x1="11.996" y2="98.108" transform="translate(16.366 31.016)" fill="none" stroke="#9a3b82" stroke-miterlimit="10" stroke-width="2"/>
        <path id="Path_1730" data-name="Path 1730" d="M2408.129,2131.663v-55.208L2391.3,2008.8" transform="translate(-2348.526 -2002.539)" fill="none" stroke="#9a3b82" stroke-miterlimit="10" stroke-width="2"/>
        <path id="Path_1731" data-name="Path 1731" d="M2280.547,2251.873l-16.078-46.693a3.982,3.982,0,0,0-3.769-2.68" transform="translate(-2234.279 -2171.985)" fill="none" stroke="#fff" stroke-miterlimit="10" stroke-width="2"/>
        <path id="Path_1732" data-name="Path 1732" d="M2152.6,1980.15l2.041-21.35h44.252l1.264,6.561Z" transform="translate(-2139.715 -1958.8)" fill="#9a3b82"/>
        <path id="Path_1733" data-name="Path 1733" d="M2435.55,2996.486h-27.01a1.844,1.844,0,0,1-1.84-1.841v-2.8a1.844,1.844,0,0,1,1.84-1.841h27.01a1.844,1.844,0,0,1,1.841,1.841v2.8A1.852,1.852,0,0,1,2435.55,2996.486Z" transform="translate(-2361.998 -2860.876)" fill="#9a3b82"/>
        <path id="Path_1734" data-name="Path 1734" d="M2078.55,2996.486h-27.009a1.844,1.844,0,0,1-1.841-1.841v-2.8a1.844,1.844,0,0,1,1.841-1.841h27.009a1.844,1.844,0,0,1,1.841,1.841v2.8A1.852,1.852,0,0,1,2078.55,2996.486Z" transform="translate(-2049.7 -2860.876)" fill="#9a3b82"/>
      </g>
      <g id="BOOK" transform="translate(58.26 99.753)">
        <path id="Path_1735" data-name="Path 1735" d="M2503.5,1964.087l8.465,31.667-42.2,11.282-8.477-31.692a3.693,3.693,0,1,0-7.137,1.9l8.477,31.693-.927.25-8.465-31.667a4.807,4.807,0,0,1,3.256-5.848l.15-.038,40.971-10.957A4.825,4.825,0,0,1,2503.5,1964.087Z" transform="translate(-2453.076 -1960.521)" fill="#66b0f0"/>
        <path id="Path_1736" data-name="Path 1736" d="M2462.233,2052.258l8.465,31.668-.927.25-8.477-31.693a3.693,3.693,0,1,0-7.137,1.9l8.477,31.693-.927.25-8.465-31.667a4.656,4.656,0,1,1,8.991-2.4Z" transform="translate(-2453.076 -2037.648)" fill="#9a3b82"/>
        <path id="Path_1737" data-name="Path 1737" d="M2467.956,2059.741l7.951,29.751-7.137,1.9-7.951-29.751a3.693,3.693,0,0,1,7.137-1.9Z" transform="translate(-2459.739 -2044.918)" fill="#fff"/>
      </g>
      <g id="SHIRT" transform="translate(0 35.464)">
        <path id="Path_1738" data-name="Path 1738" d="M2096.615,1531.734l-19.2,6.612-15.151-27.172h-58.727a15.733,15.733,0,0,1-15.4-18.945l6.111-29.351a19.82,19.82,0,0,1,19.4-15.777H2053.8a19.806,19.806,0,0,1,19.559,16.666l6.048,28.574Z" transform="translate(-1987.801 -1447.1)" fill="#ffcf2d" stroke="#fff" stroke-miterlimit="10" stroke-width="2"/>
        <path id="Path_1739" data-name="Path 1739" d="M2000.672,1847.278a15.774,15.774,0,0,1-12.572-14.212,7.631,7.631,0,0,1,1.74-.9c4.545-1.678,9.742,1.077,11.633,6.148A10.211,10.211,0,0,1,2000.672,1847.278Z" transform="translate(-1988.062 -1783.517)" fill="#fff"/>
      </g>
      <g id="HEAD" transform="translate(36.889 0)">
        <path id="NECK" d="M2301.846,1306.5v17.618H2282.4l4.482-11.72Z" transform="translate(-2282.4 -1288.641)" fill="#e57281"/>
        <path id="HAIR" d="M2336.233,1174.324c-.012,0-.037.013-.05.013h0l-5.772,1.528a6.3,6.3,0,0,0-4.333,4.007h-2.216a2.544,2.544,0,0,0-2.542,2.542v.038a2.536,2.536,0,0,0,2.316,2.529l-.013.013s-1.026,4.883-7.024,3.243c0,0,.238-12.847.488-16.842.213-3.293,17.681-9.529,19.3-6.874,1.428,2.354-.225,3.456-1.627,3.944,2.479-.526,7.162-1.227,7.638.864C2342.945,1171.757,2338,1173.861,2336.233,1174.324Z" transform="translate(-2312.317 -1163.879)" fill="#9a3b82"/>
        <g id="HEAD_1_" transform="translate(9.016 10.471)">
          <path id="Path_1740" data-name="Path 1740" d="M2370.427,1256.478h-.614l.176,3.005a3.774,3.774,0,0,1-3.757,3.982h-2.7a4.724,4.724,0,0,1-4.72-4.721v-.588h-1.866a2.544,2.544,0,0,1-2.542-2.542v-.038a2.544,2.544,0,0,1,2.542-2.542h2.216a6.279,6.279,0,0,1,4.333-4.007l5.773-1.527h0l1.978,7.926A.828.828,0,0,1,2370.427,1256.478Z" transform="translate(-2354.4 -1247.5)" fill="#e57281"/>
          <g id="Group_600" data-name="Group 600" transform="translate(2.216 2.579)">
            <path id="Path_1741" data-name="Path 1741" d="M2394.178,1339.2c-.263,2.755,2.492,4.721,5.1,4.721" transform="translate(-2391.398 -1330.297)" fill="none" stroke="#9a3b82" stroke-linecap="round" stroke-miterlimit="10" stroke-width="5"/>
            <path id="Path_1742" data-name="Path 1742" d="M2373.865,1303.365a1.763,1.763,0,0,0-1.765-1.765" transform="translate(-2372.1 -1297.405)" fill="none" stroke="#9a3b82" stroke-linecap="round" stroke-miterlimit="10" stroke-width="5"/>
            <ellipse id="Ellipse_332" data-name="Ellipse 332" cx="0.463" cy="0.964" rx="0.463" ry="0.964" transform="translate(11.219 2.241)" fill="#9a3b82"/>
            <path id="Path_1743" data-name="Path 1743" d="M2449.4,1269.277a6.684,6.684,0,0,1,3.744-1.177" transform="translate(-2439.72 -1268.1)" fill="none" stroke="#9a3b82" stroke-linecap="round" stroke-miterlimit="10" stroke-width="5"/>
          </g>
        </g>
      </g>
      <g id="BACKPACK" transform="translate(16.341 32.234)">
        <path id="Path_1744" data-name="Path 1744" d="M2401.8,1905.067s15.339.664,20.736-11.645l-2.855-5.222-8.527,3.281Z" transform="translate(-2366.301 -1829.736)" fill="#fff" stroke="#fe5244" stroke-miterlimit="10" stroke-width="2"/>
        <path id="Path_1745" data-name="Path 1745" d="M2166.084,1421.4a3.075,3.075,0,0,0-2.817,3.055v61.695a10.656,10.656,0,0,1-10.656,10.656h-23.654a10.655,10.655,0,0,1-10.593-11.8V1485l8.515-58.564a5.879,5.879,0,0,1,5.823-5.034h33.383Z" transform="translate(-2118.302 -1421.388)" fill="#fe5244" stroke="#fe5244" stroke-miterlimit="10" stroke-width="2"/>
        <path id="Path_1746" data-name="Path 1746" d="M2163.793,1421.312a3.081,3.081,0,0,0-1.916.889,3,3,0,0,0-.864,1.741c-.013.138-.025.275-.025.413l-.5,4.721-6.01,56.974a10.656,10.656,0,0,1-10.656,10.656h-14.763a10.655,10.655,0,0,1-10.594-11.8v-.012l3.845-26.471,4.67-32.093a6.476,6.476,0,0,1,.176-.826,5.875,5.875,0,0,1,5.635-4.207h31Z" transform="translate(-2118.389 -1421.3)" fill="#fff" stroke="#fe5244" stroke-miterlimit="10" stroke-width="2"/>
        <path id="Path_1747" data-name="Path 1747" d="M2186.688,1519.413l-2.241,16.817c-.739,3.443-3.418,5.284-7.3,5.91L2150.6,1546l3.869-26.6h32.218Z" transform="translate(-2146.556 -1507.116)" fill="#ffcf2d"/>
        <path id="Path_1748" data-name="Path 1748" d="M2169.939,1421.4h-.664a2.522,2.522,0,0,0-2.492,2.028l-3.907,25.206a7.475,7.475,0,0,1-7.3,5.91h-24.43a4.626,4.626,0,0,1-4.52-5.622l4.708-21.387a7.823,7.823,0,0,1,7.638-6.135Z" transform="translate(-2125.487 -1421.387)" fill="#fe5244" stroke="#fe5244" stroke-miterlimit="10" stroke-width="2"/>
        <path id="Path_1749" data-name="Path 1749" d="M2312.344,1466.893l6.223-38.053a1.6,1.6,0,0,1,1.565-1.34h0a1.588,1.588,0,0,1,1.565,1.853l-6.223,38.053a1.6,1.6,0,0,1-1.565,1.34h0A1.589,1.589,0,0,1,2312.344,1466.893Z" transform="translate(-2288.027 -1426.724)" fill="#fff" stroke="#fe5244" stroke-miterlimit="10" stroke-width="2"/>
        <path id="Path_1750" data-name="Path 1750" d="M2201.245,1466.893l6.223-38.053a1.6,1.6,0,0,1,1.565-1.34h0a1.589,1.589,0,0,1,1.565,1.853l-6.223,38.053a1.6,1.6,0,0,1-1.565,1.34h0A1.588,1.588,0,0,1,2201.245,1466.893Z" transform="translate(-2190.839 -1426.724)" fill="#fff" stroke="#fe5244" stroke-miterlimit="10" stroke-width="2"/>
        <path id="Path_1751" data-name="Path 1751" d="M2483.623,1424.643l-6.123.025v-.213a3,3,0,0,1,.9-2.166,3.051,3.051,0,0,1,1.916-.889h.5A3.157,3.157,0,0,1,2483.623,1424.643Z" transform="translate(-2432.522 -1421.388)" fill="#fff" stroke="#fe5244" stroke-miterlimit="10" stroke-width="2"/>
      </g>
      <g id="HAND" transform="translate(62.859 65.391)">
        <g id="Group_601" data-name="Group 601" transform="translate(28.036 55.496)">
          <path id="Path_1752" data-name="Path 1752" d="M2731.164,2129.3l5.159,13.311a3.879,3.879,0,0,1-2.58,5.134l-11.332,3.106a2.124,2.124,0,0,1-1.953-.438l-1.152-1,2.354-.626a2.281,2.281,0,0,0,1.69-2.316l-.263-2.655a2.279,2.279,0,0,0-2.2-2.179h.125a3.892,3.892,0,0,1-3.406-2.267l-1.8-4.8Z" transform="translate(-2715.537 -2129.3)" fill="#e57281"/>
          <path id="Path_1753" data-name="Path 1753" d="M2717.707,2190.088l1.853-.5a2.142,2.142,0,0,0,1.691-2.191l-.138-2.9a2.279,2.279,0,0,0-2.2-2.179h0a3.712,3.712,0,0,1-3.281-2.266l-1.928-4.545" transform="translate(-2713.7 -2169.715)" fill="none" stroke="#fff" stroke-linecap="round" stroke-miterlimit="10" stroke-width="6"/>
          <path id="Path_1754" data-name="Path 1754" d="M2794.1,2245.261a2.914,2.914,0,0,0,2.166-2.955l-.175-3.707" transform="translate(-2784.033 -2224.913)" fill="none" stroke="#fff" stroke-linecap="round" stroke-miterlimit="10" stroke-width="6"/>
          <path id="Path_1755" data-name="Path 1755" d="M2832.4,2235.361a2.915,2.915,0,0,0,2.167-2.955l-.175-3.706" transform="translate(-2817.536 -2216.253)" fill="none" stroke="#fff" stroke-linecap="round" stroke-miterlimit="10" stroke-width="6"/>
        </g>
        <path id="Path_1756" data-name="Path 1756" d="M2489.8,1686.1l3.03,15.853a25.768,25.768,0,0,0,2.8,7.726l20.911,37.741,19.2-6.612" transform="translate(-2489.8 -1686.1)" fill="none" stroke="#fff" stroke-miterlimit="10" stroke-width="6"/>
        <path id="Path_1757" data-name="Path 1757" d="M2525.316,1837.194l-6.85-12.371a26.419,26.419,0,0,1-2.567-6.636,9.1,9.1,0,0,1,2.041-.426c5.409-.476,10.205,4.07,10.719,10.143A11.569,11.569,0,0,1,2525.316,1837.194Z" transform="translate(-2512.632 -1801.245)" fill="#fff"/>
      </g>
    </g>
  </g>
</svg>
