<svg id="background" xmlns="http://www.w3.org/2000/svg" xmlns:xlink="http://www.w3.org/1999/xlink" width="1920" height="1080" viewBox="0 0 1920 1080">
  <defs>
    <linearGradient id="linear-gradient" y1="0.035" x2="1.01" y2="1" gradientUnits="objectBoundingBox">
      <stop offset="0" stop-color="#49bdaa"/>
      <stop offset="1" stop-color="#05967d"/>
    </linearGradient>
    <clipPath id="clip-path">
      <rect id="Rectangle_90" data-name="Rectangle 90" width="1920" height="1080" fill="#fff" stroke="#707070" stroke-width="1"/>
    </clipPath>
    <linearGradient id="linear-gradient-2" x1="0.197" y1="0.805" x2="0.612" y2="0.22" gradientUnits="objectBoundingBox">
      <stop offset="0" stop-color="#ffb300"/>
      <stop offset="1" stop-color="#e49120"/>
    </linearGradient>
    <linearGradient id="linear-gradient-3" x1="0.565" y1="0.503" x2="0.1" y2="0.04" gradientUnits="objectBoundingBox">
      <stop offset="0" stop-color="#ffb300"/>
      <stop offset="1" stop-color="#ff425c"/>
    </linearGradient>
    <clipPath id="clip-path-2">
      <rect id="Rectangle_129" data-name="Rectangle 129" width="566" height="361" transform="translate(1354 719)" fill="#fff"/>
    </clipPath>
    <linearGradient id="linear-gradient-4" x1="0.649" y1="0.331" x2="0.208" y2="0.522" gradientUnits="objectBoundingBox">
      <stop offset="0" stop-color="#ffb300"/>
      <stop offset="1" stop-color="#fe2339"/>
    </linearGradient>
  </defs>
  <g id="Path_1331" data-name="Path 1331" fill="url(#linear-gradient)">
    <path d="M 1919.5 1079.5 L 0.5 1079.5 L 0.5 0.5 L 1919.5 0.5 L 1919.5 1079.5 Z" stroke="none"/>
    <path d="M 1 1 L 1 1079 L 1919 1079 L 1919 1 L 1 1 M 0 0 L 1920 0 L 1920 1080 L 0 1080 L 0 0 Z" stroke="none" fill="#707070"/>
  </g>
  <g id="Mask_Group_4" data-name="Mask Group 4" clip-path="url(#clip-path)">
    <path id="wave_6_" data-name="wave (6)" d="M-139.4,533.195l46.306-73.934C-46.782,385.327,45.83,237.46,97.768,245.177c52.155,6.884,63.091,171.435,100.708,233.93s100.826,27.1,184.89-88.07C467.1,277.119,571.7,83.43,638.008,36.161c66.64-48.518,95,49.384,150.041,45.229S923.725-24.811,987.478-62.29s109.538-6.227,150.041,45.229c40.176,52.705,75.071,125.614,92.137,163.526l17.284,37.079,139.4-533.195-28.882,7.284-144.41,36.422-173.292,43.706L866.46-218.532,693.168-174.826,519.876-131.119,346.584-87.413,173.292-43.706,28.882-7.284,0,0Z" transform="translate(1268.613 -396.305) rotate(43)" fill="url(#linear-gradient-2)"/>
    <path id="wave_6_2" data-name="wave (6)" d="M-152.548,636.321l37.57-57.175C-77.407,521.97-2.266,407.62,44.574,413.943c46.992,5.677,65.305,133.642,102.182,182.45s91.559,21.692,160.752-67.3c68.965-88.019,152.441-237.909,209.283-274.234C573.86,217.569,604.3,293.84,653.3,290.954s115.806-81.7,170.867-110.428,97.621-4.155,136.506,36.092c38.657,41.216,73.64,98.1,90.866,127.676l17.378,28.928L1165.9-40.331l-25.447,5.481L1013.216-7.443,860.534,25.444,707.851,58.332,555.168,91.219C504.274,102.182,442.424.7,391.53,11.666c-44.583,9.6-8.36-127.84-51.168-96.612-5.706,4.164-71.681,32.461-77.992,33.821C211.475-40.164,148.015,178.919,97.121,189.882L-30.115,217.288l-25.447,5.481Z" transform="translate(105.137 1329.416) rotate(-120)" fill="url(#linear-gradient-3)"/>
  </g>
  <g id="Mask_Group_5" data-name="Mask Group 5" clip-path="url(#clip-path-2)">
    <path id="wave_3_" data-name="wave (3)" d="M0,32,8.7,48c8.561,16,26.385,48,43.226,69.3,17.122,21.7,35.086,31.7,51.927,64,17.122,31.7,33.683,85.7,51.927,64,16.982-21.3,33.683-117.3,51.927-128,16.841-10.3,33.683,63.7,51.927,64,16.7-.3,33.683-74.3,51.927-101.3,16.561-27,33.683-5,50.524,5.3C380.052,96,397.174,96,414.016,122.7,431.839,149,449.1,203,465.943,240c17.683,37,35.086,59,51.927,58.7,17.543.3,35.086-21.7,51.927-37.4,17.543-16.3,35.086-26.3,51.927-42.6,17.4-15.7,35.086-37.7,51.927-53.4C690.915,149,708.738,139,725.58,128c17.122-11,35.086-21,51.927-26.7C794.629,96,811.19,96,829.435,112c16.982,16,33.683,48,51.927,48,16.841,0,33.683-32,51.927-64,16.7-32,33.683-64,51.927-53.3,16.561,10.3,33.683,64.3,50.524,80,17.964,16.3,35.086-5.7,51.927-10.7,17.824-5,35.086,5,51.927-5.3,17.683-10.7,35.086-42.7,51.927-53.4,17.543-10.3,35.086-.3,51.927,5.4,17.543,5.3,35.086,5.3,51.927,5.3,17.4,0,35.086,0,51.927-10.7C1364.567,43,1382.391,21,1399.232,32c17.122,11,35.086,53,51.927,53.3,17.122-.3,33.683-42.3,51.927-53.3,16.982-11,33.683,11,51.927,26.7,16.841,16.3,33.683,26.3,51.927,32,16.7,5.3,33.683,5.3,51.927,10.6,16.561,5.7,33.683,15.7,50.524,37.4,17.964,21.3,35.086,53.3,51.927,80,17.824,26.3,35.086,48.3,51.927,37.3,17.683-11,35.086-53,51.927-85.3,17.543-31.7,35.086-53.7,51.927-64,17.543-10.7,35.086-10.7,51.927-21.4,17.4-10.3,35.086-32.3,43.507-42.6l8.421-10.7V320H0Z" transform="matrix(0.921, -0.391, 0.391, 0.921, 743.28, 1278.199)" fill="url(#linear-gradient-4)"/>
  </g>
</svg>
