<svg xmlns="http://www.w3.org/2000/svg" width="1561.301" height="464.918" viewBox="0 0 1561.301 464.918">
  <g id="hero_section" data-name="hero section" transform="translate(-368.225 -562.644)">
    <g id="_x35__HAND__x26__CAP" transform="translate(1757.742 612.709)">
      <g id="HAND_8_" transform="translate(8.581 182.082)">
        <g id="DRESS_6_" transform="translate(34.443 129.182)">
          <path id="Path_566" data-name="Path 566" d="M3643.394,2462.762V2527.1H3546.6l18.859-98.8c-.6,3.9,11.468,11.214,27.987,18.547,5.929,2.633,12.54,5.247,19.6,7.723a190.151,190.151,0,0,0,30.347,8.191Z" transform="translate(-3546.6 -2423.515)" fill="#9a3b82"/>
          <path id="Path_567" data-name="Path 567" d="M3725.467,2423.665v17.221a191.1,191.1,0,0,1-30.366-8.172c-26.934-9.459-47.666-21.141-46.5-26.388.019-.078.039-.156.059-.214,1.814-5.129,25.666-1.58,52.97,8,8.776,3.081,16.695,6.26,23.345,9.323C3725.135,2423.509,3725.292,2423.587,3725.467,2423.665Z" transform="translate(-3628.673 -2403.765)" fill="#ffcf2d"/>
        </g>
        <g id="DIPLOMA_1_" transform="translate(0 0)">
          <path id="Path_568" data-name="Path 568" d="M3551.467,1741.4a17.076,17.076,0,0,0-17.085,17.065v46.769a17.072,17.072,0,0,1-17.065,17.065H3448.9a17.059,17.059,0,0,0,17.065-17.065v-46.769a17.059,17.059,0,0,1,17.065-17.065Z" transform="translate(-3433.512 -1741.4)" fill="#fff" stroke="#ffcf2d" stroke-miterlimit="10" stroke-width="2"/>
          <g id="Group_100" data-name="Group 100" transform="translate(44.467 24.203)">
            <rect id="Rectangle_135" data-name="Rectangle 135" width="43.57" height="40.43" fill="#fff" stroke="#ffcf2d" stroke-miterlimit="10" stroke-width="2"/>
            <line id="Line_73" data-name="Line 73" x1="43.551" transform="translate(0 5.773)" fill="none" stroke="#ffcf2d" stroke-miterlimit="10" stroke-width="2"/>
            <line id="Line_74" data-name="Line 74" x1="43.551" transform="translate(0 11.546)" fill="none" stroke="#ffcf2d" stroke-miterlimit="10" stroke-width="2"/>
            <line id="Line_75" data-name="Line 75" x1="43.551" transform="translate(0 17.338)" fill="none" stroke="#ffcf2d" stroke-miterlimit="10" stroke-width="2"/>
            <line id="Line_76" data-name="Line 76" x1="43.551" transform="translate(0 23.111)" fill="none" stroke="#ffcf2d" stroke-miterlimit="10" stroke-width="2"/>
            <line id="Line_77" data-name="Line 77" x1="43.551" transform="translate(0 28.904)" fill="none" stroke="#ffcf2d" stroke-miterlimit="10" stroke-width="2"/>
            <line id="Line_78" data-name="Line 78" x1="43.551" transform="translate(0 34.677)" fill="none" stroke="#ffcf2d" stroke-miterlimit="10" stroke-width="2"/>
          </g>
          <path id="Path_569" data-name="Path 569" d="M3887.2,1758.465a16.91,16.91,0,1,1,33.819,0Z" transform="translate(-3786.329 -1741.4)" fill="#66b0f0" stroke="#ffcf2d" stroke-miterlimit="10" stroke-width="2"/>
          <path id="Path_570" data-name="Path 570" d="M3453.883,2114.851h-68.359A17.074,17.074,0,0,1,3370,2104.3h68.3A17.135,17.135,0,0,0,3453.883,2114.851Z" transform="translate(-3370 -2033.523)" fill="#ffcf2d"/>
          <g id="Group_106" data-name="Group 106" transform="translate(39.435 8.718)">
            <g id="Group_101" data-name="Group 101" transform="translate(0 4.525)">
              <path id="Path_571" data-name="Path 571" d="M3580.079,1815.619H3572.2V1809.3h3.706v3.511a.175.175,0,0,0,.078.156l.02.019Z" transform="translate(-3572.2 -1809.3)" fill="#fe5244"/>
            </g>
            <g id="Group_102" data-name="Group 102" transform="translate(4.135 6.69)">
              <path id="Path_572" data-name="Path 572" d="M3600.207,1820.419v.839c0,.156-.02.312-.02.468,0,.039-.02.1-.02.136-.02.078-.02.156-.039.234a3.077,3.077,0,0,1-1.658,2.282l-.176.059a1.834,1.834,0,0,1-.312.078c-.039,0-.078.02-.117.02l-4.466-2.906c.039-.683.468-1.229.975-1.229h5.832Z" transform="translate(-3593.4 -1820.4)" fill="#fe5244"/>
            </g>
            <g id="Group_103" data-name="Group 103" transform="translate(46.574 4.525)">
              <path id="Path_573" data-name="Path 573" d="M3818.879,1809.3v6.319H3811l4.057-2.633.02-.02h0c.02-.019.02-.019.039-.019,0-.02.02-.02.02-.039a.019.019,0,0,1,.02-.019c0-.02,0-.02.02-.02h0V1809.3Z" transform="translate(-3811 -1809.3)" fill="#fe5244"/>
            </g>
            <g id="Group_104" data-name="Group 104" transform="translate(43.551 6.728)">
              <path id="Path_574" data-name="Path 574" d="M3802.306,1821.807l-4.466,2.906-.351-.058c-.039-.02-.078-.02-.117-.039-.059-.02-.1-.039-.156-.059-.039-.019-.1-.039-.136-.058a3.062,3.062,0,0,1-1.365-1.775,2.35,2.35,0,0,1-.1-.351c-.02-.039-.02-.1-.039-.156a5.028,5.028,0,0,1-.078-.78v-.839h5.851C3801.838,1820.578,3802.267,1821.124,3802.306,1821.807Z" transform="translate(-3795.5 -1820.597)" fill="#fe5244"/>
            </g>
            <g id="Group_105" data-name="Group 105" transform="translate(4.115)">
              <path id="Path_575" data-name="Path 575" d="M3639.542,1787.426v5.5c-.039-.039-.078-.1-.117-.136a2.073,2.073,0,0,0-.234-.2,1.235,1.235,0,0,0-.625-.195h-44.292a1.126,1.126,0,0,0-.624.195,2.1,2.1,0,0,0-.234.2.846.846,0,0,0-.117.136v-5.5c0-.741.429-1.326.975-1.326h44.292C3639.093,1786.1,3639.542,1786.7,3639.542,1787.426Z" transform="translate(-3593.3 -1786.1)" fill="#fe5244"/>
            </g>
          </g>
        </g>
        <g id="HAND_9_" transform="translate(70.133 44.058)">
          <path id="Path_576" data-name="Path 576" d="M3790.7,2013.093v76.453h-.02a191.118,191.118,0,0,1-30.366-8.172c-7.06-2.477-13.672-5.11-19.6-7.723l3.179-17.748,5.4-30.132c-16.948-5.3-19.7-21.61-19.7-21.61h13.633A17.059,17.059,0,0,0,3760.3,1987.1v-5.617h-8.757c-6.143,0-11.136-6.046-11.136-12.189V1967.3h19.465a11.454,11.454,0,0,1,9.167,4.583l14.237,19.016A36.758,36.758,0,0,1,3790.7,2013.093Z" transform="translate(-3729.599 -1967.3)" fill="#a0505a"/>
          <path id="Path_577" data-name="Path 577" d="M3836.586,2438.022v17.221h-.02a191.118,191.118,0,0,1-30.366-8.172c-7.06-2.477-13.672-5.11-19.6-7.723l3.179-17.748c7.021,1.716,14.823,4.037,22.936,6.885,8.777,3.081,16.695,6.26,23.326,9.323A3.563,3.563,0,0,1,3836.586,2438.022Z" transform="translate(-3775.483 -2332.997)" fill="#73325a"/>
          <path id="Path_578" data-name="Path 578" d="M3806.837,1981.479h-9.4c-6.143,0-11.136-6.046-11.136-12.189V1967.3h20.537Z" transform="translate(-3775.242 -1967.3)" fill="#a0505a"/>
          <path id="Path_579" data-name="Path 579" d="M3861.3,2137.4s13.555,5.09,14.784,22.584" transform="translate(-3835.614 -2104.225)" fill="none" stroke="#73325a" stroke-miterlimit="10" stroke-width="2"/>
          <line id="Line_79" data-name="Line 79" x2="9.225" transform="translate(19.737 58.88)" fill="none" stroke="#73325a" stroke-miterlimit="10" stroke-width="2"/>
        </g>
      </g>
      <g id="CAP_6_" transform="translate(0 0)">
        <path id="Path_580" data-name="Path 580" d="M3786.7,1122.346l6.182-4.1a12.652,12.652,0,0,1,19.6,9.557l1.346,17.026a12.657,12.657,0,0,0,19.074,9.888l3.9-2.321" transform="translate(-3696.849 -1055.997)" fill="none" stroke="#ffcf2d" stroke-miterlimit="10" stroke-width="2"/>
        <path id="Path_581" data-name="Path 581" d="M3326,823.7l79.437,46.105,40,89.812-45.891-30.912-49.87-58.432Z" transform="translate(-3326 -820.599)" fill="#9a3b82"/>
        <path id="Path_582" data-name="Path 582" d="M3327.1,807.8l81.114,47.1,40.859,91.7" transform="translate(-3326.885 -807.8)" fill="none" stroke="#ffcf2d" stroke-miterlimit="10" stroke-width="6"/>
        <ellipse id="Ellipse_119" data-name="Ellipse 119" cx="8.796" cy="39.299" rx="8.796" ry="39.299" transform="translate(15.293 55.707) rotate(-40.173)" fill="#fff"/>
        <ellipse id="Ellipse_120" data-name="Ellipse 120" cx="8.62" cy="38.538" rx="8.62" ry="38.538" transform="translate(14.152 57.715) rotate(-40.173)" fill="#fff" stroke="#ffcf2d" stroke-miterlimit="10" stroke-width="5"/>
        <path id="Path_583" data-name="Path 583" d="M3496.375,1089.643l-7.567,6.378c1.4-1.19,1.092-4.193-.6-8.386-2.789-6.9-9.323-16.987-18.021-27.324-8.718-10.317-17.573-18.45-23.911-22.351-3.842-2.379-6.768-3.2-8.172-2.009l7.567-6.378c3.706-3.14,18.723,7.119,32.727,23.716S3500.1,1086.522,3496.375,1089.643Z" transform="translate(-3416.237 -985.866)" fill="#ffcf2d"/>
        <path id="Path_584" data-name="Path 584" d="M4081.049,1203.611c2.146-1.034,4.232-1.95,6.241-2.711a17.315,17.315,0,0,1,3.023,4.349,16.75,16.75,0,0,1,1.541,5.051c-1.853,1.092-3.862,2.184-5.988,3.218-10.668,5.168-20.381,7.138-21.707,4.408C4062.814,1215.176,4070.381,1208.779,4081.049,1203.611Z" transform="translate(-3920.07 -1124.233)" fill="#ffcf2d"/>
        <circle id="Ellipse_121" data-name="Ellipse 121" cx="2.36" cy="2.36" r="2.36" transform="translate(139.779 92.679)" fill="none" stroke="#9a3b82" stroke-miterlimit="10" stroke-width="6"/>
      </g>
    </g>
    <g id="_x34__HAND__x26__CAP" transform="translate(1366.979 724.326)">
      <g id="DRESS_5_" transform="translate(60.694 207.523)">
        <path id="Path_585" data-name="Path 585" d="M2952.463,2482.2v82.576H2858.4l12.053-89.676c0,3.628,18.353,8.152,41,10.1C2934.091,2487.172,2952.463,2485.826,2952.463,2482.2Z" transform="translate(-2858.4 -2469.063)" fill="#e57281"/>
        <path id="Path_586" data-name="Path 586" d="M3003.15,2455.159c0,3.627-18.2,4.973-40.625,3s-40.625-6.494-40.625-10.1h0c0-3.627,18.2-4.973,40.625-3C2984.973,2447.007,3003.15,2451.532,3003.15,2455.159Z" transform="translate(-2909.515 -2444.15)" fill="#e57281"/>
      </g>
      <g id="CAP_5_" transform="translate(0)">
        <path id="Path_587" data-name="Path 587" d="M3187.012,1562l5.695,3.686c5.7,4.408-2.184,24.106-17.592,43.96-15.407,19.874-32.511,32.395-38.207,27.987l-2.808-2.652" transform="translate(-3019.636 -1526.524)" fill="none" stroke="#66b0f0" stroke-miterlimit="10" stroke-width="6"/>
        <path id="Path_588" data-name="Path 588" d="M2999.9,1508.1l64.653-59.173,22.6-68.827-69,62.7Z" transform="translate(-2911.609 -1380.1)" fill="#66b0f0"/>
        <path id="Path_589" data-name="Path 589" d="M2983,1518.818l70.367-64.4,22.955-69.919" transform="translate(-2898.005 -1383.642)" fill="none" stroke="#fe5244" stroke-linecap="round" stroke-miterlimit="10" stroke-width="6"/>
        <path id="Path_590" data-name="Path 590" d="M2787.576,1732l-61.4,58.724a4.2,4.2,0,0,1-7.021-3.9l1.716-8.328a4.205,4.205,0,0,0-6.592-4.252L2694,1789.008" transform="translate(-2665.369 -1663.368)" fill="none" stroke="#fe5244" stroke-miterlimit="10" stroke-width="6"/>
        <path id="Path_591" data-name="Path 591" d="M2559.311,2055.01c-1.814,1.521-3.628,2.925-5.383,4.154a17.181,17.181,0,0,1-4-3.471,16.969,16.969,0,0,1-2.73-4.525c1.521-1.521,3.2-3.062,5.012-4.6,9.069-7.626,18-11.936,19.971-9.6C2574.134,2039.31,2568.38,2047.385,2559.311,2055.01Z" transform="translate(-2547.2 -1908.346)" fill="#ffcf2d"/>
        <circle id="Ellipse_122" data-name="Ellipse 122" cx="2.36" cy="2.36" r="2.36" transform="translate(24.379 124.703)" fill="none" stroke="#fe5244" stroke-miterlimit="10" stroke-width="6"/>
      </g>
      <g id="HAND_7_" transform="translate(67.208 118.586)">
        <path id="Path_592" data-name="Path 592" d="M2949.7,2028.052v63.775c-3.608-.156-7.45-.39-11.409-.741-14.608-1.268-27.4-3.647-34.56-6.143l1.073-7.06,3.588-23.7h-4.642a11.944,11.944,0,0,1-11.956-11.956v-23.482a19.078,19.078,0,0,1,4.739-12.6l15.271-17.455a1.637,1.637,0,0,1,2.867,1.073V2013.5a11.93,11.93,0,0,1-2.867,7.762l-1.365,1.6h16.578a2.978,2.978,0,0,0,2.458-4.661,118.644,118.644,0,0,1-7.294-12.15c-5.09-9.732,3.745-15.173,3.745-15.173l20.225,26.232A18.7,18.7,0,0,1,2949.7,2028.052Z" transform="translate(-2891.8 -1988.135)" fill="#ffcf2d"/>
        <path id="Path_593" data-name="Path 593" d="M2991.632,1990v25a11.928,11.928,0,0,1-2.867,7.762l-1.365,1.6" transform="translate(-2968.755 -1989.636)" fill="none" stroke="#fff" stroke-linecap="round" stroke-miterlimit="10" stroke-width="2"/>
        <g id="Group_107" data-name="Group 107" transform="translate(7.684 3.66)">
          <line id="Line_80" data-name="Line 80" x1="10.961" y2="12.306" transform="translate(0 31.049)" fill="none" stroke="#fff" stroke-linecap="round" stroke-miterlimit="10" stroke-width="2"/>
          <path id="Path_594" data-name="Path 594" d="M2946.473,2062.5a11.927,11.927,0,0,1-2.867,7.762l-1.365,1.6-10.941,12.287" transform="translate(-2931.28 -2051.656)" fill="none" stroke="#fff" stroke-linecap="round" stroke-miterlimit="10" stroke-width="2"/>
          <path id="Path_595" data-name="Path 595" d="M2946.473,2006.9a11.928,11.928,0,0,1-2.867,7.762l-1.365,1.6-10.941,12.287" transform="translate(-2931.28 -2006.9)" fill="none" stroke="#fff" stroke-linecap="round" stroke-miterlimit="10" stroke-width="2"/>
          <line id="Line_81" data-name="Line 81" x2="8.406" transform="translate(8.913 63.034)" fill="none" stroke="#fff" stroke-linecap="round" stroke-miterlimit="10" stroke-width="2"/>
        </g>
        <path id="Path_596" data-name="Path 596" d="M2998.969,2446.275v12.6c-3.608-.156-7.45-.39-11.409-.741-14.608-1.268-27.4-3.647-34.56-6.144l1.072-7.06c7.333-1.073,19.6-1.131,33.507.078C2991.519,2445.378,2995.341,2445.787,2998.969,2446.275Z" transform="translate(-2941.064 -2355.183)" fill="#fe5244"/>
      </g>
    </g>
    <g id="_x33__HAND__x26__CAP" transform="translate(1105.458 565.1)">
      <g id="HAND_4_" transform="translate(0 159.926)">
        <g id="DRESS_4_" transform="translate(0 183.973)">
          <path id="Path_597" data-name="Path 597" d="M2255.769,2489.752H2147V2381.919c0,4.6,17.885,8.328,39.962,8.328s39.962-3.725,39.962-8.328v-.02Z" transform="translate(-2147 -2371.466)" fill="#3fb1b5"/>
          <path id="Path_598" data-name="Path 598" d="M2228.966,2336.708h0c0,4.622-17.689,8.347-39.533,8.347s-39.533-3.725-39.533-8.328v-.02c.058-4.583,17.728-8.308,39.533-8.308S2228.927,2332.125,2228.966,2336.708Z" transform="translate(-2149.334 -2328.4)" fill="#66b0f0"/>
        </g>
        <g id="HAND_6_" transform="translate(2.711 98.94)">
          <path id="HAND_5_" d="M2237.821,1985.82c-.136,4.564-17.787,8.269-39.533,8.269-4.193,0-8.211-.136-11.995-.39v-40.118h-20.634a4.753,4.753,0,0,1-4.759-4.759V1945.6a4.755,4.755,0,0,0,0-7.216v-3.218a4.711,4.711,0,0,0,0-6.553V1925.4a4.813,4.813,0,0,1,1.385-3.374,4.731,4.731,0,0,1-1.385-3.354v-5.831a4.753,4.753,0,0,1,4.759-4.759h26.349c.878-.507,2.3-2.3-.117-3.355l-5.656-1.326c-4.486-2.243-7.333-5.968-7.333-11h19.893a7.935,7.935,0,0,1,7.45,5.246l31.088,86.789Z" transform="translate(-2160.9 -1892.4)" fill="#e57281"/>
          <path id="Path_599" data-name="Path 599" d="M2342.725,2336.906l-.1-.1c0,4.6-17.689,8.328-39.533,8.328-4.193,0-8.211-.136-11.995-.39V2328.89c3.784-.253,7.821-.39,11.995-.39,19.7,0,36.042,3.042,39.045,7h0A10.492,10.492,0,0,1,2342.725,2336.906Z" transform="translate(-2265.707 -2243.447)" fill="#9a3b82"/>
        </g>
        <g id="WINEGLASS" transform="translate(2.964)">
          <path id="Path_600" data-name="Path 600" d="M2194.227,1694.8v15.817a15.563,15.563,0,0,1-31.127,0V1694.8c0,3.862,6.962,6.982,15.563,6.982S2194.227,1698.661,2194.227,1694.8Z" transform="translate(-2162.925 -1634.399)" fill="#fff"/>
          <ellipse id="Ellipse_123" data-name="Ellipse 123" cx="15.564" cy="6.982" rx="15.564" ry="6.982" transform="translate(0.176 53.419)" fill="#ffcf2d"/>
          <path id="Path_601" data-name="Path 601" d="M2194.227,1556.2v42.829a15.565,15.565,0,0,1-7.8,13.5h-.019a15.561,15.561,0,0,1-15.466.019c-.02,0-.02-.019-.039-.019a15.565,15.565,0,0,1-7.8-13.5V1556.2Z" transform="translate(-2162.925 -1522.83)" fill="none" stroke="#ffcf2d" stroke-miterlimit="10" stroke-width="2"/>
          <ellipse id="Ellipse_124" data-name="Ellipse 124" cx="15.739" cy="6.982" rx="15.739" ry="6.982" transform="translate(0 26.388)" fill="#fff" stroke="#ffcf2d" stroke-miterlimit="10" stroke-width="2"/>
          <circle id="Ellipse_125" data-name="Ellipse 125" cx="2.301" cy="2.301" r="2.301" transform="translate(13.438 29.82)" fill="#ffcf2d"/>
          <circle id="Ellipse_126" data-name="Ellipse 126" cx="2.028" cy="2.028" r="2.028" transform="translate(8.64 77.369)" fill="#fff" stroke="#ffcf2d" stroke-miterlimit="10" stroke-width="5"/>
          <circle id="Ellipse_127" data-name="Ellipse 127" cx="1.677" cy="1.677" r="1.677" transform="translate(21.161 58.724)" fill="#fff"/>
          <circle id="Ellipse_128" data-name="Ellipse 128" cx="1.677" cy="1.677" r="1.677" transform="translate(4.934 71.304)" fill="#ffcf2d"/>
          <path id="Path_602" data-name="Path 602" d="M2194.008,1926.348H2164.09a.517.517,0,0,1-.234-.975l10.454-3.959a4.246,4.246,0,0,0,2.73-3.959v-62.332a11.686,11.686,0,0,0-5.714-10.1,15.559,15.559,0,0,0,15.466-.019,11.638,11.638,0,0,0-5.734,10.1v62.332a4.246,4.246,0,0,0,2.731,3.959l10.454,3.959A.528.528,0,0,1,2194.008,1926.348Z" transform="translate(-2163.31 -1755.305)" fill="#fff" stroke="#ffcf2d" stroke-miterlimit="10" stroke-width="2"/>
          <circle id="Ellipse_129" data-name="Ellipse 129" cx="2.652" cy="2.652" r="2.652" transform="translate(2.009 4.642)" fill="#ffcf2d"/>
          <circle id="Ellipse_130" data-name="Ellipse 130" cx="2.301" cy="2.301" r="2.301" transform="translate(20.537 9.615)" fill="#fff" stroke="#ffcf2d" stroke-miterlimit="10" stroke-width="5"/>
          <circle id="Ellipse_131" data-name="Ellipse 131" cx="1.677" cy="1.677" r="1.677" transform="translate(9.888 19.835)" fill="#fff" stroke="#ffcf2d" stroke-miterlimit="10" stroke-width="5"/>
          <circle id="Ellipse_132" data-name="Ellipse 132" cx="1.385" cy="1.385" r="1.385" transform="translate(9.303)" fill="#ffcf2d"/>
        </g>
        <g id="FINGERS_1_" transform="translate(2.711 114.64)">
          <path id="Path_603" data-name="Path 603" d="M2196.942,2004.9v39.26h-31.283a4.753,4.753,0,0,1-4.759-4.759v-3.218a4.755,4.755,0,0,0,0-7.216v-3.218a4.711,4.711,0,0,0,0-6.553v-3.218a4.813,4.813,0,0,1,1.385-3.374,4.732,4.732,0,0,1-1.385-3.354v-4.33h36.042Z" transform="translate(-2160.9 -1998.659)" fill="#e57281"/>
          <g id="Group_108" data-name="Group 108" transform="translate(0.546)">
            <path id="Path_604" data-name="Path 604" d="M2163.7,2126.9a5.4,5.4,0,0,0,5.4,5.4h25.315a5.4,5.4,0,0,0,5.4-5.4" transform="translate(-2163.7 -2096.865)" fill="none" stroke="#9a3b82" stroke-linecap="round" stroke-miterlimit="10" stroke-width="2"/>
            <path id="Path_605" data-name="Path 605" d="M2163.7,2077a5.4,5.4,0,0,0,5.4,5.4h25.315a5.4,5.4,0,0,0,5.4-5.4" transform="translate(-2163.7 -2056.697)" fill="none" stroke="#9a3b82" stroke-linecap="round" stroke-miterlimit="10" stroke-width="2"/>
            <path id="Path_606" data-name="Path 606" d="M2163.7,2027.1a5.4,5.4,0,0,0,5.4,5.4h25.315a5.4,5.4,0,0,0,5.4-5.4" transform="translate(-2163.7 -2016.529)" fill="none" stroke="#9a3b82" stroke-linecap="round" stroke-miterlimit="10" stroke-width="2"/>
            <path id="Path_607" data-name="Path 607" d="M2190.1,2031.593h25.569a5.4,5.4,0,0,0,5.4-5.4V1989.7" transform="translate(-2184.951 -1986.423)" fill="none" stroke="#9a3b82" stroke-linecap="round" stroke-miterlimit="10" stroke-width="2"/>
            <path id="Path_608" data-name="Path 608" d="M2209.154,1976.02h-2.594a1.565,1.565,0,0,0-1.56,1.56h0a1.565,1.565,0,0,0,1.56,1.56h14.51a2.851,2.851,0,0,0,2.847-2.848h0a3.4,3.4,0,0,1,3.394-3.394h2.36a3.4,3.4,0,0,1,3.394,3.394v6.319" transform="translate(-2196.945 -1972.9)" fill="none" stroke="#9a3b82" stroke-linecap="round" stroke-miterlimit="10" stroke-width="2"/>
          </g>
        </g>
      </g>
      <g id="CAP_4_" transform="translate(46.554)">
        <path id="Path_609" data-name="Path 609" d="M2557.379,655.229l-64.926,66.584L2417.6,639.3l81.7-57.5Z" transform="translate(-2411.379 -578.543)" fill="#3fb1b5"/>
        <path id="Path_610" data-name="Path 610" d="M2464.239,711.569,2385.7,625.482l86.126-60.382" transform="translate(-2385.7 -565.1)" fill="none" stroke="#ffcf2d" stroke-miterlimit="10" stroke-width="6"/>
        <path id="Path_611" data-name="Path 611" d="M2794.9,937.062l4.9-.722a14.728,14.728,0,0,1,16.714,12.424l4.271,29.1A14.721,14.721,0,0,0,2841.707,989l20.42-9.771" transform="translate(-2715.093 -863.808)" fill="none" stroke="#ffcf2d" stroke-miterlimit="10" stroke-width="2"/>
        <path id="Path_612" data-name="Path 612" d="M3183.639,1158.921c2.087,1.131,4.057,2.3,5.851,3.472a17.345,17.345,0,0,1-1.755,4.993,16.8,16.8,0,0,1-3.2,4.213c-1.97-.858-4.037-1.853-6.124-2.984-10.434-5.636-17.709-12.365-16.266-15.037S3173.205,1153.285,3183.639,1158.921Z" transform="translate(-3010.568 -1037.923)" fill="#ffcf2d"/>
        <circle id="Ellipse_133" data-name="Ellipse 133" cx="2.36" cy="2.36" r="2.36" transform="translate(146.995 112.514)" fill="none" stroke="#66b0f0" stroke-miterlimit="10" stroke-width="6"/>
      </g>
    </g>
    <g id="_x32__HAND__x26__CAP" transform="translate(718.462 648.322)">
      <g id="HAND_2_" transform="translate(0 212.033)">
        <g id="DRESS_3_" transform="translate(10.15 88.178)">
          <path id="Path_613" data-name="Path 613" d="M1613.229,2560.3v73.059H1528.8v-43.043c1.833,4.8,23.326,1.736,46.261-7.041C1595.7,2575.376,1611.63,2565.663,1613.229,2560.3Z" transform="translate(-1528.652 -2554.331)" fill="#fe5244"/>
          <path id="Path_614" data-name="Path 614" d="M1612.621,2533.537c-1.619,5.363-17.533,15.076-38.187,22.975-22.916,8.776-44.409,11.838-46.261,7.041s16.675-15.661,39.611-24.437c22.916-8.776,43-11.995,44.838-7.2A2.309,2.309,0,0,1,1612.621,2533.537Z" transform="translate(-1528.044 -2529.693)" fill="#66b0f0"/>
        </g>
        <g id="HAND_3_">
          <path id="Path_615" data-name="Path 615" d="M1552.842,2121.149v61.9h0l-4.661,2.36c-4.72,2.3-10.005,4.583-15.622,6.729a161.954,161.954,0,0,1-28.436,8.191l4.642-18.236,7.567-29.762a11.994,11.994,0,0,1-9.264-4.369L1476,2112.626c5.324-4.856,13.281,1.755,13.281,1.755l-2.984-15.232a11.648,11.648,0,0,1,2.828-10.064l9.439-10.356a3.55,3.55,0,0,1,6.026,1.4l6.709,23.15S1527.957,2116,1531.077,2116c3.53,0,4.759-2.867-1.833-12.287-4.954-7.08,0-12.248,0-12.248l16.129,13.574A21.12,21.12,0,0,1,1552.842,2121.149Z" transform="translate(-1476 -2077.573)" fill="#fff" stroke="#ffcf2d" stroke-miterlimit="10" stroke-width="2"/>
          <g id="Group_109" data-name="Group 109" transform="translate(11.721 5.795)">
            <path id="Path_616" data-name="Path 616" d="M1588.93,2141.458l-11.8-9.439-6.456-22.273A3.312,3.312,0,0,0,1565,2108.4" transform="translate(-1559.364 -2107.286)" fill="none" stroke="#ffcf2d" stroke-miterlimit="10" stroke-width="2"/>
            <path id="Path_617" data-name="Path 617" d="M1557.943,2172.722l-10.259-8.348-6.1-21.083a3.221,3.221,0,0,0-5.48-1.268" transform="translate(-1536.1 -2134.395)" fill="none" stroke="#ffcf2d" stroke-miterlimit="10" stroke-width="2"/>
            <line id="Line_82" data-name="Line 82" x1="11.234" y1="9.42" transform="translate(1.541 31.032)" fill="none" stroke="#ffcf2d" stroke-miterlimit="10" stroke-width="2"/>
            <line id="Line_83" data-name="Line 83" x2="13.126" transform="translate(28.611 68.966)" fill="none" stroke="#ffcf2d" stroke-miterlimit="10" stroke-width="2"/>
          </g>
          <path id="Path_618" data-name="Path 618" d="M1668.758,2536.6v16.363a188.835,188.835,0,0,1-20.283,9.108,162.274,162.274,0,0,1-28.475,8.191l4.681-18.255c5.188-2.5,11-4.993,17.143-7.333A174.862,174.862,0,0,1,1668.758,2536.6Z" transform="translate(-1591.915 -2447.075)" fill="#ffcf2d"/>
        </g>
      </g>
      <g id="CAP_3_" transform="translate(15.095)">
        <path id="Path_619" data-name="Path 619" d="M1762.988,1480l5.929,13.009a8.788,8.788,0,0,1-7.684,9.752h0a8.777,8.777,0,0,0-7.684,9.752l.858,7.216" transform="translate(-1714.464 -1384.512)" fill="none" stroke="#ffcf2d" stroke-miterlimit="10" stroke-width="6"/>
        <path id="Path_620" data-name="Path 620" d="M1694.122,1060.916l31.244-48.758L1617.9,1011.3l-35.2,93.732,58.119-2.73Z" transform="translate(-1576.985 -1007.224)" fill="#fe5244"/>
        <path id="Path_621" data-name="Path 621" d="M1703.067,991.668,1590.71,990.4l-37.31,98.374" transform="translate(-1553.4 -990.4)" fill="none" stroke="#ffcf2d" stroke-miterlimit="10" stroke-width="6"/>
        <path id="Path_622" data-name="Path 622" d="M1847.627,1196.214c6.241,10.707-4.369,28.533-23.716,39.806s-40.079,11.721-46.32,1.014a13.058,13.058,0,0,1-1.638-4.739c-1.56-10.707,8.64-25.335,25.354-35.067s34.462-11.409,43-4.778A13.3,13.3,0,0,1,1847.627,1196.214Z" transform="translate(-1732.422 -1149.835)" fill="#66b0f0" stroke="#fff" stroke-miterlimit="10" stroke-width="2"/>
        <path id="Path_623" data-name="Path 623" d="M1822.252,1152.664l4.954,8.5a13.294,13.294,0,0,0-3.315-3.764c-8.542-6.631-26.29-4.954-43,4.778s-26.9,24.359-25.354,35.067a12.7,12.7,0,0,0,1.638,4.739l-4.954-8.5c-6.241-10.707,4.369-28.533,23.716-39.806C1795.26,1142.425,1816.011,1141.957,1822.252,1152.664Z" transform="translate(-1712.001 -1114.789)" fill="none" stroke="#fff" stroke-linecap="round" stroke-miterlimit="10" stroke-width="2"/>
        <path id="Path_624" data-name="Path 624" d="M1698.645,1726.988c-.76,2.243-1.58,4.388-2.438,6.358a16.7,16.7,0,0,1-5.207-.9,17.062,17.062,0,0,1-4.7-2.438c.507-2.087,1.131-4.291,1.892-6.533,3.783-11.234,9.166-19.542,12.053-18.587C1703.131,1705.866,1702.41,1715.754,1698.645,1726.988Z" transform="translate(-1660.38 -1565.482)" fill="#ffcf2d"/>
        <circle id="Ellipse_134" data-name="Ellipse 134" cx="2.36" cy="2.36" r="2.36" transform="translate(37.895 134.728)" fill="none" stroke="#66b0f0" stroke-miterlimit="10" stroke-width="6"/>
      </g>
    </g>
    <g id="_x31__HAND__x26__CAP" transform="translate(368.225 570.114)">
      <g id="HAND" transform="translate(0 169.866)">
        <g id="DRESS_2_" transform="translate(0 164.739)">
          <path id="Path_625" data-name="Path 625" d="M881.586,2370.161v79.826H793.9V2332.5c1.716,5.753,20.069,17.748,42.849,27.772C860.991,2370.98,881.079,2375.387,881.586,2370.161Z" transform="translate(-793.768 -2327.145)" fill="#ffcf2d"/>
          <path id="Path_626" data-name="Path 626" d="M881.043,2345.935c-.527,5.227-20.6.8-44.838-9.888-22.78-10.044-41.132-22.039-42.849-27.772a2.45,2.45,0,0,1-.117-1.034c.507-5.227,20.6-.8,44.838,9.888S881.569,2340.708,881.043,2345.935Z" transform="translate(-793.225 -2305.045)" fill="#9a3b82"/>
        </g>
        <g id="HAND_1_" transform="translate(21.78 84.104)">
          <path id="Path_627" data-name="Path 627" d="M919.12,1898.621a12.47,12.47,0,0,1,11.214-7.021h13.789l.722,55.428,9.615,50.942,3.062,16.188c-8.113-1.794-19.191-5.558-31.322-10.9-6.865-3.023-15.466-7.509-21.2-10.668v-67.442a7.914,7.914,0,0,1,.488-2.691Z" transform="translate(-904.98 -1891.6)" fill="#a0505a"/>
          <path id="Path_628" data-name="Path 628" d="M957.422,2361.019h0c-8.113-1.794-19.191-5.558-31.322-10.9-6.865-3.023-15.466-7.509-21.2-10.668V2322.5c6.261,2.009,15.525,5.363,23.072,8.679a216.044,216.044,0,0,1,26.407,13.652Z" transform="translate(-904.9 -2238.461)" fill="#73325a"/>
        </g>
        <g id="DIPLOMA" transform="translate(27.794 0)">
          <g id="Group_110" data-name="Group 110">
            <path id="Path_629" data-name="Path 629" d="M1033.6,1519.294l-73.351,134.962c-2.711,4.993-10.181,6.183-16.675,2.652s-9.557-10.434-6.846-15.447l73.351-134.962Z" transform="translate(-935.737 -1497.502)" fill="#fff" stroke="#ffcf2d" stroke-miterlimit="10" stroke-width="2"/>
            <ellipse id="Ellipse_135" data-name="Ellipse 135" cx="10.298" cy="13.379" rx="10.298" ry="13.379" transform="translate(69.419 18.095) rotate(-61.477)" fill="#66b0f0" stroke="#ffcf2d" stroke-miterlimit="10" stroke-width="2"/>
          </g>
          <path id="Path_630" data-name="Path 630" d="M1191.8,1720.2l34.657-28.3-.546,10.064,11.1,2.769-25.276,15.6c6.787-1.17,14.959-2.126,21.687-1.6,8.016.624,5.324,10.005,2.321,18.021,7.021-.682,30.562-14.939,39.435-12.248,5.422,1.638,3.472,12.7,1.911,18.8,2.262.117,13.711-.019,13.711-.019l-6.046,5.519,3.316,5.52c-12.872.566-13.028-1.463-11.409-10.59.273-9.927-10.727-.39-34.15,5.207-11.6,2.77-10.1-4.778-7.236-12.638-1.151-3.608-9.752-7.528-37.388-.312Z" transform="translate(-1141.86 -1646.744)" fill="#fe5244"/>
          <circle id="Ellipse_136" data-name="Ellipse 136" cx="10.239" cy="10.239" r="10.239" transform="translate(40.208 70.218)" fill="#fff" stroke="#fe5244" stroke-miterlimit="10" stroke-width="2"/>
        </g>
        <g id="FINGERS" transform="translate(42.434 84.104)">
          <path id="Path_631" data-name="Path 631" d="M1075.84,1891.6v.644a11.873,11.873,0,0,1-11.877,11.877H1051.5V1891.6Z" transform="translate(-1043.563 -1891.6)" fill="#a0505a"/>
          <g id="Group_112" data-name="Group 112" transform="translate(0 18.43)">
            <path id="Path_632" data-name="Path 632" d="M1058.253,1991.717l-3.3,7.723-3.842,9.03-2.087,4.9-3.179,7.47a5.471,5.471,0,0,1-.293.585c0,.02-.02.02-.02.039a5.9,5.9,0,0,1-5.149,2.847h-25.257a4.1,4.1,0,0,1-4.018-5.578l1.833-4.31,4.037-9.479,3.472-8.172,3.062-7.177a5.911,5.911,0,0,1,5.48-3.491h25.257A4.138,4.138,0,0,1,1058.253,1991.717Z" transform="translate(-1010.802 -1986.1)" fill="#a0505a"/>
            <g id="Group_111" data-name="Group 111" transform="translate(3.647 8.835)">
              <path id="Path_633" data-name="Path 633" d="M1065.7,2033.272a5.665,5.665,0,0,1,4.213-1.872h24.125a4.1,4.1,0,0,1,4.115,4.505" transform="translate(-1058.64 -2031.4)" fill="none" stroke="#73325a" stroke-linecap="round" stroke-miterlimit="10" stroke-width="2"/>
              <path id="Path_634" data-name="Path 634" d="M1048.9,2076.138a5.631,5.631,0,0,1,4-1.638h24.125a4.059,4.059,0,0,1,3.979,5.11" transform="translate(-1045.116 -2066.094)" fill="none" stroke="#73325a" stroke-linecap="round" stroke-miterlimit="10" stroke-width="2"/>
              <path id="Path_635" data-name="Path 635" d="M1029.5,2125.041a5.671,5.671,0,0,1,3.9-1.541h24.125a4.074,4.074,0,0,1,3.9,5.383h0" transform="translate(-1029.5 -2105.538)" fill="none" stroke="#73325a" stroke-linecap="round" stroke-miterlimit="10" stroke-width="2"/>
            </g>
          </g>
        </g>
      </g>
      <g id="CAP_2_" transform="translate(15.149 0)">
        <path id="Path_636" data-name="Path 636" d="M1430.9,832c1.619-1.736,3.237-3.355,4.837-4.8a16.9,16.9,0,0,1,4.388,2.964,17.381,17.381,0,0,1,3.276,4.154c-1.326,1.7-2.808,3.433-4.427,5.168-8.074,8.679-16.4,14.042-18.645,11.975C1418.108,849.395,1422.828,840.677,1430.9,832Z" transform="translate(-1312.732 -780.821)" fill="#ffcf2d"/>
        <path id="Path_637" data-name="Path 637" d="M957.43,887.847l-2.574,1.6c-9.342,5.792-27.539-6.67-40.625-27.831-13.106-21.161-16.149-42.985-6.826-48.777l2.652-1.638,15.778,46.418Z" transform="translate(-895.937 -767.942)" fill="#66b0f0"/>
        <path id="Path_638" data-name="Path 638" d="M958.528,741.653l-26.134-25.023-31.615-30.249L885,639.983,870.9,598.5l65.667,52.912Z" transform="translate(-870.9 -596.725)" fill="#66b0f0" stroke="#fff" stroke-miterlimit="10" stroke-width="2"/>
        <path id="Path_639" data-name="Path 639" d="M966.291,731.851l-21.8-90.085L878,589.4" transform="translate(-876.615 -589.4)" fill="none" stroke="#9a3b82" stroke-miterlimit="10" stroke-width="2"/>
        <path id="Path_640" data-name="Path 640" d="M1140.8,939.407a12.948,12.948,0,0,1,9.537-15.622h0a12.919,12.919,0,0,1,15.349,8.6l5.48,17.689c3.023,9.791,17.124,9.03,19.094-1.034l3.159-16.246" transform="translate(-1087.864 -858.274)" fill="none" stroke="#ffcf2d" stroke-miterlimit="10" stroke-width="2"/>
        <circle id="Ellipse_137" data-name="Ellipse 137" cx="2.36" cy="2.36" r="2.36" transform="translate(103.932 70.25)" fill="none" stroke="#66b0f0" stroke-miterlimit="10" stroke-width="2"/>
      </g>
    </g>
  </g>
</svg>
