<svg id="Icon_ionic-ios-rocket" data-name="Icon ionic-ios-rocket" xmlns="http://www.w3.org/2000/svg" width="49.571" height="49.53" viewBox="0 0 49.571 49.53">
  <path id="Path_301" data-name="Path 301" d="M3.627,4.044a.526.526,0,0,1,.393-.405C10.5,2.055,25.475,7.7,33.587,15.814a35.067,35.067,0,0,1,3.943,4.658,14.673,14.673,0,0,1,7.136.893c6.016,2.645,7.767,9.554,8.256,12.52a1.067,1.067,0,0,1-1.167,1.239l-9.661-1.06a21.476,21.476,0,0,1-.131,2.18,2.162,2.162,0,0,1-.631,1.322L37.59,41.307a2.162,2.162,0,0,1-1.322.631,21.436,21.436,0,0,1-2.168.131l1.06,9.649a1.067,1.067,0,0,1-1.239,1.167c-2.966-.477-9.888-2.228-12.52-8.244a14.739,14.739,0,0,1-.905-7.112,35.123,35.123,0,0,1-4.67-3.943C7.677,25.487,2.066,10.846,3.627,4.044ZM23.068,23.093a5.088,5.088,0,1,0-7.2,0A5.083,5.083,0,0,0,23.068,23.093Z" transform="translate(-3.366 -3.372)" fill="#f1913f"/>
  <path id="Path_302" data-name="Path 302" d="M6.48,29.123h0a4.519,4.519,0,0,0,2.359.953,3.206,3.206,0,0,0,3.693-3.693,4.43,4.43,0,0,0-.941-2.347l-.012-.012a.4.4,0,0,1,.334-.679,5.476,5.476,0,0,1,3.2,1.561c2.144,2.144,2.347,10.1,2.347,10.1s-7.97-.2-10.114-2.347a5.44,5.44,0,0,1-1.561-3.2A.408.408,0,0,1,6.48,29.123Z" transform="translate(28.007 10.492)" fill="#f1913f"/>
</svg>
