<svg xmlns="http://www.w3.org/2000/svg" width="58.653" height="73.316" viewBox="0 0 58.653 73.316">
  <path id="Icon_awesome-chess-knight" data-name="Icon awesome-chess-knight" d="M2.9,38.98l6.206,2.759a4.888,4.888,0,0,0,3.8.072l1.952-.782A4.888,4.888,0,0,0,17.726,37.9l1.408-4.682a3.666,3.666,0,0,1,1.917-2.39l3.379-1.692V36.82a7.332,7.332,0,0,1-4.054,6.559l-8.739,4.375a12.219,12.219,0,0,0-6.75,10.93V60.9H53.744V31.576A29.324,29.324,0,0,0,24.429,2.25H1.833A1.833,1.833,0,0,0,0,4.083,2.581,2.581,0,0,0,.273,5.241l2.17,4.341L1.069,10.956A3.666,3.666,0,0,0,0,13.553V34.511A4.888,4.888,0,0,0,2.9,38.98Zm5.04-22.067a3.055,3.055,0,1,1-3.055,3.055,3.055,3.055,0,0,1,3.055-3.055ZM56.209,65.79H2.444A2.444,2.444,0,0,0,0,68.234v4.888a2.444,2.444,0,0,0,2.444,2.444H56.209a2.444,2.444,0,0,0,2.444-2.444V68.234A2.444,2.444,0,0,0,56.209,65.79Z" transform="translate(0 -2.25)" fill="#fff"/>
</svg>
