<svg xmlns="http://www.w3.org/2000/svg" width="69.211" height="79.107" viewBox="0 0 69.211 79.107">
  <path id="Icon_awesome-chess-king" data-name="Icon awesome-chess-king" d="M61.8,69.219H7.414a2.472,2.472,0,0,0-2.472,2.472v4.944a2.472,2.472,0,0,0,2.472,2.472H61.8a2.472,2.472,0,0,0,2.472-2.472V71.691A2.472,2.472,0,0,0,61.8,69.219Zm2.472-44.5H39.552V17.3h6.18a1.236,1.236,0,0,0,1.236-1.236V8.652a1.236,1.236,0,0,0-1.236-1.236h-6.18V1.236A1.236,1.236,0,0,0,38.316,0H30.9a1.236,1.236,0,0,0-1.236,1.236v6.18h-6.18a1.236,1.236,0,0,0-1.236,1.236v7.416A1.236,1.236,0,0,0,23.483,17.3h6.18v7.416H4.942A4.944,4.944,0,0,0,.227,31.139L11.518,64.275H57.7L68.988,31.139a4.944,4.944,0,0,0-4.716-6.418Z" transform="translate(-0.002)" fill="#fff"/>
</svg>
