<svg xmlns="http://www.w3.org/2000/svg" width="95.888" height="95.887" viewBox="0 0 95.888 95.887">
  <path id="Icon_awesome-chess-queen" data-name="Icon awesome-chess-queen" d="M47.944,20.975A10.488,10.488,0,1,0,37.456,10.488,10.488,10.488,0,0,0,47.944,20.975ZM80.905,83.9H14.982a3,3,0,0,0-3,3v5.993a3,3,0,0,0,3,3H80.905a3,3,0,0,0,3-3V86.9A3,3,0,0,0,80.905,83.9ZM94.552,34.49l-5.339-2.982a3.063,3.063,0,0,0-4.174.876A8.913,8.913,0,0,1,76.193,35.8c-4.334-.8-7.274-4.91-7.274-9.317a2.51,2.51,0,0,0-2.51-2.51H59.149a2.437,2.437,0,0,0-2.408,1.856,8.989,8.989,0,0,1-17.593,0,2.429,2.429,0,0,0-2.408-1.856H29.478a2.51,2.51,0,0,0-2.51,2.51c0,4.811-3.558,9.13-8.366,9.456a8.9,8.9,0,0,1-7.78-3.586,3.035,3.035,0,0,0-4.137-.85l-5.351,3A3,3,0,0,0,.317,38.331L19.522,77.909H76.365L95.571,38.323A3,3,0,0,0,94.552,34.49Z" transform="translate(0)" fill="#1d62c1"/>
</svg>
