<svg xmlns="http://www.w3.org/2000/svg" width="60.924" height="60.924" viewBox="0 0 60.924 60.924">
  <path id="Icon_feather-message-circle" data-name="Icon feather-message-circle" d="M51.963,27.425a24.192,24.192,0,0,0-2.6-10.97A24.538,24.538,0,0,0,27.425,2.887a24.192,24.192,0,0,0-10.97,2.6L0,0,5.485,16.455a24.192,24.192,0,0,0-2.6,10.97,24.538,24.538,0,0,0,13.568,21.94,24.192,24.192,0,0,0,10.97,2.6h1.443A24.48,24.48,0,0,0,51.963,28.868Z" transform="translate(0 51.009) rotate(-79)" fill="#efc6cd"/>
</svg>
