<svg xmlns="http://www.w3.org/2000/svg" width="385.634" height="353.145" viewBox="0 0 385.634 353.145">
  <g id="illustration-mobile" transform="translate(-1004.116 -445.862)">
    <g id="LAMP" transform="translate(1047.659 446.863)">
      <path id="Path_1231" data-name="Path 1231" d="M1784.939,519l26.762,25.829,26.9,145.6H1586.3Z" transform="translate(-1586.3 -509.245)" fill="#ffcf2d"/>
      <g id="Group_492" data-name="Group 492" transform="translate(198.788)">
        <g id="Group_491" data-name="Group 491">
          <path id="Path_1232" data-name="Path 1232" d="M3083.143,482.245l-26.843-25.91,4.49-4.665c6.613-6.87,18.527-6.085,25.4.514h0c6.87,6.613,8.073,18.526,1.46,25.4Z" transform="translate(-3056.3 -446.863)" fill="#fff" stroke="#ffcf2d" stroke-linecap="round" stroke-miterlimit="10" stroke-width="2"/>
          <line id="Line_199" data-name="Line 199" x1="26.857" y1="25.91" transform="translate(4.476 4.806)" fill="none" stroke="#ffcf2d" stroke-linecap="round" stroke-miterlimit="10" stroke-width="2"/>
        </g>
        <path id="Path_1233" data-name="Path 1233" d="M3288.2,468.239l3-2.3a9.083,9.083,0,0,1,12.833,1.826l73.781,89.82-37.77,84.235" transform="translate(-3256.84 -461.743)" fill="none" stroke="#3fb1b5" stroke-linecap="round" stroke-miterlimit="10" stroke-width="2"/>
        <circle id="Ellipse_293" data-name="Ellipse 293" cx="4.138" cy="4.138" r="4.138" transform="translate(115.635 92.151)" fill="#fff" stroke="#ffcf2d" stroke-linecap="round" stroke-miterlimit="10" stroke-width="2"/>
        <path id="Path_1234" data-name="Path 1234" d="M3526.808,1708.9h20.163a10.5,10.5,0,0,1,10.494,10.494v.3H3516.3v-.3A10.516,10.516,0,0,1,3526.808,1708.9Z" transform="translate(-3454.095 -1538.235)" fill="#fff" stroke="#ffcf2d" stroke-linecap="round" stroke-miterlimit="10" stroke-width="2"/>
      </g>
    </g>
    <g id="COMPUTER" transform="translate(1049.846 490.967)">
      <g id="COMPUTER_1_" transform="translate(35.312 0)">
        <path id="Path_1235" data-name="Path 1235" d="M1999.925,879.642H1872.282a8.674,8.674,0,0,1-8.682-8.682V781.682a8.674,8.674,0,0,1,8.682-8.682h127.643a8.674,8.674,0,0,1,8.682,8.682v89.265A8.677,8.677,0,0,1,1999.925,879.642Z" transform="translate(-1863.6 -773)" fill="#fff" stroke="#3fb1b5" stroke-linecap="round" stroke-miterlimit="10" stroke-width="6"/>
        <path id="Path_1236" data-name="Path 1236" d="M2042.207,910.6H1915.794a3.4,3.4,0,0,1-3.394-3.394V821.794a3.4,3.4,0,0,1,3.394-3.394h126.413a3.4,3.4,0,0,1,3.394,3.394v85.4A3.391,3.391,0,0,1,2042.207,910.6Z" transform="translate(-1905.801 -812.261)" fill="#66b0f0" stroke="#66b0f0" stroke-linejoin="round" stroke-miterlimit="10" stroke-width="6"/>
        <g id="Group_493" data-name="Group 493" transform="translate(11.332 9.737)">
          <path id="Path_1237" data-name="Path 1237" d="M1950.592,849.381h-2a1.192,1.192,0,0,1-1.19-1.19v-2a1.192,1.192,0,0,1,1.19-1.19h2a1.192,1.192,0,0,1,1.19,1.19v2A1.2,1.2,0,0,1,1950.592,849.381Z" transform="translate(-1947.4 -845)" fill="none" stroke="#fff" stroke-linecap="round" stroke-miterlimit="10" stroke-width="2"/>
          <path id="Path_1238" data-name="Path 1238" d="M2017.891,849.381h-2a1.192,1.192,0,0,1-1.19-1.19v-2a1.192,1.192,0,0,1,1.19-1.19h2a1.192,1.192,0,0,1,1.19,1.19v2A1.192,1.192,0,0,1,2017.891,849.381Z" transform="translate(-2005.599 -845)" fill="none" stroke="#fff" stroke-linecap="round" stroke-miterlimit="10" stroke-width="2"/>
          <path id="Path_1239" data-name="Path 1239" d="M2085.191,849.381h-2a1.192,1.192,0,0,1-1.19-1.19v-2a1.192,1.192,0,0,1,1.19-1.19h2a1.192,1.192,0,0,1,1.19,1.19v2A1.184,1.184,0,0,1,2085.191,849.381Z" transform="translate(-2063.798 -845)" fill="none" stroke="#fff" stroke-linecap="round" stroke-miterlimit="10" stroke-width="2"/>
        </g>
        <g id="Group_494" data-name="Group 494" transform="translate(49.9 106.642)">
          <path id="Path_1240" data-name="Path 1240" d="M2282.148,1592.04H2232.6l9.723-30.44h30.089Z" transform="translate(-2232.6 -1561.6)" fill="#fff" stroke="#3fb1b5" stroke-linecap="round" stroke-miterlimit="10" stroke-width="2"/>
          <path id="Path_1241" data-name="Path 1241" d="M2261.4,1579.856l5.828-18.256h30.089Z" transform="translate(-2257.505 -1561.6)" fill="#3fb1b5"/>
        </g>
        <g id="Group_495" data-name="Group 495" transform="translate(100.881 10.426)">
          <path id="Path_1242" data-name="Path 1242" d="M2637.769,873.819h-24.085a4.081,4.081,0,0,1-4.084-4.084V854.184a4.08,4.08,0,0,1,4.084-4.084h24.085a4.08,4.08,0,0,1,4.084,4.084v15.551A4.08,4.08,0,0,1,2637.769,873.819Z" transform="translate(-2609.6 -850.1)" fill="none" stroke="#fff" stroke-linecap="round" stroke-miterlimit="10" stroke-width="2"/>
          <line id="Line_200" data-name="Line 200" x2="18.378" transform="translate(6.883 5.544)" fill="none" stroke="#fff" stroke-linecap="round" stroke-miterlimit="10" stroke-width="2"/>
          <line id="Line_201" data-name="Line 201" x2="18.378" transform="translate(6.883 9.737)" fill="none" stroke="#fff" stroke-linecap="round" stroke-miterlimit="10" stroke-width="2"/>
          <line id="Line_202" data-name="Line 202" x2="18.378" transform="translate(6.883 13.929)" fill="none" stroke="#fff" stroke-linecap="round" stroke-miterlimit="10" stroke-width="2"/>
          <line id="Line_203" data-name="Line 203" x2="18.378" transform="translate(6.883 18.121)" fill="none" stroke="#fff" stroke-linecap="round" stroke-miterlimit="10" stroke-width="2"/>
        </g>
      </g>
      <g id="TEACHER" transform="translate(0 11.17)">
        <g id="SHIRT" transform="translate(9.226 32.753)">
          <path id="Path_1243" data-name="Path 1243" d="M1832.489,1152.217H1736.76l-5.612,8.046a16.12,16.12,0,0,1-26.262.257L1670.7,1113.5c1.433,1.785,7.992-.2,14.24-4.314,6.342-4.179,10.44-9.439,9.155-11.386l23.706,30.21,7.262-12.82a14.343,14.343,0,0,1,9.128-6.721l24.707-5.233h21.3l23.476,5.179a14.394,14.394,0,0,1,9.507,7.289Z" transform="translate(-1670.7 -1097.8)" fill="#fff" stroke="#3fb1b5" stroke-miterlimit="10" stroke-width="2"/>
          <line id="Line_204" data-name="Line 204" x1="6.802" y1="13.428" transform="translate(128.712 40.434)" fill="none" stroke="#3fb1b5" stroke-linecap="round" stroke-miterlimit="10" stroke-width="2"/>
          <line id="Line_205" data-name="Line 205" y1="13.293" x2="6.734" transform="translate(65.519 41.827)" fill="none" stroke="#3fb1b5" stroke-linecap="round" stroke-miterlimit="10" stroke-width="2"/>
          <line id="Line_206" data-name="Line 206" x2="15.43" y2="19.73" transform="translate(37.878 18.486)" fill="none" stroke="#3fb1b5" stroke-linecap="round" stroke-miterlimit="10" stroke-width="2"/>
          <path id="Path_1244" data-name="Path 1244" d="M2421.3,1161.181l5.68,6.91,12.712-10.791" transform="translate(-2319.797 -1149.254)" fill="none" stroke="#3fb1b5" stroke-linecap="round" stroke-miterlimit="10" stroke-width="2"/>
          <path id="Path_1245" data-name="Path 1245" d="M2264.587,1161.316l-5.517,7.045L2245.1,1157.3" transform="translate(-2167.424 -1149.254)" fill="none" stroke="#3fb1b5" stroke-linecap="round" stroke-miterlimit="10" stroke-width="2"/>
          <path id="Path_1246" data-name="Path 1246" d="M1727.684,1142.5c1.285,1.961-2.826,7.289-9.209,11.521-6.275,4.165-12.928,6.167-14.375,4.368" transform="translate(-1699.584 -1136.455)" fill="none" stroke="#3fb1b5" stroke-linecap="round" stroke-miterlimit="10" stroke-width="2"/>
          <circle id="Ellipse_294" data-name="Ellipse 294" cx="1.528" cy="1.528" r="1.528" transform="translate(22.326 6.41)" fill="none" stroke="#3fb1b5" stroke-linecap="round" stroke-miterlimit="10" stroke-width="2"/>
          <circle id="Ellipse_295" data-name="Ellipse 295" cx="1.528" cy="1.528" r="1.528" transform="translate(97.785 16.011)" fill="none" stroke="#3fb1b5" stroke-linecap="round" stroke-miterlimit="10" stroke-width="2"/>
          <circle id="Ellipse_296" data-name="Ellipse 296" cx="1.528" cy="1.528" r="1.528" transform="translate(97.785 28.317)" fill="none" stroke="#3fb1b5" stroke-linecap="round" stroke-miterlimit="10" stroke-width="2"/>
          <path id="Path_1247" data-name="Path 1247" d="M2114.1,1508.9l6.1-8.7v8.7Z" transform="translate(-2054.139 -1445.783)" fill="#3fb1b5"/>
        </g>
        <g id="ARM">
          <path id="Path_1248" data-name="Path 1248" d="M1682.044,1101.529c-6.247,4.111-12.806,6.1-14.24,4.314a.56.56,0,0,1-.068-.095,1.978,1.978,0,0,1,0-1.8c.933-2.448,4.787-6.234,9.682-9.453a33.677,33.677,0,0,1,10.4-4.909c1.542-.311,2.691-.216,3.246.379h0l.135.162h0C1692.471,1092.076,1688.387,1097.35,1682.044,1101.529Z" transform="translate(-1658.727 -1057.796)" fill="#fe5244"/>
          <path id="Path_1249" data-name="Path 1249" d="M1625.792,899.333a33.724,33.724,0,0,1-9.98,4.652h0l-12.347-17.418a5.384,5.384,0,0,1,1.3-7.519l11.116-7.816-6.3-10.724a3.258,3.258,0,0,1,1.177-4.476,3.209,3.209,0,0,1,1.623-.433,3.254,3.254,0,0,1,2.745,1.5l19.7,30.643.135.216h0C1636.218,889.881,1632.134,895.155,1625.792,899.333Z" transform="translate(-1602.475 -855.6)" fill="#e57281"/>
          <path id="Path_1250" data-name="Path 1250" d="M1670.7,972.1l6.883,10.67a2.16,2.16,0,0,1-.649,2.975l-1.528,1a2.162,2.162,0,0,1-3-.622l-6.5-9.737" transform="translate(-1657.323 -956.346)" fill="none" stroke="#9a3b82" stroke-linecap="round" stroke-miterlimit="10" stroke-width="2"/>
          <path id="Path_1251" data-name="Path 1251" d="M1681.717,1075.6a2.186,2.186,0,0,1-.649,3.029l-1.393.879a2.169,2.169,0,0,1-2.975-.636" transform="translate(-1666.662 -1045.849)" fill="none" stroke="#9a3b82" stroke-linecap="round" stroke-miterlimit="10" stroke-width="2"/>
          <path id="Path_1252" data-name="Path 1252" d="M1615.218,1029.2l6.369,9.466a2.166,2.166,0,0,1-.662,3.029l-1.3.717a2.168,2.168,0,0,1-2.934-.582l-3.692-5.206" transform="translate(-1611.577 -1005.724)" fill="none" stroke="#9a3b82" stroke-linecap="round" stroke-miterlimit="10" stroke-width="2"/>
          <path id="Path_1253" data-name="Path 1253" d="M1704.187,998.062l-3.232-5.017a3.521,3.521,0,0,0-4.936-1.014L1688,997.467s2.326,4.179,7.979.865l1.893,3.016h0a8.2,8.2,0,0,0-2.461,11.427Z" transform="translate(-1676.434 -973.058)" fill="#e57281"/>
          <path id="Path_1254" data-name="Path 1254" d="M1703.768,999.062l-3.232-5.017a3.522,3.522,0,0,0-4.936-1.014l-7.6,5.3s2.326,4.179,7.979.865l1.893,3.016h0a8.2,8.2,0,0,0-2.461,11.427" transform="translate(-1676.434 -973.923)" fill="none" stroke="#9a3b82" stroke-linecap="round" stroke-miterlimit="10" stroke-width="2"/>
          <path id="Path_1255" data-name="Path 1255" d="M1691.45,1101.616a33.72,33.72,0,0,1-9.98,4.652h0l-3.07-4.327a36.045,36.045,0,0,1,8.425-7.343,33.679,33.679,0,0,1,10.4-4.909c1.541-.311,2.691-.216,3.245.379h0l.135.162h0c.013.027.027.041.041.068s.013.027.027.054.027.041.041.068C1701.633,1092.488,1697.589,1097.559,1691.45,1101.616Z" transform="translate(-1668.133 -1057.882)" fill="#9a3b82"/>
        </g>
        <g id="HEAD_2_" transform="translate(91.432 2)">
          <g id="Group_496" data-name="Group 496" transform="translate(5.923 24.289)">
            <path id="Path_1256" data-name="Path 1256" d="M2343.839,1050v11.887c0,3.448-4.787,6.234-10.669,6.234s-10.669-2.786-10.669-6.234V1050Z" transform="translate(-2322.487 -1050)" fill="#e57281"/>
            <path id="Path_1257" data-name="Path 1257" d="M2325.538,1066.3c-1.934-1.122-3.137-2.691-3.137-4.408V1050h21.353v3.3a8.4,8.4,0,0,1-5.247,7.776Z" transform="translate(-2322.4 -1050)" fill="#9a3b82"/>
          </g>
          <path id="Path_1258" data-name="Path 1258" d="M2311.826,962.82v.2a3.717,3.717,0,0,1-3.719,3.719h-2.448a7.648,7.648,0,0,1-7.424,5.8h-6.058a7.617,7.617,0,0,1-7.411-5.8h-2.448a3.717,3.717,0,0,1-3.719-3.719v-.2a3.717,3.717,0,0,1,3.719-3.719h2.218v-2.935a6.225,6.225,0,0,1,5.328-6.167,7.332,7.332,0,0,0,6.748,3.611,21.212,21.212,0,0,0,5.179-.865,3.206,3.206,0,0,1,3.989,2.258,6.49,6.49,0,0,1,.108,1.149v2.935h2.218A3.737,3.737,0,0,1,2311.826,962.82Z" transform="translate(-2278.6 -939.234)" fill="#e57281"/>
          <path id="Path_1259" data-name="Path 1259" d="M2323.647,890.24h-1.7v-3.259a3.292,3.292,0,0,0-.108-.825,3.206,3.206,0,0,0-3.99-2.258,21.1,21.1,0,0,1-5.179.865,7.333,7.333,0,0,1-6.748-3.611,6.225,6.225,0,0,0-5.328,6.167v2.935h-2.123s-2.434-8.8-.608-11.292c1.8-2.448,3.962-1.379,3.962-1.379s-1.3-7.329,5.95-7.194,16.647,8.533,17.337,10.075C2326.189,882.829,2323.647,890.24,2323.647,890.24Z" transform="translate(-2294.667 -870.386)" fill="#9a3b82"/>
          <g id="Group_499" data-name="Group 499" transform="translate(2.529 16.173)">
            <g id="Group_497" data-name="Group 497" transform="translate(0 5.493)">
              <path id="Path_1260" data-name="Path 1260" d="M2486.4,1033.21a2.611,2.611,0,0,1,2.61-2.61" transform="translate(-2460.828 -1030.6)" fill="none" stroke="#9a3b82" stroke-linecap="round" stroke-miterlimit="10" stroke-width="5"/>
              <path id="Path_1261" data-name="Path 1261" d="M2299.91,1033.21a2.611,2.611,0,0,0-2.61-2.61" transform="translate(-2297.3 -1030.6)" fill="none" stroke="#9a3b82" stroke-linecap="round" stroke-miterlimit="10" stroke-width="5"/>
            </g>
            <g id="Group_498" data-name="Group 498" transform="translate(6.68)">
              <path id="Path_1262" data-name="Path 1262" d="M2427.168,990.742a4.69,4.69,0,0,0-4.368-.392" transform="translate(-2412.51 -989.982)" fill="none" stroke="#9a3b82" stroke-linecap="round" stroke-miterlimit="10" stroke-width="5"/>
              <path id="Path_1263" data-name="Path 1263" d="M2346.7,990.742a4.689,4.689,0,0,1,4.368-.392" transform="translate(-2346.7 -989.982)" fill="none" stroke="#9a3b82" stroke-linecap="round" stroke-miterlimit="10" stroke-width="5"/>
              <path id="Path_1264" data-name="Path 1264" d="M2399.233,1069.4s-1.042,2.245-4.233,1.068" transform="translate(-2388.469 -1058.66)" fill="none" stroke="#9a3b82" stroke-linecap="round" stroke-miterlimit="10" stroke-width="5"/>
              <path id="Path_1265" data-name="Path 1265" d="M2393.9,1060.8c.825.054,2.083,0,2.083,0" transform="translate(-2387.517 -1051.223)" fill="none" stroke="#9a3b82" stroke-linecap="round" stroke-miterlimit="10" stroke-width="5"/>
              <ellipse id="Ellipse_297" data-name="Ellipse 297" cx="0.676" cy="1.136" rx="0.676" ry="1.136" transform="translate(11.806 4.127)" fill="#9a3b82"/>
              <ellipse id="Ellipse_298" data-name="Ellipse 298" cx="0.676" cy="1.136" rx="0.676" ry="1.136" transform="translate(2.11 4.127)" fill="#9a3b82"/>
            </g>
          </g>
          <g id="Group_500" data-name="Group 500" transform="translate(7.857 18.028)">
            <path id="Path_1266" data-name="Path 1266" d="M2342.448,1010.935h-4.26a1.483,1.483,0,0,1-1.488-1.488v-4.26a1.483,1.483,0,0,1,1.488-1.488h4.26a1.483,1.483,0,0,1,1.487,1.488v4.26A1.483,1.483,0,0,1,2342.448,1010.935Z" transform="translate(-2336.7 -1003.7)" fill="none" stroke="#fff" stroke-miterlimit="10" stroke-width="2"/>
            <path id="Path_1267" data-name="Path 1267" d="M2419.548,1010.935h-4.26a1.483,1.483,0,0,1-1.488-1.488v-4.26a1.483,1.483,0,0,1,1.488-1.488h4.26a1.483,1.483,0,0,1,1.488,1.488v4.26A1.492,1.492,0,0,1,2419.548,1010.935Z" transform="translate(-2403.374 -1003.7)" fill="none" stroke="#fff" stroke-miterlimit="10" stroke-width="2"/>
            <line id="Line_207" data-name="Line 207" x2="3.178" transform="translate(7.248 2.813)" fill="none" stroke="#fff" stroke-miterlimit="10" stroke-width="2"/>
          </g>
        </g>
      </g>
      <g id="ICON" transform="translate(99.37 80.367)">
        <path id="Path_1268" data-name="Path 1268" d="M2354.515,1380.025h-14.781a2.432,2.432,0,0,1-2.434-2.434v-7.857a2.433,2.433,0,0,1,2.434-2.434h14.781a2.433,2.433,0,0,1,2.434,2.434v7.857A2.433,2.433,0,0,1,2354.515,1380.025Z" transform="translate(-2337.301 -1367.3)" fill="none" stroke="#66b0f0" stroke-linejoin="round" stroke-miterlimit="10" stroke-width="6"/>
        <g id="Group_501" data-name="Group 501" transform="translate(3.746 3.164)">
          <path id="Path_1269" data-name="Path 1269" d="M2371.45,1397.1h-5a1.449,1.449,0,0,1-1.447-1.447v-3.5a1.449,1.449,0,0,1,1.447-1.447h5a1.448,1.448,0,0,1,1.447,1.447v3.5A1.448,1.448,0,0,1,2371.45,1397.1Z" transform="translate(-2365 -1390.7)" fill="#66b0f0"/>
          <path id="Path_1270" data-name="Path 1270" d="M2434.518,1397.109l-1.542-1.028a1.566,1.566,0,0,1-.676-1.3v-1.542a1.566,1.566,0,0,1,.676-1.3l1.542-1.028a.544.544,0,0,1,.838.487v5.233A.54.54,0,0,1,2434.518,1397.109Z" transform="translate(-2423.199 -1390.808)" fill="#66b0f0"/>
        </g>
      </g>
    </g>
    <g id="TABLE" transform="translate(1005.116 628.32)">
      <line id="Line_208" data-name="Line 208" x1="358.995" fill="none" stroke="#3fb1b5" stroke-linecap="round" stroke-miterlimit="10" stroke-width="2"/>
      <g id="Group_503" data-name="Group 503" transform="translate(18.526 2.367)">
        <path id="Path_1271" data-name="Path 1271" d="M1505.755,1806.2v166.955h-9.425v-31.779a5.373,5.373,0,0,0-5.369-5.369h-67.466a5.373,5.373,0,0,0-5.369,5.369v31.779H1408.7V1806.2Z" transform="translate(-1408.7 -1806.2)" fill="#fff" stroke="#3fb1b5" stroke-linecap="round" stroke-miterlimit="10" stroke-width="2"/>
        <path id="Path_1272" data-name="Path 1272" d="M1506.039,1806.2v44.3l-97.339,80.151.014-124.452Z" transform="translate(-1408.7 -1806.2)" fill="#d0f0e4"/>
        <path id="Path_1273" data-name="Path 1273" d="M1556.69,1867.685v30.278a5.079,5.079,0,0,1-5.084,5.085h-68.021a5.079,5.079,0,0,1-5.085-5.085v-30.278a5.079,5.079,0,0,1,5.085-5.085h68.021A5.079,5.079,0,0,1,1556.69,1867.685Z" transform="translate(-1469.061 -1854.973)" fill="none" stroke="#3fb1b5" stroke-linecap="round" stroke-miterlimit="10" stroke-width="2"/>
        <path id="Path_1274" data-name="Path 1274" d="M1672.476,2269.988h-33.483l-1.393-9.588h33.5Z" transform="translate(-1606.646 -2198.979)" fill="#ffcf2d"/>
        <g id="Group_502" data-name="Group 502" transform="translate(47.641 55.89)">
          <path id="Path_1275" data-name="Path 1275" d="M1797.052,2219.5a7.555,7.555,0,0,0-7.559,7.559v7.56H1761v-7.56a7.554,7.554,0,0,1,7.559-7.559Z" transform="translate(-1761 -2219.5)" fill="#fff" stroke="#3fb1b5" stroke-linecap="round" stroke-miterlimit="10" stroke-width="2"/>
          <path id="Path_1276" data-name="Path 1276" d="M1851.282,2225.031h-28.493a7.557,7.557,0,0,0-7.289-5.531h28.493A7.569,7.569,0,0,1,1851.282,2225.031Z" transform="translate(-1808.13 -2219.5)" fill="#fff" stroke="#3fb1b5" stroke-linecap="round" stroke-miterlimit="10" stroke-width="2"/>
        </g>
        <path id="Path_1277" data-name="Path 1277" d="M1556.69,2336.384v30.278a5.079,5.079,0,0,1-5.084,5.085h-68.021a5.079,5.079,0,0,1-5.085-5.085v-30.278a5.079,5.079,0,0,1,5.085-5.084h68.021A5.079,5.079,0,0,1,1556.69,2336.384Z" transform="translate(-1469.061 -2260.291)" fill="none" stroke="#3fb1b5" stroke-linecap="round" stroke-miterlimit="10" stroke-width="2"/>
        <path id="Path_1278" data-name="Path 1278" d="M1664.6,1979.768a4.366,4.366,0,0,1,4.368-4.368H1688.1a4.366,4.366,0,0,1,4.368,4.368" transform="translate(-1629.995 -1952.519)" fill="none" stroke="#3fb1b5" stroke-linecap="round" stroke-miterlimit="10" stroke-width="2"/>
        <path id="Path_1279" data-name="Path 1279" d="M1664.6,2448.468a4.366,4.366,0,0,1,4.368-4.368H1688.1a4.366,4.366,0,0,1,4.368,4.368" transform="translate(-1629.995 -2357.837)" fill="none" stroke="#3fb1b5" stroke-linecap="round" stroke-miterlimit="10" stroke-width="2"/>
      </g>
      <rect id="Rectangle_125" data-name="Rectangle 125" width="10.048" height="167.32" transform="translate(334.653 2.367)" fill="#fff" stroke="#3fb1b5" stroke-linecap="round" stroke-miterlimit="10" stroke-width="2"/>
      <line id="Line_209" data-name="Line 209" x2="209.687" transform="translate(173.946 169.686)" fill="none" stroke="#3fb1b5" stroke-linecap="round" stroke-miterlimit="10" stroke-width="2"/>
    </g>
    <g id="PLANT" transform="translate(1021.41 562.285)">
      <path id="Path_1280" data-name="Path 1280" d="M1425.559,1343.473h-6.072s-8.668-36.12-16.282-37.3-8.006,12.725-8.006,12.725.135-21.137,19.162-18.243S1425.559,1343.473,1425.559,1343.473Z" transform="translate(-1394.794 -1300.387)" fill="#fff" stroke="#3fb1b5" stroke-linecap="round" stroke-miterlimit="10" stroke-width="2"/>
      <path id="Path_1281" data-name="Path 1281" d="M1465.9,1307.365s17.35-6.41,18.134,41.353" transform="translate(-1455.933 -1306.173)" fill="none" stroke="#3fb1b5" stroke-linecap="round" stroke-miterlimit="10" stroke-width="2"/>
      <rect id="Rectangle_126" data-name="Rectangle 126" width="28.52" height="23.219" transform="translate(18.784 42.545)" fill="#fe5244"/>
      <path id="Path_1282" data-name="Path 1282" d="M1642.243,1515.753a7.535,7.535,0,0,1-5.99-.189,10.423,10.423,0,0,1-4.03-3.178,13.263,13.263,0,0,1-2.623-8.249h0c0-8.357-6.653-13.6-9.385-2.542-.189.771-.365,1.609-.514,2.542v-.081h0a.337.337,0,0,1,.013-.108v-.054a32.623,32.623,0,0,1,.879-5.193,24.58,24.58,0,0,1,2.177-5.734,14.62,14.62,0,0,1,1.812-2.623,9.825,9.825,0,0,1,7.695-3.543c6.248,0,10.818,7.356,12.563,14.686C1646.367,1507.855,1645.745,1514.225,1642.243,1515.753Z" transform="translate(-1588.934 -1461.591)" fill="#fff" stroke="#3fb1b5" stroke-linecap="round" stroke-miterlimit="10" stroke-width="2"/>
      <path id="Path_1283" data-name="Path 1283" d="M1655.9,1506.407s12.522-8.912,16.2,25.667" transform="translate(-1620.239 -1477.656)" fill="none" stroke="#3fb1b5" stroke-linecap="round" stroke-miterlimit="10" stroke-width="2"/>
      <path id="Path_1284" data-name="Path 1284" d="M1392.194,1354.857c0,2.231-.257,10.764,7.884,11.156s8.952-11.9,8.952-11.9-4-10.872-8.425-11.981C1393.127,1340.252,1392.194,1354.857,1392.194,1354.857Z" transform="translate(-1392.193 -1336.343)" fill="#3fb1b5"/>
      <path id="Path_1285" data-name="Path 1285" d="M1629.6,1558.495h-9.9C1621.986,1544.174,1629.6,1549.556,1629.6,1558.495Z" transform="translate(-1588.934 -1515.949)" fill="#3fb1b5"/>
    </g>
    <g id="LIGHT" transform="translate(1047.672 490.967)">
      <path id="Path_1286" data-name="Path 1286" d="M2019.949,781.682v89.265a8.683,8.683,0,0,1-8.682,8.682H1909.1a16.133,16.133,0,0,1-26.086,0l-.014-.013a8.651,8.651,0,0,1-6.3-3.421l2.353-2.028,60.042-51.82L1996.271,773h15A8.692,8.692,0,0,1,2019.949,781.682Z" transform="translate(-1837.443 -773)" fill="#fff" opacity="0.4"/>
      <path id="Path_1287" data-name="Path 1287" d="M1613.446,1610.073a7.425,7.425,0,0,1-5.991-.189v11.386H1586.4l17.039-14.7,4.03-3.475,3.07-2.65,5.936-5.044C1618.206,1602.784,1617.246,1608.328,1613.446,1610.073Z" transform="translate(-1586.4 -1484.187)" fill="#fff" opacity="0.4"/>
    </g>
    <g id="GIRL" transform="translate(1115.301 505.44)">
      <g id="GIRL_1_">
        <g id="LEGS" transform="translate(50.629 129.384)">
          <g id="RIGHT_LEG" transform="translate(43.761 42.111)">
            <path id="Path_1294" data-name="Path 1294" d="M2828.829,2148.2v75.269h-17.39l-11.075-30.927L2784.5,2148.2Z" transform="translate(-2784.5 -2148.2)" fill="#a0505a"/>
            <path id="Path_1295" data-name="Path 1295" d="M2784.5,2148.2h44.328v24.166l-39.054-9.439Z" transform="translate(-2784.5 -2148.2)" fill="#73325a"/>
            <g id="Group_515" data-name="Group 515" transform="translate(15.862 44.342)">
              <path id="Path_1296" data-name="Path 1296" d="M2930.266,2476.1v30.927h-17.39L2901.8,2476.1S2910.766,2481.049,2930.266,2476.1Z" transform="translate(-2901.8 -2476.1)" fill="none" stroke="#fff" stroke-linecap="round" stroke-miterlimit="10" stroke-width="2"/>
              <circle id="Ellipse_299" data-name="Ellipse 299" cx="1.974" cy="1.974" r="1.974" transform="translate(7.073 3.313)" fill="none" stroke="#fff" stroke-linecap="round" stroke-miterlimit="10" stroke-width="2"/>
              <circle id="Ellipse_300" data-name="Ellipse 300" cx="1.974" cy="1.974" r="1.974" transform="translate(16.485 9.682)" fill="none" stroke="#fff" stroke-linecap="round" stroke-miterlimit="10" stroke-width="2"/>
              <circle id="Ellipse_301" data-name="Ellipse 301" cx="1.974" cy="1.974" r="1.974" transform="translate(23.489 2.61)" fill="none" stroke="#fff" stroke-linecap="round" stroke-miterlimit="10" stroke-width="2"/>
              <circle id="Ellipse_302" data-name="Ellipse 302" cx="1.974" cy="1.974" r="1.974" transform="translate(20.717 17.093)" fill="none" stroke="#fff" stroke-linecap="round" stroke-miterlimit="10" stroke-width="2"/>
              <circle id="Ellipse_303" data-name="Ellipse 303" cx="1.974" cy="1.974" r="1.974" transform="translate(9.047 13.496)" fill="none" stroke="#fff" stroke-linecap="round" stroke-miterlimit="10" stroke-width="2"/>
              <circle id="Ellipse_304" data-name="Ellipse 304" cx="1.974" cy="1.974" r="1.974" transform="translate(12.265 24.314)" fill="none" stroke="#fff" stroke-linecap="round" stroke-miterlimit="10" stroke-width="2"/>
            </g>
            <g id="Group_517" data-name="Group 517" transform="translate(10.248 68.737)">
              <path id="Path_1297" data-name="Path 1297" d="M2902.583,2677.068l-11.927,24.761a10.792,10.792,0,0,1-9.939,6.586H2865.5a5.32,5.32,0,0,1-4.773-7.546l15.294-36.891a11.653,11.653,0,0,1,4.232-5.423,11.5,11.5,0,0,1,6.559-2.055c3.326,0,6.626,2.258,8.817,4.76l5.3,5.72A9.6,9.6,0,0,1,2902.583,2677.068Z" transform="translate(-2860.28 -2656.5)" fill="#66b0f0"/>
              <path id="Path_1298" data-name="Path 1298" d="M2911.594,2741.235,2899.667,2766a10.792,10.792,0,0,1-9.939,6.586h-16.174a2.978,2.978,0,0,1-2.853-2.218h3.6a10.791,10.791,0,0,0,9.939-6.586l13.753-28.682a7.753,7.753,0,0,1,6.978-4.4,7.424,7.424,0,0,1,7.37,6.437A9.606,9.606,0,0,1,2911.594,2741.235Z" transform="translate(-2869.291 -2720.666)" fill="#fff" stroke="#66b0f0" stroke-linejoin="round" stroke-miterlimit="10" stroke-width="2"/>
              <g id="Group_516" data-name="Group 516" transform="translate(0.165 7.127)">
                <path id="Path_1299" data-name="Path 1299" d="M2900.893,2711.364a10.328,10.328,0,0,0-4.679-1.353,7.639,7.639,0,0,0-6.856,4.314l-14.24,29.7a11.56,11.56,0,0,1-10.669,7.059h-2.624a5.334,5.334,0,0,1-.324-.811h2.948a10.761,10.761,0,0,0,9.926-6.572l.014-.013,14.253-29.71a8.444,8.444,0,0,1,7.586-4.774,10.944,10.944,0,0,1,3.313.7Z" transform="translate(-2861.5 -2709.2)" fill="#fff"/>
              </g>
            </g>
          </g>
          <g id="LEFT_LEG">
            <path id="Path_1300" data-name="Path 1300" d="M2504.655,1878.91l-3.394,44.342-1.515,19.865s-9.885,11.008-21.137,4.219l-5.206-24.071-11.914-55.079a26.1,26.1,0,0,1,22.056-31.387Z" transform="translate(-2460.893 -1836.8)" fill="#a0505a"/>
            <g id="Group_518" data-name="Group 518" transform="translate(12.51 86.452)">
              <path id="Path_1301" data-name="Path 1301" d="M2581.257,2476.1l-1.515,20.406s-9.885,11.007-21.136,4.219l-5.207-24.612C2566.477,2480.035,2581.257,2476.1,2581.257,2476.1Z" transform="translate(-2553.4 -2476.1)" fill="none" stroke="#fff" stroke-linecap="round" stroke-miterlimit="10" stroke-width="2"/>
              <circle id="Ellipse_305" data-name="Ellipse 305" cx="1.974" cy="1.974" r="1.974" transform="translate(10.345 8.317)" fill="none" stroke="#fff" stroke-linecap="round" stroke-miterlimit="10" stroke-width="2"/>
              <circle id="Ellipse_306" data-name="Ellipse 306" cx="1.974" cy="1.974" r="1.974" transform="translate(22.894 5.287)" fill="none" stroke="#fff" stroke-linecap="round" stroke-miterlimit="10" stroke-width="2"/>
              <circle id="Ellipse_307" data-name="Ellipse 307" cx="1.974" cy="1.974" r="1.974" transform="translate(2.772 2.61)" fill="none" stroke="#fff" stroke-linecap="round" stroke-miterlimit="10" stroke-width="2"/>
              <circle id="Ellipse_308" data-name="Ellipse 308" cx="1.974" cy="1.974" r="1.974" transform="translate(8.371 19.067)" fill="none" stroke="#fff" stroke-linecap="round" stroke-miterlimit="10" stroke-width="2"/>
              <circle id="Ellipse_309" data-name="Ellipse 309" cx="1.974" cy="1.974" r="1.974" transform="translate(17.58 15.119)" fill="none" stroke="#fff" stroke-linecap="round" stroke-miterlimit="10" stroke-width="2"/>
            </g>
            <g id="Group_520" data-name="Group 520" transform="translate(17.702 106.304)">
              <path id="Path_1302" data-name="Path 1302" d="M2625.986,2627.647l-13.036,52.132h-4.111c-.189,0-.365-.013-.554-.027a7.585,7.585,0,0,1-6.4-6l-10.088-46.641c11.251,6.8,21.15-4.206,21.15-4.206Z" transform="translate(-2591.8 -2622.9)" fill="#66b0f0"/>
              <path id="Path_1303" data-name="Path 1303" d="M2731.073,2686.2c2.745-14.5,3.5-25.572-1.23-26.465s-13.158,8.722-15.9,23.219-1.312,27.316,3.421,28.209S2728.328,2700.708,2731.073,2686.2Z" transform="translate(-2696.225 -2654.703)" fill="#fff" stroke="#66b0f0" stroke-linejoin="round" stroke-miterlimit="10" stroke-width="2"/>
              <g id="Group_519" data-name="Group 519" transform="translate(13.523 2.745)">
                <path id="Path_1304" data-name="Path 1304" d="M2694.1,2668.475a70.426,70.426,0,0,0-1.163,20.46c.487,4.084,1.514,6.991,2.921,8.4h-.541c-.189,0-.365-.013-.554-.027-1.271-1.677-2.177-4.49-2.637-8.276a70.7,70.7,0,0,1,1.177-20.7,48.476,48.476,0,0,1,7.789-19.013c2.191-3.029,4.49-5.152,6.586-6.113l1.217.406C2704.068,2645.04,2696.739,2654.56,2694.1,2668.475Z" transform="translate(-2691.803 -2643.2)" fill="#fff"/>
              </g>
            </g>
          </g>
        </g>
        <g id="SKIRT" transform="translate(73.146 123.015)">
          <path id="Path_1305" data-name="Path 1305" d="M2628.4,1796.056l61.692-6.356,61.665,17.3-.527,8.195c-.838,12.928-11.982,22.989-24.937,22.989h-76.77Z" transform="translate(-2628.265 -1789.7)" fill="#fe5244"/>
          <g id="Group_521" data-name="Group 521" transform="translate(0 5.436)">
            <path id="Path_1306" data-name="Path 1306" d="M2865.936,1913.2c0,11.738-11.711,26.1-24.666,26.1H2764.5" transform="translate(-2745.96 -1901.935)" fill="none" stroke="#fff" stroke-linecap="round" stroke-linejoin="round" stroke-miterlimit="10" stroke-width="2"/>
            <path id="Path_1307" data-name="Path 1307" d="M2838.73,1895.9c-1.92,10.48-12.171,21.677-23.395,21.677H2741.5" transform="translate(-2726.07 -1886.975)" fill="none" stroke="#fff" stroke-linecap="round" stroke-linejoin="round" stroke-miterlimit="10" stroke-width="2"/>
            <path id="Path_1308" data-name="Path 1308" d="M2805.336,1877.5c-3.245,8.9-12.049,17.269-21.583,17.269H2712.5" transform="translate(-2700.992 -1871.063)" fill="none" stroke="#fff" stroke-linecap="round" stroke-linejoin="round" stroke-miterlimit="10" stroke-width="2"/>
            <path id="Path_1309" data-name="Path 1309" d="M2776.455,1864.6c-4.26,6.478-11.251,11.576-18.7,11.576H2686.5" transform="translate(-2678.508 -1859.908)" fill="none" stroke="#fff" stroke-linecap="round" stroke-linejoin="round" stroke-miterlimit="10" stroke-width="2"/>
            <path id="Path_1310" data-name="Path 1310" d="M2747.7,1849.8c-4.1,4.125-9.4,6.816-14.943,6.816H2661.5" transform="translate(-2656.889 -1847.109)" fill="none" stroke="#fff" stroke-linecap="round" stroke-linejoin="round" stroke-miterlimit="10" stroke-width="2"/>
            <path id="Path_1311" data-name="Path 1311" d="M2715.057,1829.9a18.944,18.944,0,0,1-9.3,2.61H2634.5" transform="translate(-2633.54 -1829.9)" fill="none" stroke="#fff" stroke-linecap="round" stroke-linejoin="round" stroke-miterlimit="10" stroke-width="2"/>
            <line id="Line_210" data-name="Line 210" x1="21.109" y1="42.124" transform="translate(0 0.92)" fill="none" stroke="#fff" stroke-linecap="round" stroke-linejoin="round" stroke-miterlimit="10" stroke-width="2"/>
          </g>
        </g>
        <g id="HANDS" transform="translate(0 73.913)">
          <g id="RIGHT_HAND" transform="translate(187.797 1.335)">
            <path id="Path_1312" data-name="Path 1312" d="M3487.448,1445.087c-5.815,1.65-11.535,1.163-12.144-.608-.568-1.69,2-4.584,7.208-6.5.257-.094.528-.189.8-.284a23.173,23.173,0,0,1,4.611-1.041c4.368-.554,7.925.23,8.371,1.555C3496.9,1439.976,3493.6,1443.343,3487.448,1445.087Z" transform="translate(-3475.227 -1436.469)" fill="#fff" stroke="#3fb1b5" stroke-linejoin="round" stroke-miterlimit="10" stroke-width="2"/>
            <path id="Path_1313" data-name="Path 1313" d="M3485.736,1486.363H3483.5l-5.856-39.528v-.027l-.149-.987c.284-1.8,3.1-4.341,8.06-5.991a24.073,24.073,0,0,1,7.032-1.231l2.136,5.856.2.554,6.761,18.54A16.982,16.982,0,0,1,3485.736,1486.363Z" transform="translate(-3477.193 -1438.312)" fill="#a0505a"/>
            <path id="Path_1314" data-name="Path 1314" d="M3494.864,1444.875a21.188,21.188,0,0,1-5.449,2.339c-5.031,1.42-10.129.839-11.765-.379v-.027l-.149-.987c.284-1.8,3.1-4.341,8.06-5.991a24.073,24.073,0,0,1,7.032-1.231Z" transform="translate(-3477.193 -1438.312)" fill="#73325a"/>
          </g>
          <g id="LEFT_HAND">
            <path id="Path_1315" data-name="Path 1315" d="M2210.411,1443.463l-7.1,17.661a23.036,23.036,0,0,1-21.38,14.443H2086.5v-8.736a5.065,5.065,0,0,1,3.273-4.746l9.8-3.719a7.808,7.808,0,0,1,2.772-.514h11.129l62.99-6.356,10.872-24.9Z" transform="translate(-2086.5 -1426.6)" fill="#a0505a"/>
            <path id="Path_1316" data-name="Path 1316" d="M2099.372,1701.2l-7.4,2.8a3.836,3.836,0,0,0-2.475,3.584" transform="translate(-2089.094 -1664.066)" fill="none" stroke="#73325a" stroke-linecap="round" stroke-miterlimit="10" stroke-width="2"/>
            <path id="Path_1317" data-name="Path 1317" d="M2099.372,1734.2l-7.4,2.8a3.836,3.836,0,0,0-2.475,3.584" transform="translate(-2089.094 -1692.604)" fill="none" stroke="#73325a" stroke-linecap="round" stroke-miterlimit="10" stroke-width="2"/>
            <line id="Line_211" data-name="Line 211" x1="7.397" y2="2.664" transform="translate(2.88 45.897)" fill="none" stroke="#73325a" stroke-linecap="round" stroke-miterlimit="10" stroke-width="2"/>
            <path id="Path_1318" data-name="Path 1318" d="M2156.8,1561.453s6.924-17.674,9.142-17.377-6.139,16.241-6.139,16.241Z" transform="translate(-2147.294 -1528.187)" fill="#fe5244"/>
            <path id="Path_1319" data-name="Path 1319" d="M2822,1426.7l-1.6,3.638,20.433,23.733,4.233-10.521Z" transform="translate(-2721.155 -1426.687)" fill="#73325a"/>
          </g>
        </g>
        <g id="T-SHIRT" transform="translate(95.324 41.079)">
          <path id="Path_1320" data-name="Path 1320" d="M2884.331,1226.506l8.384,56.526-61.651-17.3-11.075-32.252L2791.4,1212.59l10.034-11.954a47.115,47.115,0,0,1,36.093-16.836h19.812a47.138,47.138,0,0,1,41.353,24.531l6.423,11.116s-1.934-2.84-12.36.014C2883.573,1221.989,2884.331,1226.506,2884.331,1226.506Z" transform="translate(-2791.401 -1183.8)" fill="#3fb1b5"/>
          <line id="Line_212" data-name="Line 212" y1="13.902" x2="3.205" transform="translate(28.588 35.525)" fill="none" stroke="#fff" stroke-linecap="round" stroke-linejoin="round" stroke-miterlimit="10" stroke-width="2"/>
          <line id="Line_213" data-name="Line 213" x1="10.426" y1="64.816" transform="translate(89.333 21.218)" fill="none" stroke="#fff" stroke-linecap="round" stroke-linejoin="round" stroke-miterlimit="10" stroke-width="2"/>
          <line id="Line_214" data-name="Line 214" x2="61.53" y2="17.553" transform="translate(39.649 81.679)" fill="none" stroke="#fff" stroke-linecap="round" stroke-linejoin="round" stroke-miterlimit="10" stroke-width="2"/>
        </g>
        <g id="HEAD" transform="translate(126.393)">
          <path id="NECK" d="M3109.2,1071.686v9.087l16.038-.135V1064.6Z" transform="translate(-3097.294 -1039.64)" fill="#a0505a"/>
          <g id="HEAD_1_" transform="translate(0 4.297)">
            <path id="Path_1321" data-name="Path 1321" d="M3050.4,929.664v.243a4.3,4.3,0,0,1-4.273,4.408h-.947c-.609,2.407-6.018,5.22-9.858,5.22h-4.476A7.951,7.951,0,0,1,3023,930.3l.217-1.312-1.325-.744a1.441,1.441,0,0,1-.446-2.123l2.866-3.786.622-3.732a9.108,9.108,0,0,1,5.193-6.8c1.055,11.887,11.549,13.293,14.321,13.455h1.542A4.409,4.409,0,0,1,3050.4,929.664Z" transform="translate(-3021.154 -911.8)" fill="#a0505a"/>
            <path id="Path_1322" data-name="Path 1322" d="M3184.9,1030.276a3.474,3.474,0,0,1,3.475-3.475" transform="translate(-3162.757 -1011.249)" fill="none" stroke="#73325a" stroke-linecap="round" stroke-miterlimit="10" stroke-width="2"/>
            <ellipse id="Ellipse_310" data-name="Ellipse 310" cx="0.69" cy="1.596" rx="0.69" ry="1.596" transform="translate(6.795 10.386)" fill="#73325a"/>
            <path id="Path_1323" data-name="Path 1323" d="M3068.7,963.882s1.907-.189,3.868,2.515" transform="translate(-3062.27 -956.836)" fill="none" stroke="#73325a" stroke-linecap="round" stroke-miterlimit="10" stroke-width="2"/>
          </g>
          <g id="HAIR" transform="translate(8.985)">
            <path id="Path_1324" data-name="Path 1324" d="M3101.907,897.777h1.542a4.409,4.409,0,0,1,4.408,4.408v.243a4.3,4.3,0,0,1-4.274,4.408l-1.041.73c-4.382,2.813-10.44,13.874-8.952,21.7,1.677,8.8,9.344,10.764,16.43,9.412s12.252-5.477,10.575-14.294a17.577,17.577,0,0,0-.892-3.11c.121.041.23.081.351.122,8.52,2.326,18.526,2.6,21.285-4.057s2.137-13.239-6.153-16.674c-4.814-2-11.359-1.988-16.43-.609,2.556-8.885-1.988-18.77-10.332-19.757-13.1-1.555-20.623,3.854-20.825,4h0C3087.586,885.877,3088.654,897.007,3101.907,897.777Z" transform="translate(-3087.599 -880.025)" fill="#73325a"/>
            <path id="Path_1325" data-name="Path 1325" d="M3276.657,1025.9a18.6,18.6,0,0,1-6.856,9.723,20,20,0,0,1,7.816,11.941" transform="translate(-3245.162 -1006.174)" fill="none" stroke="#fff" stroke-linecap="round" stroke-linejoin="round" stroke-miterlimit="10" stroke-width="2"/>
            <g id="Group_524" data-name="Group 524" transform="translate(11.506 12.451)">
              <g id="Group_522" data-name="Group 522" transform="translate(20.057)">
                <path id="Path_1326" data-name="Path 1326" d="M3324.783,979.078H3321.2v-3.584a3.388,3.388,0,0,1,3.394-3.394h.189a3.388,3.388,0,0,1,3.395,3.394v.189A3.388,3.388,0,0,1,3324.783,979.078Z" transform="translate(-3321.173 -972.1)" fill="none" stroke="#fe5244" stroke-linejoin="round" stroke-miterlimit="10" stroke-width="2"/>
                <path id="Path_1327" data-name="Path 1327" d="M3323.3,1008.993l-2.3-3.651,3.651-2.3a3.915,3.915,0,0,1,5.4,1.217l.216.338a3.915,3.915,0,0,1-1.217,5.4l-.338.216A3.925,3.925,0,0,1,3323.3,1008.993Z" transform="translate(-3321 -998.337)" fill="none" stroke="#fe5244" stroke-linejoin="round" stroke-miterlimit="10" stroke-width="2"/>
              </g>
              <g id="Group_523" data-name="Group 523" transform="translate(0 13.486)">
                <path id="Path_1328" data-name="Path 1328" d="M3173.86,1083.448l2.556-2.448,2.5,2.826a3.387,3.387,0,0,1-.352,4.787l-.149.122a3.388,3.388,0,0,1-4.787-.352l-.122-.149A3.389,3.389,0,0,1,3173.86,1083.448Z" transform="translate(-3172.681 -1079.76)" fill="none" stroke="#fe5244" stroke-linejoin="round" stroke-miterlimit="10" stroke-width="2"/>
                <path id="Path_1329" data-name="Path 1329" d="M3201.649,1077.273l-1.149-4.152,4.151-1.149a3.906,3.906,0,0,1,4.814,2.718l.108.392a3.9,3.9,0,0,1-2.718,4.814l-.393.108A3.934,3.934,0,0,1,3201.649,1077.273Z" transform="translate(-3196.738 -1071.826)" fill="none" stroke="#fe5244" stroke-linejoin="round" stroke-miterlimit="10" stroke-width="2"/>
              </g>
            </g>
          </g>
        </g>
      </g>
      <g id="CHAIR" transform="translate(91.334 171.495)">
        <line id="Line_215" data-name="Line 215" x1="23.557" y2="110.253" transform="translate(0 10.399)" fill="none" stroke="#ffcf2d" stroke-linecap="round" stroke-miterlimit="10" stroke-width="2"/>
        <line id="Line_216" data-name="Line 216" x2="23.557" y2="110.253" transform="translate(83.842 10.399)" fill="none" stroke="#ffcf2d" stroke-linecap="round" stroke-miterlimit="10" stroke-width="2"/>
        <line id="Line_217" data-name="Line 217" x2="96.635" transform="translate(5.22 96.175)" fill="none" stroke="#ffcf2d" stroke-linecap="round" stroke-miterlimit="10" stroke-width="2"/>
        <path id="Path_1330" data-name="Path 1330" d="M2882.01,2158.6h-97.379a2.233,2.233,0,0,1-2.231-2.231v-5.936a2.233,2.233,0,0,1,2.231-2.231h97.379a2.234,2.234,0,0,1,2.231,2.231v5.936A2.234,2.234,0,0,1,2882.01,2158.6Z" transform="translate(-2779.628 -2148.2)" fill="#fff" stroke="#66b0f0" stroke-linejoin="round" stroke-miterlimit="10" stroke-width="2"/>
      </g>
    </g>
    <g id="Layer_2" data-name="Layer 2" transform="translate(1041.665 446.863)">
      <g id="Layer_1" data-name="Layer 1" transform="translate(0 0)">
        <path id="Path_1" data-name="Path 1" d="M37.378,18.752c0,4.167-2.419,8.686-2.521,8.875-.142.261-1.388,2.564-1.5,2.721-.052.078-.854,1.307-1.742,2.68L22.678,46.967a10.121,10.121,0,0,1-3.3,3.331,1.019,1.019,0,0,1-.453.1c-1.313,0-3.485-2.271-4.231-3.438L8.886,37.927,8.047,36.62,6.621,34.4l-.29-.468-.447-.7-.29-.468-.447-.7-.29-.468-.229-.36c-.218-.337-.468-.717-.549-.831s-.253-.389-.36-.581l-.29-.549L3.3,29.038c-.154-.29-.29-.581-.439-.871-.035-.073-.073-.145-.107-.221l-.145-.3v-.02l-.035-.07c-.017-.041-.038-.081-.058-.125l-.209-.456-.067-.145-.09-.2q-.131-.29-.261-.61l-.084-.2A19.139,19.139,0,0,1,0,18.752a18.694,18.694,0,0,1,2.536-9.4c.119-.206.244-.412.369-.609s.235-.36.354-.534l.2-.29c.125-.174.253-.346.38-.514.081-.107.166-.212.247-.317.131-.16.267-.325.407-.488l.218-.25.078-.087.038-.041c.038-.044.078-.087.119-.128V6.076c.319-.348.653-.68.993-.993.267-.253.543-.494.828-.729l.11-.09.157-.128h.02a17.671,17.671,0,0,1,1.53-1.095A18.69,18.69,0,0,1,37.369,18.772Z" transform="translate(0 -0.082)" fill="#ffb300"/>
        <path id="Path_2" data-name="Path 2" d="M21.693,41.289,15.432,26.667a2.3,2.3,0,0,0-2.117-1.4H3.842c-.128.168-.256.34-.38.514-.067.1-.136.192-.2.29-.119.174-.238.351-.354.534s-.25.407-.369.616A18.69,18.69,0,0,0,0,36.622,19.472,19.472,0,0,0,1.786,43.69l.084.2c.087.212.177.415.261.61H19.576A2.3,2.3,0,0,0,21.693,41.3Z" transform="translate(0 -17.955)" fill="none"/>
        <path id="Path_3" data-name="Path 3" d="M26.8,39.014,20.537,24.395a3.1,3.1,0,0,0-2.858-1.885H8.859c-.139.163-.29.328-.407.488-.084.1-.166.209-.247.317-.131.168-.256.34-.38.514-.07.1-.136.192-.2.29H17.679a1.487,1.487,0,0,1,1.377.906L25.317,39.65a1.5,1.5,0,0,1-.787,1.963,1.47,1.47,0,0,1-.581.122H6.15c.029.064.055.128.084.195.087.212.177.418.261.61.029.07.058.136.09.2l.067.145.209.459H23.94A3.1,3.1,0,0,0,26.8,39.014Z" transform="translate(-4.364 -15.997)"/>
        <ellipse id="Ellipse_1" data-name="Ellipse 1" cx="3.491" cy="1.8" rx="3.491" ry="1.8" transform="translate(14.622 52.071)" opacity="0.43"/>
        <path id="Path_4" data-name="Path 4" d="M43.988,126.561a.7.7,0,0,1-.743.653H28.6l-.839-1.307H43.244A.706.706,0,0,1,43.988,126.561Z" transform="translate(-19.698 -89.367)"/>
        <path id="Path_5" data-name="Path 5" d="M63.638,131.63v4.22a2.736,2.736,0,1,1-5.468.1V131.63Z" transform="translate(-41.277 -93.428)"/>
        <path id="Path_1336" data-name="Path 1336" d="M1.774,0A1.774,1.774,0,1,1,0,1.774,1.774,1.774,0,0,1,1.774,0Z" transform="translate(15.81 34.815) rotate(-80.78)" fill="#3eb6a2"/>
        <circle id="Ellipse_3" data-name="Ellipse 3" cx="1.774" cy="1.774" r="1.774" transform="translate(15.81 34.815) rotate(-80.78)" fill="none" stroke="#000" stroke-miterlimit="10" stroke-width="2.5"/>
        <path id="Path_6" data-name="Path 6" d="M29.459,98.331v6.389H28.364V98.331a1.179,1.179,0,0,0-1.179-1.179H10c-.154-.29-.29-.581-.441-.871l-.1-.221H27.185a2.277,2.277,0,0,1,2.274,2.271Z" transform="translate(-6.706 -68.188)"/>
        <path id="Path_7" data-name="Path 7" d="M24.875,108.6v.468H16.959l-.3-.468Z" transform="translate(-11.822 -77.086)"/>
        <path id="Path_8" data-name="Path 8" d="M26.706,112.62v.468H19.539l-.3-.468Z" transform="translate(-13.653 -79.939)"/>
        <path id="Path_9" data-name="Path 9" d="M28.537,116.64v.468H22.119l-.3-.468Z" transform="translate(-15.483 -82.791)"/>
        <path id="Path_10" data-name="Path 10" d="M36.19,30.16h2.558a.842.842,0,0,1,.761.488L40.781,33.4" transform="translate(-25.68 -21.425)" fill="none" stroke="#fff" stroke-linecap="round" stroke-miterlimit="10" stroke-width="1.49"/>
        <path id="Path_11" data-name="Path 11" d="M20,14.765V15.8a.462.462,0,0,1-.462.456H16.78c.038-.044.078-.087.119-.128h0c.319-.348.653-.682.99-1,.267-.25.543-.494.831-.729l.107-.09h.7a.465.465,0,0,1,.479.456Z" transform="translate(-11.907 -10.178)" fill="#fec901"/>
        <path id="Path_12" data-name="Path 12" d="M19.876,14.432v1.031a.581.581,0,0,1-.581.581H16.42l.076-.087a.25.25,0,0,0,.038-.041c.041-.041.078-.087.119-.128h2.643a.331.331,0,0,0,.334-.334h0V14.432a.334.334,0,0,0-.334-.337h-.816v-.038l.11-.09c.049-.044.1-.087.157-.128h.54a.581.581,0,0,1,.59.592Z" transform="translate(-11.652 -9.845)"/>
      </g>
    </g>
  </g>
</svg>
