<svg xmlns="http://www.w3.org/2000/svg" width="1008.446" height="923.551" viewBox="0 0 1008.446 923.551">
  <g id="illustration" transform="translate(-1002.116 -443.858)">
    <g id="LAMP" transform="translate(1116.282 446.863)">
      <path id="Path_1231" data-name="Path 1231" d="M2105.35,519l69.929,67.492,70.283,380.462H1586.3Z" transform="translate(-1586.3 -493.51)" fill="#ffcf2d"/>
      <g id="Group_492" data-name="Group 492" transform="translate(519.438)">
        <g id="Group_491" data-name="Group 491">
          <path id="Path_1232" data-name="Path 1232" d="M3126.442,539.315l-70.141-67.7,11.731-12.191c17.279-17.951,48.41-15.9,66.361,1.343h0c17.951,17.279,21.1,48.41,3.816,66.361Z" transform="translate(-3056.3 -446.863)" fill="#fff" stroke="#ffcf2d" stroke-linecap="round" stroke-miterlimit="10" stroke-width="6"/>
          <line id="Line_199" data-name="Line 199" x1="70.177" y1="67.704" transform="translate(11.696 12.557)" fill="none" stroke="#ffcf2d" stroke-linecap="round" stroke-miterlimit="10" stroke-width="6"/>
        </g>
        <path id="Path_1233" data-name="Path 1233" d="M3288.2,474.964l7.844-6.007a23.734,23.734,0,0,1,33.534,4.77l192.793,234.7-98.693,220.108" transform="translate(-3206.256 -457.99)" fill="none" stroke="#3fb1b5" stroke-linecap="round" stroke-miterlimit="10" stroke-width="6"/>
        <circle id="Ellipse_293" data-name="Ellipse 293" cx="10.813" cy="10.813" r="10.813" transform="translate(302.158 240.792)" fill="#fff" stroke="#ffcf2d" stroke-linecap="round" stroke-miterlimit="10" stroke-width="6"/>
        <path id="Path_1234" data-name="Path 1234" d="M3543.756,1708.9h52.686a27.424,27.424,0,0,1,27.42,27.421v.777H3516.3v-.777A27.477,27.477,0,0,1,3543.756,1708.9Z" transform="translate(-3353.755 -1262.948)" fill="#fff" stroke="#ffcf2d" stroke-linecap="round" stroke-miterlimit="10" stroke-width="6"/>
      </g>
    </g>
    <g id="COMPUTER" transform="translate(1121.998 562.107)">
      <g id="COMPUTER_1_" transform="translate(92.271 0)">
        <path id="Path_1235" data-name="Path 1235" d="M2219.822,1051.659H1886.286a22.666,22.666,0,0,1-22.686-22.685V795.686A22.666,22.666,0,0,1,1886.286,773h333.536a22.666,22.666,0,0,1,22.686,22.686v233.253A22.674,22.674,0,0,1,2219.822,1051.659Z" transform="translate(-1863.6 -773)" fill="#fff" stroke="#3fb1b5" stroke-linecap="round" stroke-miterlimit="10" stroke-width="6"/>
        <path id="Path_1236" data-name="Path 1236" d="M2251.59,1059.32h-330.32a8.875,8.875,0,0,1-8.869-8.869V827.269a8.875,8.875,0,0,1,8.869-8.869h330.32a8.875,8.875,0,0,1,8.869,8.869v223.147A8.86,8.86,0,0,1,2251.59,1059.32Z" transform="translate(-1895.156 -802.357)" fill="#66b0f0" stroke="#66b0f0" stroke-linejoin="round" stroke-miterlimit="10" stroke-width="6"/>
        <g id="Group_493" data-name="Group 493" transform="translate(29.611 25.442)">
          <path id="Path_1237" data-name="Path 1237" d="M1955.739,856.449h-5.229a3.114,3.114,0,0,1-3.11-3.109v-5.23a3.114,3.114,0,0,1,3.11-3.11h5.229a3.114,3.114,0,0,1,3.11,3.11v5.23A3.137,3.137,0,0,1,1955.739,856.449Z" transform="translate(-1947.4 -845)" fill="none" stroke="#fff" stroke-linecap="round" stroke-miterlimit="10" stroke-width="6"/>
          <path id="Path_1238" data-name="Path 1238" d="M2023.039,856.449h-5.23a3.114,3.114,0,0,1-3.109-3.109v-5.23a3.114,3.114,0,0,1,3.109-3.11h5.23a3.114,3.114,0,0,1,3.11,3.11v5.23A3.114,3.114,0,0,1,2023.039,856.449Z" transform="translate(-1990.919 -845)" fill="none" stroke="#fff" stroke-linecap="round" stroke-miterlimit="10" stroke-width="6"/>
          <path id="Path_1239" data-name="Path 1239" d="M2090.339,856.449h-5.229a3.114,3.114,0,0,1-3.109-3.109v-5.23a3.114,3.114,0,0,1,3.109-3.11h5.229a3.115,3.115,0,0,1,3.11,3.11v5.23A3.092,3.092,0,0,1,2090.339,856.449Z" transform="translate(-2034.438 -845)" fill="none" stroke="#fff" stroke-linecap="round" stroke-miterlimit="10" stroke-width="6"/>
        </g>
        <g id="Group_494" data-name="Group 494" transform="translate(130.39 278.659)">
          <path id="Path_1240" data-name="Path 1240" d="M2362.071,1641.141H2232.6l25.407-79.541h78.622Z" transform="translate(-2232.6 -1561.6)" fill="#fff" stroke="#3fb1b5" stroke-linecap="round" stroke-miterlimit="10" stroke-width="6"/>
          <path id="Path_1241" data-name="Path 1241" d="M2261.4,1609.3l15.23-47.7h78.623Z" transform="translate(-2251.223 -1561.6)" fill="#3fb1b5"/>
        </g>
        <g id="Group_495" data-name="Group 495" transform="translate(263.606 27.244)">
          <path id="Path_1242" data-name="Path 1242" d="M2683.2,912.079h-62.933a10.662,10.662,0,0,1-10.671-10.671V860.771a10.662,10.662,0,0,1,10.671-10.671H2683.2a10.662,10.662,0,0,1,10.671,10.671v40.636A10.661,10.661,0,0,1,2683.2,912.079Z" transform="translate(-2609.6 -850.1)" fill="none" stroke="#fff" stroke-linecap="round" stroke-miterlimit="10" stroke-width="6"/>
          <line id="Line_200" data-name="Line 200" x2="48.022" transform="translate(17.986 14.488)" fill="none" stroke="#fff" stroke-linecap="round" stroke-miterlimit="10" stroke-width="6"/>
          <line id="Line_201" data-name="Line 201" x2="48.022" transform="translate(17.986 25.442)" fill="none" stroke="#fff" stroke-linecap="round" stroke-miterlimit="10" stroke-width="6"/>
          <line id="Line_202" data-name="Line 202" x2="48.022" transform="translate(17.986 36.396)" fill="none" stroke="#fff" stroke-linecap="round" stroke-miterlimit="10" stroke-width="6"/>
          <line id="Line_203" data-name="Line 203" x2="48.022" transform="translate(17.986 47.35)" fill="none" stroke="#fff" stroke-linecap="round" stroke-miterlimit="10" stroke-width="6"/>
        </g>
      </g>
      <g id="TEACHER" transform="translate(0 29.188)">
        <g id="SHIRT" transform="translate(24.108 85.584)">
          <path id="Path_1243" data-name="Path 1243" d="M2093.459,1239.992H1843.316l-14.665,21.025a42.122,42.122,0,0,1-68.622.672L1670.7,1138.825c3.745,4.664,20.883-.53,37.209-11.272,16.573-10.919,27.279-24.665,23.922-29.753l61.944,78.94,18.975-33.5a37.477,37.477,0,0,1,23.852-17.562l64.559-13.675h55.654l61.343,13.534A37.613,37.613,0,0,1,2043,1144.585Z" transform="translate(-1670.7 -1097.8)" fill="#fff" stroke="#3fb1b5" stroke-miterlimit="10" stroke-width="6"/>
          <line id="Line_204" data-name="Line 204" x1="17.774" y1="35.089" transform="translate(336.327 105.655)" fill="none" stroke="#3fb1b5" stroke-linecap="round" stroke-miterlimit="10" stroke-width="6"/>
          <line id="Line_205" data-name="Line 205" y1="34.735" x2="17.597" transform="translate(171.203 109.294)" fill="none" stroke="#3fb1b5" stroke-linecap="round" stroke-miterlimit="10" stroke-width="6"/>
          <line id="Line_206" data-name="Line 206" x2="40.318" y2="51.555" transform="translate(98.976 48.304)" fill="none" stroke="#3fb1b5" stroke-linecap="round" stroke-miterlimit="10" stroke-width="6"/>
          <path id="Path_1244" data-name="Path 1244" d="M2421.3,1167.442l14.841,18.057,33.216-28.2" transform="translate(-2156.069 -1136.275)" fill="none" stroke="#3fb1b5" stroke-linecap="round" stroke-miterlimit="10" stroke-width="6"/>
          <path id="Path_1245" data-name="Path 1245" d="M2296.019,1167.795,2281.6,1186.2l-36.5-28.9" transform="translate(-2042.13 -1136.275)" fill="none" stroke="#3fb1b5" stroke-linecap="round" stroke-miterlimit="10" stroke-width="6"/>
          <path id="Path_1246" data-name="Path 1246" d="M1765.726,1142.5c3.357,5.124-7.385,19.046-24.064,30.106-16.4,10.884-33.781,16.113-37.562,11.414" transform="translate(-1692.298 -1126.705)" fill="none" stroke="#3fb1b5" stroke-linecap="round" stroke-miterlimit="10" stroke-width="6"/>
          <circle id="Ellipse_294" data-name="Ellipse 294" cx="3.993" cy="3.993" r="3.993" transform="translate(58.34 16.749)" fill="none" stroke="#3fb1b5" stroke-linecap="round" stroke-miterlimit="10" stroke-width="6"/>
          <circle id="Ellipse_295" data-name="Ellipse 295" cx="3.993" cy="3.993" r="3.993" transform="translate(255.514 41.838)" fill="none" stroke="#3fb1b5" stroke-linecap="round" stroke-miterlimit="10" stroke-width="6"/>
          <circle id="Ellipse_296" data-name="Ellipse 296" cx="3.993" cy="3.993" r="3.993" transform="translate(255.514 73.993)" fill="none" stroke="#3fb1b5" stroke-linecap="round" stroke-miterlimit="10" stroke-width="6"/>
          <path id="Path_1247" data-name="Path 1247" d="M2114.1,1522.921l15.937-22.721v22.721Z" transform="translate(-1957.42 -1358.008)" fill="#3fb1b5"/>
        </g>
        <g id="ARM">
          <path id="Path_1248" data-name="Path 1248" d="M1705.466,1121.07c-16.325,10.742-33.463,15.936-37.209,11.272a1.494,1.494,0,0,1-.177-.248c-.777-1.166-.707-2.756,0-4.7,2.438-6.4,12.509-16.29,25.3-24.7,10.177-6.714,20.212-11.378,27.173-12.827,4.028-.813,7.032-.565,8.481.989h0l.353.424h0C1732.71,1096.37,1722.039,1110.152,1705.466,1121.07Z" transform="translate(-1644.538 -1006.794)" fill="#fe5244"/>
          <path id="Path_1249" data-name="Path 1249" d="M1663.4,969.877c-9.293,6.113-18.869,10.459-26.078,12.156h0l-32.262-45.513a14.069,14.069,0,0,1,3.392-19.647l29.046-20.424-16.467-28.021a8.515,8.515,0,0,1,3.074-11.7,8.389,8.389,0,0,1,4.24-1.131,8.5,8.5,0,0,1,7.173,3.922l51.484,80.071.353.565h0C1690.647,945.177,1679.976,958.958,1663.4,969.877Z" transform="translate(-1602.474 -855.6)" fill="#e57281"/>
          <path id="Path_1250" data-name="Path 1250" d="M1678.444,972.1l17.986,27.88a5.646,5.646,0,0,1-1.7,7.774l-3.993,2.615a5.649,5.649,0,0,1-7.844-1.625l-17-25.442" transform="translate(-1643.488 -930.934)" fill="none" stroke="#9a3b82" stroke-linecap="round" stroke-miterlimit="10" stroke-width="6"/>
          <path id="Path_1251" data-name="Path 1251" d="M1689.81,1075.6a5.712,5.712,0,0,1-1.7,7.915l-3.64,2.3a5.669,5.669,0,0,1-7.774-1.661" transform="translate(-1650.472 -997.861)" fill="none" stroke="#9a3b82" stroke-linecap="round" stroke-miterlimit="10" stroke-width="6"/>
          <path id="Path_1252" data-name="Path 1252" d="M1618.8,1029.2l16.643,24.735a5.66,5.66,0,0,1-1.731,7.915l-3.392,1.873a5.664,5.664,0,0,1-7.668-1.519L1613,1048.6" transform="translate(-1609.281 -967.857)" fill="none" stroke="#9a3b82" stroke-linecap="round" stroke-miterlimit="10" stroke-width="6"/>
          <path id="Path_1253" data-name="Path 1253" d="M1730.3,1008.766l-8.445-13.11a9.2,9.2,0,0,0-12.9-2.65l-20.954,14.2s6.078,10.919,20.848,2.261l4.947,7.88h0a21.423,21.423,0,0,0-6.431,29.859Z" transform="translate(-1657.779 -943.43)" fill="#e57281"/>
          <path id="Path_1254" data-name="Path 1254" d="M1729.2,1009.766l-8.445-13.11a9.2,9.2,0,0,0-12.9-2.65L1688,1007.858s6.078,10.919,20.848,2.261l4.947,7.88h0a21.424,21.424,0,0,0-6.431,29.859" transform="translate(-1657.779 -944.077)" fill="none" stroke="#9a3b82" stroke-linecap="round" stroke-miterlimit="10" stroke-width="6"/>
          <path id="Path_1255" data-name="Path 1255" d="M1712.5,1121.135c-9.293,6.113-18.869,10.459-26.078,12.156h0l-8.021-11.308c4.488-5.866,12.509-12.933,22.014-19.187,10.177-6.714,20.212-11.378,27.174-12.827,4.028-.813,7.032-.565,8.48.99h0l.354.424h0c.035.071.071.106.106.177.035.035.035.071.071.141s.071.106.106.177C1739.107,1097.283,1728.542,1110.534,1712.5,1121.135Z" transform="translate(-1651.571 -1006.859)" fill="#9a3b82"/>
        </g>
        <g id="HEAD_2_" transform="translate(238.915 5.225)">
          <g id="Group_496" data-name="Group 496" transform="translate(15.477 63.468)">
            <path id="Path_1256" data-name="Path 1256" d="M2378.26,1050v31.06c0,9.011-12.509,16.29-27.88,16.29-15.406,0-27.88-7.279-27.88-16.29V1050Z" transform="translate(-2322.465 -1050)" fill="#e57281"/>
            <path id="Path_1257" data-name="Path 1257" d="M2330.6,1092.58c-5.053-2.933-8.2-7.032-8.2-11.52V1050H2378.2v8.622a21.943,21.943,0,0,1-13.71,20.318Z" transform="translate(-2322.4 -1050)" fill="#9a3b82"/>
          </g>
          <path id="Path_1258" data-name="Path 1258" d="M2365.42,983.5v.53a9.712,9.712,0,0,1-9.718,9.717h-6.4a19.984,19.984,0,0,1-19.4,15.159h-15.831a19.9,19.9,0,0,1-19.364-15.159h-6.4a9.712,9.712,0,0,1-9.718-9.717v-.53a9.712,9.712,0,0,1,9.718-9.717h5.8v-7.668A16.267,16.267,0,0,1,2308.035,950a19.16,19.16,0,0,0,17.633,9.435,55.439,55.439,0,0,0,13.534-2.261,8.378,8.378,0,0,1,10.424,5.9,16.953,16.953,0,0,1,.283,3v7.668h5.795A9.765,9.765,0,0,1,2365.42,983.5Z" transform="translate(-2278.6 -921.868)" fill="#e57281"/>
          <path id="Path_1259" data-name="Path 1259" d="M2366.339,922.264h-4.452v-8.516a8.584,8.584,0,0,0-.282-2.156,8.379,8.379,0,0,0-10.425-5.9,55.135,55.135,0,0,1-13.533,2.261,19.161,19.161,0,0,1-17.633-9.435,16.267,16.267,0,0,0-13.923,16.113V922.3h-5.548s-6.36-23-1.59-29.506c4.7-6.4,10.354-3.6,10.354-3.6s-3.392-19.152,15.548-18.8c18.9.353,43.5,22.3,45.3,26.325C2372.982,902.9,2366.339,922.264,2366.339,922.264Z" transform="translate(-2290.614 -870.386)" fill="#9a3b82"/>
          <g id="Group_499" data-name="Group 499" transform="translate(6.608 42.26)">
            <g id="Group_497" data-name="Group 497" transform="translate(0 14.353)">
              <path id="Path_1260" data-name="Path 1260" d="M2486.4,1037.42a6.824,6.824,0,0,1,6.82-6.82" transform="translate(-2419.58 -1030.6)" fill="none" stroke="#9a3b82" stroke-linecap="round" stroke-miterlimit="10" stroke-width="5"/>
              <path id="Path_1261" data-name="Path 1261" d="M2304.12,1037.42a6.824,6.824,0,0,0-6.82-6.82" transform="translate(-2297.3 -1030.6)" fill="none" stroke="#9a3b82" stroke-linecap="round" stroke-miterlimit="10" stroke-width="5"/>
            </g>
            <g id="Group_498" data-name="Group 498" transform="translate(17.456)">
              <path id="Path_1262" data-name="Path 1262" d="M2434.214,991.967a12.254,12.254,0,0,0-11.414-1.025" transform="translate(-2395.91 -989.982)" fill="none" stroke="#9a3b82" stroke-linecap="round" stroke-miterlimit="10" stroke-width="5"/>
              <path id="Path_1263" data-name="Path 1263" d="M2346.7,991.967a12.253,12.253,0,0,1,11.413-1.025" transform="translate(-2346.7 -989.982)" fill="none" stroke="#9a3b82" stroke-linecap="round" stroke-miterlimit="10" stroke-width="5"/>
              <path id="Path_1264" data-name="Path 1264" d="M2406.06,1069.4s-2.721,5.866-11.06,2.791" transform="translate(-2377.933 -1041.337)" fill="none" stroke="#9a3b82" stroke-linecap="round" stroke-miterlimit="10" stroke-width="5"/>
              <path id="Path_1265" data-name="Path 1265" d="M2393.9,1060.8c2.156.141,5.442,0,5.442,0" transform="translate(-2377.221 -1035.776)" fill="none" stroke="#9a3b82" stroke-linecap="round" stroke-miterlimit="10" stroke-width="5"/>
              <ellipse id="Ellipse_297" data-name="Ellipse 297" cx="1.767" cy="2.968" rx="1.767" ry="2.968" transform="translate(30.848 10.784)" fill="#9a3b82"/>
              <ellipse id="Ellipse_298" data-name="Ellipse 298" cx="1.767" cy="2.968" rx="1.767" ry="2.968" transform="translate(5.512 10.784)" fill="#9a3b82"/>
            </g>
          </g>
          <g id="Group_500" data-name="Group 500" transform="translate(20.53 47.108)">
            <path id="Path_1266" data-name="Path 1266" d="M2351.718,1022.6h-11.131a3.875,3.875,0,0,1-3.887-3.887v-11.131a3.875,3.875,0,0,1,3.887-3.887h11.131a3.876,3.876,0,0,1,3.887,3.887v11.131A3.875,3.875,0,0,1,2351.718,1022.6Z" transform="translate(-2336.7 -1003.7)" fill="none" stroke="#fff" stroke-miterlimit="10" stroke-width="5"/>
            <path id="Path_1267" data-name="Path 1267" d="M2428.818,1022.6h-11.131a3.876,3.876,0,0,1-3.887-3.887v-11.131a3.876,3.876,0,0,1,3.887-3.887h11.131a3.876,3.876,0,0,1,3.887,3.887v11.131A3.9,3.9,0,0,1,2428.818,1022.6Z" transform="translate(-2386.556 -1003.7)" fill="none" stroke="#fff" stroke-miterlimit="10" stroke-width="5"/>
            <line id="Line_207" data-name="Line 207" x2="8.304" transform="translate(18.94 7.35)" fill="none" stroke="#fff" stroke-miterlimit="10" stroke-width="5"/>
          </g>
        </g>
      </g>
      <g id="ICON" transform="translate(259.658 210.002)">
        <path id="Path_1268" data-name="Path 1268" d="M2382.283,1400.551h-38.622a6.356,6.356,0,0,1-6.361-6.36v-20.53a6.357,6.357,0,0,1,6.361-6.36h38.622a6.357,6.357,0,0,1,6.361,6.36v20.53A6.356,6.356,0,0,1,2382.283,1400.551Z" transform="translate(-2337.3 -1367.3)" fill="none" stroke="#66b0f0" stroke-linejoin="round" stroke-miterlimit="10" stroke-width="6"/>
        <g id="Group_501" data-name="Group 501" transform="translate(9.788 8.269)">
          <path id="Path_1269" data-name="Path 1269" d="M2381.855,1407.414h-13.074a3.785,3.785,0,0,1-3.781-3.781v-9.152a3.785,3.785,0,0,1,3.781-3.781h13.074a3.785,3.785,0,0,1,3.781,3.781v9.152A3.785,3.785,0,0,1,2381.855,1407.414Z" transform="translate(-2365 -1390.7)" fill="#66b0f0"/>
          <path id="Path_1270" data-name="Path 1270" d="M2438.1,1407.247l-4.029-2.686a4.092,4.092,0,0,1-1.766-3.392v-4.028a4.092,4.092,0,0,1,1.766-3.392l4.029-2.686a1.422,1.422,0,0,1,2.191,1.272v13.675A1.412,1.412,0,0,1,2438.1,1407.247Z" transform="translate(-2408.519 -1390.781)" fill="#66b0f0"/>
        </g>
      </g>
    </g>
    <g id="TABLE" transform="translate(1005.116 921.014)">
      <line id="Line_208" data-name="Line 208" x1="938.063" fill="none" stroke="#3fb1b5" stroke-linecap="round" stroke-miterlimit="10" stroke-width="6"/>
      <g id="Group_503" data-name="Group 503" transform="translate(48.41 6.184)">
        <path id="Path_1271" data-name="Path 1271" d="M1662.306,1806.2v436.257h-24.629v-83.039a14.04,14.04,0,0,0-14.029-14.029H1447.358a14.04,14.04,0,0,0-14.028,14.029v83.039H1408.7V1806.2Z" transform="translate(-1408.7 -1806.2)" fill="#fff" stroke="#3fb1b5" stroke-linecap="round" stroke-miterlimit="10" stroke-width="6"/>
        <path id="Path_1272" data-name="Path 1272" d="M1663.048,1806.2v115.76L1408.7,2131.4l.036-325.2Z" transform="translate(-1408.7 -1806.2)" fill="#d0f0e4"/>
        <path id="Path_1273" data-name="Path 1273" d="M1682.813,1875.886V1955a13.271,13.271,0,0,1-13.286,13.287h-177.74A13.271,13.271,0,0,1,1478.5,1955v-79.117a13.271,13.271,0,0,1,13.286-13.286h177.74A13.271,13.271,0,0,1,1682.813,1875.886Z" transform="translate(-1453.835 -1842.67)" fill="none" stroke="#3fb1b5" stroke-linecap="round" stroke-miterlimit="10" stroke-width="6"/>
        <path id="Path_1274" data-name="Path 1274" d="M1728.732,2285.453H1641.24l-3.64-25.053h87.527Z" transform="translate(-1556.716 -2099.904)" fill="#ffcf2d"/>
        <g id="Group_502" data-name="Group 502" transform="translate(124.489 146.044)">
          <path id="Path_1275" data-name="Path 1275" d="M1855.206,2219.5a19.74,19.74,0,0,0-19.753,19.752v19.753H1761v-19.753a19.74,19.74,0,0,1,19.753-19.752Z" transform="translate(-1761 -2219.5)" fill="#fff" stroke="#3fb1b5" stroke-linecap="round" stroke-miterlimit="10" stroke-width="6"/>
          <path id="Path_1276" data-name="Path 1276" d="M1909,2233.952h-74.453A19.747,19.747,0,0,0,1815.5,2219.5h74.453A19.778,19.778,0,0,1,1909,2233.952Z" transform="translate(-1796.242 -2219.5)" fill="#fff" stroke="#3fb1b5" stroke-linecap="round" stroke-miterlimit="10" stroke-width="6"/>
        </g>
        <path id="Path_1277" data-name="Path 1277" d="M1682.813,2344.586V2423.7a13.271,13.271,0,0,1-13.286,13.287h-177.74A13.271,13.271,0,0,1,1478.5,2423.7v-79.118a13.271,13.271,0,0,1,13.286-13.286h177.74A13.271,13.271,0,0,1,1682.813,2344.586Z" transform="translate(-1453.835 -2145.751)" fill="none" stroke="#3fb1b5" stroke-linecap="round" stroke-miterlimit="10" stroke-width="6"/>
        <path id="Path_1278" data-name="Path 1278" d="M1664.6,1986.814a11.408,11.408,0,0,1,11.414-11.414h50a11.409,11.409,0,0,1,11.414,11.414" transform="translate(-1574.175 -1915.611)" fill="none" stroke="#3fb1b5" stroke-linecap="round" stroke-miterlimit="10" stroke-width="6"/>
        <path id="Path_1279" data-name="Path 1279" d="M1664.6,2455.513a11.409,11.409,0,0,1,11.414-11.414h50a11.409,11.409,0,0,1,11.414,11.414" transform="translate(-1574.175 -2218.692)" fill="none" stroke="#3fb1b5" stroke-linecap="round" stroke-miterlimit="10" stroke-width="6"/>
      </g>
      <rect id="Rectangle_125" data-name="Rectangle 125" width="26.255" height="437.212" transform="translate(874.459 6.184)" fill="#fff" stroke="#3fb1b5" stroke-linecap="round" stroke-miterlimit="10" stroke-width="6"/>
      <line id="Line_209" data-name="Line 209" x2="547.919" transform="translate(454.526 443.396)" fill="none" stroke="#3fb1b5" stroke-linecap="round" stroke-miterlimit="10" stroke-width="6"/>
    </g>
    <g id="PLANT" transform="translate(1047.693 748.464)">
      <path id="Path_1280" data-name="Path 1280" d="M1474.529,1412.972h-15.866s-22.65-94.382-42.544-97.457-20.919,33.251-20.919,33.251.354-55.23,50.071-47.668C1495.024,1308.66,1474.529,1412.972,1474.529,1412.972Z" transform="translate(-1394.137 -1300.387)" fill="#fff" stroke="#3fb1b5" stroke-linecap="round" stroke-miterlimit="10" stroke-width="6"/>
      <path id="Path_1281" data-name="Path 1281" d="M1465.9,1307.828s45.336-16.749,47.385,108.057" transform="translate(-1439.855 -1304.714)" fill="none" stroke="#3fb1b5" stroke-linecap="round" stroke-miterlimit="10" stroke-width="6"/>
      <rect id="Rectangle_126" data-name="Rectangle 126" width="74.524" height="60.672" transform="translate(49.084 111.171)" fill="#fe5244"/>
      <path id="Path_1282" data-name="Path 1282" d="M1678.6,1562.454a19.689,19.689,0,0,1-15.654-.495,27.228,27.228,0,0,1-10.53-8.3c-4.1-5.3-6.855-12.544-6.855-21.555h0c0-21.838-17.385-35.548-24.523-6.643-.495,2.014-.954,4.2-1.343,6.643v-.212h0a.877.877,0,0,1,.035-.283v-.141a85.258,85.258,0,0,1,2.3-13.569,64.21,64.21,0,0,1,5.689-14.983,38.174,38.174,0,0,1,4.735-6.855,25.673,25.673,0,0,1,20.106-9.258c16.325,0,28.269,19.223,32.827,38.375C1689.382,1541.818,1687.757,1558.461,1678.6,1562.454Z" transform="translate(-1539.308 -1420.929)" fill="#fff" stroke="#3fb1b5" stroke-linecap="round" stroke-miterlimit="10" stroke-width="6"/>
      <path id="Path_1283" data-name="Path 1283" d="M1655.9,1508.07s32.721-23.286,42.333,67.068" transform="translate(-1562.717 -1432.941)" fill="none" stroke="#3fb1b5" stroke-linecap="round" stroke-miterlimit="10" stroke-width="6"/>
      <path id="Path_1284" data-name="Path 1284" d="M1392.2,1375.653c0,5.83-.671,28.127,20.6,29.152s23.392-31.1,23.392-31.1-10.46-28.41-22.014-31.308C1394.634,1337.49,1392.2,1375.653,1392.2,1375.653Z" transform="translate(-1392.193 -1327.273)" fill="#3fb1b5"/>
      <path id="Path_1285" data-name="Path 1285" d="M1645.566,1572.748H1619.7C1625.672,1535.327,1645.566,1549.391,1645.566,1572.748Z" transform="translate(-1539.308 -1461.576)" fill="#3fb1b5"/>
    </g>
    <g id="LIGHT" transform="translate(1116.318 562.107)">
      <path id="Path_1286" data-name="Path 1286" d="M2251.014,795.686v233.253a22.689,22.689,0,0,1-22.686,22.686H1961.365a42.155,42.155,0,0,1-68.163,0l-.035-.035a22.606,22.606,0,0,1-16.467-8.94l6.148-5.3L2039.74,901.941,2189.141,773h39.187A22.712,22.712,0,0,1,2251.014,795.686Z" transform="translate(-1774.12 -773)" fill="#fff" opacity="0.4"/>
      <path id="Path_1287" data-name="Path 1287" d="M1657.072,1633.74c-4.7,2.12-10.389,1.8-15.654-.495V1663H1586.4l44.523-38.41,10.53-9.081,8.021-6.926,15.512-13.18C1669.51,1614.693,1667,1629.181,1657.072,1633.74Z" transform="translate(-1586.4 -1304.797)" fill="#fff" opacity="0.4"/>
    </g>
    <g id="GIRL" transform="translate(1293.033 599.925)">
      <g id="GIRL_1_">
        <g id="LEGS" transform="translate(132.295 338.085)">
          <g id="RIGHT_LEG" transform="translate(114.349 110.036)">
            <path id="Path_1294" data-name="Path 1294" d="M2900.331,2148.2v196.68h-45.442l-28.94-80.813L2784.5,2148.2Z" transform="translate(-2784.5 -2148.2)" fill="#a0505a"/>
            <path id="Path_1295" data-name="Path 1295" d="M2784.5,2148.2h115.831v63.145l-102.05-24.664Z" transform="translate(-2784.5 -2148.2)" fill="#73325a"/>
            <g id="Group_515" data-name="Group 515" transform="translate(41.449 115.867)">
              <path id="Path_1296" data-name="Path 1296" d="M2976.182,2476.1v80.813H2930.74L2901.8,2476.1S2925.228,2489.033,2976.182,2476.1Z" transform="translate(-2901.8 -2476.1)" fill="none" stroke="#fff" stroke-linecap="round" stroke-miterlimit="10" stroke-width="6"/>
              <circle id="Ellipse_299" data-name="Ellipse 299" cx="5.159" cy="5.159" r="5.159" transform="translate(18.481 8.657)" fill="none" stroke="#fff" stroke-linecap="round" stroke-miterlimit="10" stroke-width="6"/>
              <circle id="Ellipse_300" data-name="Ellipse 300" cx="5.159" cy="5.159" r="5.159" transform="translate(43.074 25.3)" fill="none" stroke="#fff" stroke-linecap="round" stroke-miterlimit="10" stroke-width="6"/>
              <circle id="Ellipse_301" data-name="Ellipse 301" cx="5.159" cy="5.159" r="5.159" transform="translate(61.379 6.82)" fill="none" stroke="#fff" stroke-linecap="round" stroke-miterlimit="10" stroke-width="6"/>
              <circle id="Ellipse_302" data-name="Ellipse 302" cx="5.159" cy="5.159" r="5.159" transform="translate(54.135 44.665)" fill="none" stroke="#fff" stroke-linecap="round" stroke-miterlimit="10" stroke-width="6"/>
              <circle id="Ellipse_303" data-name="Ellipse 303" cx="5.159" cy="5.159" r="5.159" transform="translate(23.64 35.265)" fill="none" stroke="#fff" stroke-linecap="round" stroke-miterlimit="10" stroke-width="6"/>
              <circle id="Ellipse_304" data-name="Ellipse 304" cx="5.159" cy="5.159" r="5.159" transform="translate(32.05 63.534)" fill="none" stroke="#fff" stroke-linecap="round" stroke-miterlimit="10" stroke-width="6"/>
            </g>
            <g id="Group_517" data-name="Group 517" transform="translate(26.778 179.613)">
              <path id="Path_1297" data-name="Path 1297" d="M2970.818,2710.246l-31.166,64.7a28.2,28.2,0,0,1-25.972,17.209h-39.753c-10.177,0-16.36-10.318-12.473-19.718l39.965-96.4a30.453,30.453,0,0,1,11.06-14.17,30.049,30.049,0,0,1,17.138-5.371c8.693,0,17.314,5.9,23.039,12.438l13.852,14.948A25.093,25.093,0,0,1,2970.818,2710.246Z" transform="translate(-2860.28 -2656.5)" fill="#66b0f0"/>
              <path id="Path_1298" data-name="Path 1298" d="M2977.556,2758.227l-31.166,64.7a28.2,28.2,0,0,1-25.972,17.208h-42.262c-3.922,0-6.148-2.438-7.456-5.8h9.4a28.2,28.2,0,0,0,25.972-17.208l35.937-74.948a20.259,20.259,0,0,1,18.233-11.484,19.4,19.4,0,0,1,19.258,16.82A25.117,25.117,0,0,1,2977.556,2758.227Z" transform="translate(-2867.018 -2704.481)" fill="#fff" stroke="#66b0f0" stroke-linejoin="round" stroke-miterlimit="10" stroke-width="6"/>
              <g id="Group_516" data-name="Group 516" transform="translate(0.431 18.622)">
                <path id="Path_1299" data-name="Path 1299" d="M2964.434,2714.854a26.994,26.994,0,0,0-12.226-3.534,19.96,19.96,0,0,0-17.916,11.272l-37.209,77.6a30.207,30.207,0,0,1-27.88,18.445h-6.855a13.916,13.916,0,0,1-.848-2.12h7.7a28.118,28.118,0,0,0,25.936-17.173l.036-.035,37.244-77.633a22.065,22.065,0,0,1,19.823-12.474,28.564,28.564,0,0,1,8.657,1.838Z" transform="translate(-2861.5 -2709.2)" fill="#fff"/>
              </g>
            </g>
          </g>
          <g id="LEFT_LEG">
            <path id="Path_1300" data-name="Path 1300" d="M2575.243,1946.836l-8.869,115.866-3.958,51.909s-25.831,28.763-55.23,11.025l-13.6-62.9-31.131-143.924a68.21,68.21,0,0,1,57.633-82.015Z" transform="translate(-2460.893 -1836.8)" fill="#a0505a"/>
            <g id="Group_518" data-name="Group 518" transform="translate(32.688 225.903)">
              <path id="Path_1301" data-name="Path 1301" d="M2626.192,2476.1l-3.958,53.322s-25.831,28.764-55.23,11.025l-13.6-64.311C2587.57,2486.383,2626.192,2476.1,2626.192,2476.1Z" transform="translate(-2553.4 -2476.1)" fill="none" stroke="#fff" stroke-linecap="round" stroke-miterlimit="10" stroke-width="6"/>
              <circle id="Ellipse_305" data-name="Ellipse 305" cx="5.159" cy="5.159" r="5.159" transform="translate(27.032 21.732)" fill="none" stroke="#fff" stroke-linecap="round" stroke-miterlimit="10" stroke-width="6"/>
              <circle id="Ellipse_306" data-name="Ellipse 306" cx="5.159" cy="5.159" r="5.159" transform="translate(59.824 13.816)" fill="none" stroke="#fff" stroke-linecap="round" stroke-miterlimit="10" stroke-width="6"/>
              <circle id="Ellipse_307" data-name="Ellipse 307" cx="5.159" cy="5.159" r="5.159" transform="translate(7.244 6.82)" fill="none" stroke="#fff" stroke-linecap="round" stroke-miterlimit="10" stroke-width="6"/>
              <circle id="Ellipse_308" data-name="Ellipse 308" cx="5.159" cy="5.159" r="5.159" transform="translate(21.873 49.824)" fill="none" stroke="#fff" stroke-linecap="round" stroke-miterlimit="10" stroke-width="6"/>
              <circle id="Ellipse_309" data-name="Ellipse 309" cx="5.159" cy="5.159" r="5.159" transform="translate(45.937 39.506)" fill="none" stroke="#fff" stroke-linecap="round" stroke-miterlimit="10" stroke-width="6"/>
            </g>
            <g id="Group_520" data-name="Group 520" transform="translate(46.257 277.776)">
              <path id="Path_1302" data-name="Path 1302" d="M2681.129,2635.3l-34.063,136.22h-10.742c-.5,0-.954-.036-1.449-.071-8.127-.742-14.982-7.6-16.714-15.689L2591.8,2633.89c29.4,17.774,55.266-10.989,55.266-10.989Z" transform="translate(-2591.8 -2622.9)" fill="#66b0f0"/>
              <path id="Path_1303" data-name="Path 1303" d="M2760.945,2728.979c7.174-37.881,9.152-66.821-3.216-69.153s-34.382,22.792-41.555,60.672-3.428,71.379,8.94,73.711C2737.482,2796.577,2753.772,2766.894,2760.945,2728.979Z" transform="translate(-2669.885 -2646.681)" fill="#fff" stroke="#66b0f0" stroke-linejoin="round" stroke-miterlimit="10" stroke-width="6"/>
              <g id="Group_519" data-name="Group 519" transform="translate(35.337 7.173)">
                <path id="Path_1304" data-name="Path 1304" d="M2697.809,2709.243c-3.71,19.647-4.805,38.623-3.039,53.463,1.272,10.672,3.957,18.269,7.632,21.944h-1.414c-.494,0-.954-.035-1.448-.071-3.322-4.382-5.689-11.731-6.891-21.625-1.8-15.018-.707-34.241,3.074-54.1,3.569-18.8,10.778-36.432,20.354-49.682,5.725-7.915,11.731-13.463,17.208-15.971l3.18,1.06C2723.852,2648.006,2704.7,2672.882,2697.809,2709.243Z" transform="translate(-2691.803 -2643.2)" fill="#fff"/>
              </g>
            </g>
          </g>
        </g>
        <g id="SKIRT" transform="translate(191.132 321.442)">
          <path id="Path_1305" data-name="Path 1305" d="M2628.4,1806.308l161.2-16.608,161.132,45.195-1.378,21.414c-2.19,33.781-31.308,60.071-65.159,60.071h-200.6Z" transform="translate(-2628.047 -1789.7)" fill="#fe5244"/>
          <g id="Group_521" data-name="Group 521" transform="translate(0 14.205)">
            <path id="Path_1306" data-name="Path 1306" d="M3029.555,1913.2c0,30.672-30.6,68.2-64.453,68.2H2764.5" transform="translate(-2716.055 -1883.765)" fill="none" stroke="#fff" stroke-linecap="round" stroke-linejoin="round" stroke-miterlimit="10" stroke-width="6"/>
            <path id="Path_1307" data-name="Path 1307" d="M2995.566,1895.9c-5.018,27.385-31.8,56.643-61.131,56.643H2741.5" transform="translate(-2701.182 -1872.578)" fill="none" stroke="#fff" stroke-linecap="round" stroke-linejoin="round" stroke-miterlimit="10" stroke-width="6"/>
            <path id="Path_1308" data-name="Path 1308" d="M2955.082,1877.5c-8.48,23.251-31.485,45.124-56.4,45.124H2712.5" transform="translate(-2682.429 -1860.68)" fill="none" stroke="#fff" stroke-linecap="round" stroke-linejoin="round" stroke-miterlimit="10" stroke-width="6"/>
            <path id="Path_1309" data-name="Path 1309" d="M2921.555,1864.6c-11.131,16.926-29.4,30.247-48.87,30.247H2686.5" transform="translate(-2665.616 -1852.339)" fill="none" stroke="#fff" stroke-linecap="round" stroke-linejoin="round" stroke-miterlimit="10" stroke-width="6"/>
            <path id="Path_1310" data-name="Path 1310" d="M2886.732,1849.8c-10.707,10.777-24.559,17.809-39.046,17.809H2661.5" transform="translate(-2649.451 -1842.768)" fill="none" stroke="#fff" stroke-linecap="round" stroke-linejoin="round" stroke-miterlimit="10" stroke-width="6"/>
            <path id="Path_1311" data-name="Path 1311" d="M2845,1829.9a49.5,49.5,0,0,1-24.311,6.82H2634.5" transform="translate(-2631.991 -1829.9)" fill="none" stroke="#fff" stroke-linecap="round" stroke-linejoin="round" stroke-miterlimit="10" stroke-width="6"/>
            <line id="Line_210" data-name="Line 210" x1="55.159" y1="110.071" transform="translate(0 2.403)" fill="none" stroke="#fff" stroke-linecap="round" stroke-linejoin="round" stroke-miterlimit="10" stroke-width="6"/>
          </g>
        </g>
        <g id="HANDS" transform="translate(0 193.137)">
          <g id="RIGHT_HAND" transform="translate(490.72 3.487)">
            <path id="Path_1312" data-name="Path 1312" d="M3507.162,1458.989c-15.195,4.311-30.142,3.039-31.732-1.59-1.484-4.417,5.23-11.979,18.834-17,.672-.247,1.379-.495,2.085-.742a60.539,60.539,0,0,1,12.05-2.721c11.414-1.449,20.707.6,21.873,4.064C3531.861,1445.632,3523.239,1454.431,3507.162,1458.989Z" transform="translate(-3475.227 -1436.469)" fill="#fff" stroke="#3fb1b5" stroke-linejoin="round" stroke-miterlimit="10" stroke-width="6"/>
            <path id="Path_1313" data-name="Path 1313" d="M3499.019,1563.407h-5.83l-15.3-103.287v-.071l-.389-2.579c.742-4.7,8.091-11.343,21.06-15.654a62.918,62.918,0,0,1,18.375-3.216l5.583,15.3.53,1.449,17.668,48.445A44.374,44.374,0,0,1,3499.019,1563.407Z" transform="translate(-3476.697 -1437.847)" fill="#a0505a"/>
            <path id="Path_1314" data-name="Path 1314" d="M3522.871,1455a55.387,55.387,0,0,1-14.24,6.113c-13.145,3.71-26.466,2.191-30.742-.99v-.071l-.389-2.579c.742-4.7,8.091-11.343,21.06-15.654a62.918,62.918,0,0,1,18.375-3.216Z" transform="translate(-3476.697 -1437.847)" fill="#73325a"/>
          </g>
          <g id="LEFT_HAND">
            <path id="Path_1315" data-name="Path 1315" d="M2410.283,1470.664l-18.551,46.149a60.2,60.2,0,0,1-55.866,37.739H2086.5v-22.827a13.235,13.235,0,0,1,8.551-12.4l25.618-9.717a20.4,20.4,0,0,1,7.244-1.343H2157l164.595-16.608L2350,1426.6Z" transform="translate(-2086.5 -1426.6)" fill="#a0505a"/>
            <path id="Path_1316" data-name="Path 1316" d="M2115.3,1701.2l-19.329,7.315a10.022,10.022,0,0,0-6.467,9.364" transform="translate(-2088.44 -1604.168)" fill="none" stroke="#73325a" stroke-linecap="round" stroke-miterlimit="10" stroke-width="6"/>
            <path id="Path_1317" data-name="Path 1317" d="M2115.3,1734.2l-19.329,7.314a10.022,10.022,0,0,0-6.467,9.364" transform="translate(-2088.44 -1625.507)" fill="none" stroke="#73325a" stroke-linecap="round" stroke-miterlimit="10" stroke-width="6"/>
            <line id="Line_211" data-name="Line 211" x1="19.329" y2="6.961" transform="translate(7.527 119.93)" fill="none" stroke="#73325a" stroke-linecap="round" stroke-miterlimit="10" stroke-width="6"/>
            <path id="Path_1318" data-name="Path 1318" d="M2156.8,1589.489s18.092-46.184,23.887-45.407-16.042,42.438-16.042,42.438Z" transform="translate(-2131.959 -1502.563)" fill="#fe5244"/>
            <path id="Path_1319" data-name="Path 1319" d="M2824.57,1426.7l-4.17,9.505,53.393,62.015,11.06-27.491Z" transform="translate(-2561.07 -1426.665)" fill="#73325a"/>
          </g>
        </g>
        <g id="T-SHIRT" transform="translate(249.083 107.342)">
          <path id="Path_1320" data-name="Path 1320" d="M3034.229,1295.391l21.908,147.7-161.1-45.194-28.94-84.276-74.7-54.594,26.219-31.237a123.116,123.116,0,0,1,94.312-43.993H2963.7a123.172,123.172,0,0,1,108.058,64.1l16.784,29.046s-5.053-7.421-32.3.035C3032.25,1283.589,3034.229,1295.391,3034.229,1295.391Z" transform="translate(-2791.401 -1183.8)" fill="#3fb1b5"/>
          <line id="Line_212" data-name="Line 212" y1="36.325" x2="8.375" transform="translate(74.7 92.828)" fill="none" stroke="#fff" stroke-linecap="round" stroke-linejoin="round" stroke-miterlimit="10" stroke-width="6"/>
          <line id="Line_213" data-name="Line 213" x1="27.244" y1="169.365" transform="translate(233.429 55.442)" fill="none" stroke="#fff" stroke-linecap="round" stroke-linejoin="round" stroke-miterlimit="10" stroke-width="6"/>
          <line id="Line_214" data-name="Line 214" x2="160.779" y2="45.866" transform="translate(103.605 213.429)" fill="none" stroke="#fff" stroke-linecap="round" stroke-linejoin="round" stroke-miterlimit="10" stroke-width="6"/>
        </g>
        <g id="HEAD" transform="translate(330.269)">
          <path id="NECK" d="M3109.2,1083.116v23.746l41.908-.353V1064.6Z" transform="translate(-3078.088 -999.379)" fill="#a0505a"/>
          <g id="HEAD_1_" transform="translate(0 11.228)">
            <path id="Path_1321" data-name="Path 1321" d="M3097.566,958.479v.636a11.225,11.225,0,0,1-11.166,11.52h-2.473c-1.59,6.29-15.725,13.64-25.76,13.64h-11.7a20.774,20.774,0,0,1-20.5-24.135l.566-3.428-3.463-1.943a3.766,3.766,0,0,1-1.166-5.548l7.491-9.894,1.625-9.753A23.8,23.8,0,0,1,3044.6,911.8c2.756,31.06,30.177,34.735,37.421,35.159h4.028A11.521,11.521,0,0,1,3097.566,958.479Z" transform="translate(-3021.154 -911.8)" fill="#a0505a"/>
            <path id="Path_1322" data-name="Path 1322" d="M3184.9,1035.882a9.079,9.079,0,0,1,9.081-9.082" transform="translate(-3127.039 -986.164)" fill="none" stroke="#73325a" stroke-linecap="round" stroke-miterlimit="10" stroke-width="6"/>
            <ellipse id="Ellipse_310" data-name="Ellipse 310" cx="1.802" cy="4.17" rx="1.802" ry="4.17" transform="translate(17.755 27.138)" fill="#73325a"/>
            <path id="Path_1323" data-name="Path 1323" d="M3068.7,963.886s4.982-.495,10.107,6.573" transform="translate(-3051.899 -945.476)" fill="none" stroke="#73325a" stroke-linecap="round" stroke-miterlimit="10" stroke-width="6"/>
          </g>
          <g id="HAIR" transform="translate(23.479)">
            <path id="Path_1324" data-name="Path 1324" d="M3124.985,926.412h4.028a11.522,11.522,0,0,1,11.52,11.519v.636a11.225,11.225,0,0,1-11.167,11.52L3126.646,952c-11.449,7.35-27.279,36.255-23.392,56.714,4.381,23,24.417,28.127,42.933,24.594s32.015-14.311,27.633-37.35a46.015,46.015,0,0,0-2.332-8.127c.318.106.6.212.918.318,22.262,6.078,48.41,6.784,55.619-10.6s5.583-34.594-16.078-43.569c-12.58-5.23-29.682-5.194-42.933-1.59,6.678-23.216-5.194-49.046-27-51.626-34.24-4.064-53.887,10.071-54.417,10.46h0C3087.564,895.317,3090.355,924.4,3124.985,926.412Z" transform="translate(-3087.599 -880.025)" fill="#73325a"/>
            <path id="Path_1325" data-name="Path 1325" d="M3287.716,1025.9c-2.792,9.081-8.551,18.8-17.915,25.406,0,0,16.537,10.919,20.424,31.2" transform="translate(-3205.418 -974.354)" fill="none" stroke="#fff" stroke-linecap="round" stroke-linejoin="round" stroke-miterlimit="10" stroke-width="6"/>
            <g id="Group_524" data-name="Group 524" transform="translate(30.065 32.536)">
              <g id="Group_522" data-name="Group 522" transform="translate(52.41)">
                <path id="Path_1326" data-name="Path 1326" d="M3330.564,990.333H3321.2v-9.364a8.852,8.852,0,0,1,8.87-8.869h.494a8.852,8.852,0,0,1,8.87,8.869v.495A8.852,8.852,0,0,1,3330.564,990.333Z" transform="translate(-3321.129 -972.1)" fill="none" stroke="#fe5244" stroke-linejoin="round" stroke-miterlimit="10" stroke-width="6"/>
                <path id="Path_1327" data-name="Path 1327" d="M3327.007,1019.563l-6.007-9.541,9.541-6.007a10.229,10.229,0,0,1,14.1,3.18l.565.883a10.23,10.23,0,0,1-3.18,14.1l-.883.565A10.257,10.257,0,0,1,3327.007,1019.563Z" transform="translate(-3321 -991.719)" fill="none" stroke="#fe5244" stroke-linejoin="round" stroke-miterlimit="10" stroke-width="6"/>
              </g>
              <g id="Group_523" data-name="Group 523" transform="translate(0 35.239)">
                <path id="Path_1328" data-name="Path 1328" d="M3175.762,1087.4l6.678-6.4,6.538,7.385a8.851,8.851,0,0,1-.919,12.509l-.389.318a8.852,8.852,0,0,1-12.509-.919l-.318-.389A8.857,8.857,0,0,1,3175.762,1087.4Z" transform="translate(-3172.681 -1077.758)" fill="none" stroke="#fe5244" stroke-linejoin="round" stroke-miterlimit="10" stroke-width="6"/>
                <path id="Path_1329" data-name="Path 1329" d="M3203.5,1086.057l-3-10.848,10.848-3a10.2,10.2,0,0,1,12.58,7.1l.283,1.025a10.2,10.2,0,0,1-7.1,12.579l-1.025.283A10.281,10.281,0,0,1,3203.5,1086.057Z" transform="translate(-3190.67 -1071.826)" fill="none" stroke="#fe5244" stroke-linejoin="round" stroke-miterlimit="10" stroke-width="6"/>
              </g>
            </g>
          </g>
        </g>
      </g>
      <g id="CHAIR" transform="translate(238.659 448.122)">
        <line id="Line_215" data-name="Line 215" x1="61.555" y2="288.094" transform="translate(0 27.173)" fill="none" stroke="#ffcf2d" stroke-linecap="round" stroke-miterlimit="10" stroke-width="6"/>
        <line id="Line_216" data-name="Line 216" x2="61.555" y2="288.094" transform="translate(219.083 27.173)" fill="none" stroke="#ffcf2d" stroke-linecap="round" stroke-miterlimit="10" stroke-width="6"/>
        <line id="Line_217" data-name="Line 217" x2="252.511" transform="translate(13.64 251.309)" fill="none" stroke="#ffcf2d" stroke-linecap="round" stroke-miterlimit="10" stroke-width="6"/>
        <path id="Path_1330" data-name="Path 1330" d="M3042.685,2175.373H2788.231a5.836,5.836,0,0,1-5.831-5.83v-15.512a5.836,5.836,0,0,1,5.831-5.83h254.454a5.836,5.836,0,0,1,5.83,5.83v15.512A5.836,5.836,0,0,1,3042.685,2175.373Z" transform="translate(-2775.156 -2148.2)" fill="#fff" stroke="#66b0f0" stroke-linejoin="round" stroke-miterlimit="10" stroke-width="6"/>
      </g>
    </g>
    <g id="Layer_2" data-name="Layer 2" transform="translate(1100.619 446.781)">
      <g id="Layer_1" data-name="Layer 1" transform="translate(0 0.082)">
        <path id="Path_1" data-name="Path 1" d="M97.669,48.866c0,10.889-6.321,22.7-6.587,23.19-.372.683-3.627,6.7-3.923,7.11-.137.2-2.231,3.415-4.553,7L59.257,122.594c-2.345,3.711-6.139,7.55-8.62,8.7a2.663,2.663,0,0,1-1.184.258c-3.43,0-9.106-5.934-11.056-8.985L23.22,98.971l-2.193-3.415L17.3,89.744l-.759-1.222-1.169-1.829-.759-1.222-1.169-1.829-.759-1.222-.6-.941c-.569-.88-1.222-1.874-1.434-2.17s-.66-1.017-.941-1.518l-.759-1.434-.319-.615c-.4-.759-.759-1.518-1.146-2.276-.091-.19-.19-.379-.281-.577l-.379-.782v-.053l-.091-.182c-.046-.106-.1-.212-.152-.326L6.04,70.356l-.175-.379-.235-.531q-.341-.759-.683-1.594l-.22-.516C1.571,59.884,0,53.677,0,48.866A48.847,48.847,0,0,1,6.625,24.3c.31-.537.637-1.076.963-1.592s.615-.941.926-1.4l.531-.759c.326-.455.66-.9.994-1.343.212-.281.433-.554.645-.827.341-.417.7-.85,1.062-1.275l.569-.653.2-.228.1-.106c.1-.114.2-.228.311-.334v-.046c.835-.911,1.707-1.776,2.6-2.6.7-.66,1.419-1.29,2.163-1.9l.288-.235.41-.334h.053a46.174,46.174,0,0,1,4-2.861A48.838,48.838,0,0,1,97.646,48.919Z" transform="translate(0 -0.082)" fill="#ffb300"/>
        <path id="Path_2" data-name="Path 2" d="M56.685,67.127,40.324,28.92a6.018,6.018,0,0,0-5.532-3.65H10.039c-.334.44-.668.888-.994,1.343-.175.25-.357.5-.531.759-.311.455-.622.918-.926,1.4s-.653,1.062-.964,1.609A48.838,48.838,0,0,0,0,54.933C0,59.751,1.571,65.959,4.667,73.4l.22.516c.228.554.463,1.085.683,1.594H51.153a6.018,6.018,0,0,0,5.532-8.347Z" transform="translate(0 -6.157)" fill="none"/>
        <path id="Path_3" data-name="Path 3" d="M60.1,65.634l-16.36-38.2a8.1,8.1,0,0,0-7.467-4.925H13.23c-.364.425-.759.857-1.062,1.275-.22.273-.433.546-.645.827-.341.44-.668.888-.994,1.343-.182.25-.357.5-.531.759H36.276a3.885,3.885,0,0,1,3.6,2.368L56.233,67.3a3.908,3.908,0,0,1-2.056,5.13,3.84,3.84,0,0,1-1.518.319H6.15c.076.167.144.334.22.508.228.554.463,1.093.683,1.594.076.182.152.357.235.531l.175.379.546,1.2H52.636A8.112,8.112,0,0,0,60.1,65.634Z" transform="translate(-1.483 -5.491)"/>
        <ellipse id="Ellipse_1" data-name="Ellipse 1" cx="9.121" cy="4.705" rx="9.121" ry="4.705" transform="translate(38.207 136.064)" opacity="0.43"/>
        <path id="Path_4" data-name="Path 4" d="M70.163,127.616a1.836,1.836,0,0,1-1.943,1.707H29.953l-2.193-3.415H68.221A1.844,1.844,0,0,1,70.163,127.616Z" transform="translate(-6.695 -30.427)"/>
        <path id="Path_5" data-name="Path 5" d="M72.459,131.63v11.026a7.148,7.148,0,1,1-14.289.25V131.63Z" transform="translate(-14.029 -31.808)"/>
        <path id="Path_1336" data-name="Path 1336" d="M4.636,0A4.636,4.636,0,1,1,0,4.636,4.636,4.636,0,0,1,4.636,0Z" transform="translate(41.312 90.973) rotate(-80.78)" fill="#3eb6a2"/>
        <circle id="Ellipse_3" data-name="Ellipse 3" cx="4.636" cy="4.636" r="4.636" transform="translate(41.312 90.973) rotate(-80.78)" fill="none" stroke="#000" stroke-miterlimit="10" stroke-width="2.5"/>
        <path id="Path_6" data-name="Path 6" d="M61.733,101.994v16.694H58.873V101.994a3.081,3.081,0,0,0-3.081-3.081H10.877c-.4-.759-.759-1.518-1.153-2.276L9.45,96.06H55.792a5.949,5.949,0,0,1,5.942,5.934Z" transform="translate(-2.279 -23.229)"/>
        <path id="Path_7" data-name="Path 7" d="M38.127,108.6v1.222H17.442L16.66,108.6Z" transform="translate(-4.018 -26.253)"/>
        <path id="Path_8" data-name="Path 8" d="M38.75,112.62v1.222H20.022l-.782-1.222Z" transform="translate(-4.64 -27.223)"/>
        <path id="Path_9" data-name="Path 9" d="M39.372,116.64v1.222H22.6l-.782-1.222Z" transform="translate(-5.262 -28.192)"/>
        <path id="Path_10" data-name="Path 10" d="M36.19,30.16h6.685a2.2,2.2,0,0,1,1.988,1.275l3.324,7.179" transform="translate(-8.728 -7.336)" fill="none" stroke="#fff" stroke-linecap="round" stroke-miterlimit="10" stroke-width="1.49"/>
        <path id="Path_11" data-name="Path 11" d="M25.2,15.5V18.2A1.207,1.207,0,0,1,24,19.386H16.78c.1-.114.2-.228.311-.334h0c.835-.911,1.707-1.783,2.588-2.6.7-.653,1.419-1.29,2.17-1.9l.281-.235h1.821A1.214,1.214,0,0,1,25.2,15.5Z" transform="translate(-4.047 -3.513)" fill="#fec901"/>
        <path id="Path_12" data-name="Path 12" d="M25.45,15.388v2.694A1.518,1.518,0,0,1,23.932,19.6H16.42l.2-.228a.653.653,0,0,0,.1-.106c.106-.106.2-.228.311-.334h6.905a.865.865,0,0,0,.873-.873h0V15.388a.873.873,0,0,0-.873-.88H21.8v-.1l.288-.235c.129-.114.273-.228.41-.334H23.91a1.518,1.518,0,0,1,1.54,1.548Z" transform="translate(-3.96 -3.4)"/>
      </g>
    </g>
  </g>
</svg>
