<svg xmlns="http://www.w3.org/2000/svg" width="1920" height="1200" viewBox="0 0 1920 1200">
  <g id="learn_vocab_background" data-name="learn vocab background" transform="translate(0 -4047)">
    <g id="Group_28" data-name="Group 28" transform="translate(0 1087)">
      <path id="Union_5" data-name="Union 5" d="M1884,352.541c-34.666-12.355-106.267-37.068-177.333-45.292-70.666-8.378-142.267.116-213.333,2.047A1238.553,1238.553,0,0,1,1280,296.94c-70.666-10.425-142.267-26.643-213.333-18.534C996,286.514,924.4,319.721,853.333,319.605c-35.333.058-70.9-8.215-106.517-16.488S675.533,286.572,640,286.63c-70.666-.116-142.267,33.091-213.333,39.153C356,332.077,284.4,311.227,213.333,309.3,142.666,307.365,71.067,323.582,35.6,331.961L0,340.186V0L36,26.94c34.666,26.94,106.267,80.819,177.333,98.751,70.667,18.268,142.267-.253,213.333-4.462A582.635,582.635,0,0,1,640,148.169c70.667,22.73,142.267,58.089,213.333,40.41C924,170.9,995.6,98.5,1066.667,98.751c35.333-.127,70.9,17.91,106.517,35.947s71.283,36.074,106.817,35.948c70.667.253,142.267-72.148,213.333-85.365C1564,71.558,1635.6,117.019,1706.666,121.229c70.667,4.21,142.267-31.149,177.734-49.418L1920,53.879V364.9Z" transform="translate(0 3126.648)" fill="#4486df"/>
      <rect id="Rectangle_115" data-name="Rectangle 115" width="1920" height="575" transform="translate(0 3332)" fill="#4486df"/>
      <path id="wave_5_" data-name="wave (5)" d="M0,140.309l35.6-11.674c35.467-11.893,107.067-34.913,177.733-32.172C284.4,99.2,356,128.8,426.667,119.865,497.733,111.26,569.333,64.125,640,64.29c71.067-.164,142.667,46.97,213.333,46.806,71.067.164,142.667-46.97,213.333-58.48,71.067-11.51,142.667,11.51,213.333,26.308a878.633,878.633,0,0,0,213.333,17.539c71.067-2.74,142.667-14.8,213.333-2.9,71.067,11.674,142.667,46.751,177.333,64.29l36,17.539V0H0Z" transform="translate(0 3877.636)" fill="#4486df"/>
    </g>
    <text id="VS" transform="translate(899 5034)" fill="#fff" font-size="1000" font-family="Lato-Regular, Lato" letter-spacing="-0.02em" opacity="0.31"><tspan x="-595" y="0">VS</tspan></text>
  </g>
</svg>
