<svg xmlns="http://www.w3.org/2000/svg" xmlns:xlink="http://www.w3.org/1999/xlink" width="1842" height="577" viewBox="0 0 1842 577">
  <defs>
    <linearGradient id="linear-gradient" x2="1.029" y2="0.954" gradientUnits="objectBoundingBox">
      <stop offset="0" stop-color="#0972ff"/>
      <stop offset="1" stop-color="#0067f7"/>
    </linearGradient>
    <filter id="Rectangle_128" x="0" y="0" width="1842" height="577" filterUnits="userSpaceOnUse">
      <feOffset dy="3" input="SourceAlpha"/>
      <feGaussianBlur stdDeviation="21.5" result="blur"/>
      <feFlood flood-opacity="0.161"/>
      <feComposite operator="in" in2="blur"/>
      <feComposite in="SourceGraphic"/>
    </filter>
  </defs>
  <g id="stats_background" data-name="stats background" transform="translate(-87.403 -2158.5)">
    <g transform="matrix(1, 0, 0, 1, 87.4, 2158.5)" filter="url(#Rectangle_128)">
      <rect id="Rectangle_128-2" data-name="Rectangle 128" width="1713" height="448" rx="20" transform="translate(64.5 61.5)" fill="url(#linear-gradient)"/>
    </g>
    <path id="wave_1_" data-name="wave (1)" d="M0,474.646l71.377-45.471c71.377-46.324,214.132-135.985,356.887-125.311s285.51,125.951,428.264,182.1c142.755,57,285.51,57,428.264,22.842s285.51-102.469,356.887-136.625l71.377-34.156V133.083H0Z" transform="translate(152 2086.917)" fill="#fafafa" opacity="0.07"/>
    <path id="wave_1_2" data-name="wave (1)" d="M0,293.083l71.377-21.3c71.377-21.7,214.132-63.7,356.887-58.7s285.51,59,428.264,85.3c142.755,26.7,285.51,26.7,428.264,10.7s285.51-48,356.887-64l71.377-16v-96H0Z" transform="translate(152 2086.917)" fill="#fafafa" opacity="0.07"/>
  </g>
</svg>
